<svg width="19" height="22" viewBox="0 0 19 22" fill="none" xmlns="http://www.w3.org/2000/svg">
<path d="M2.62631 21.0772H11.3478C11.871 21.0775 12.388 20.9405 12.8633 20.6755C13.3386 20.4105 13.7609 20.0238 14.1012 19.542L18.7267 13.0013C18.8235 12.8646 18.8911 12.7011 18.9236 12.5252C18.956 12.3493 18.9523 12.1665 18.9127 11.9928C18.8731 11.8191 18.7989 11.6598 18.6966 11.5291C18.5942 11.3984 18.467 11.3001 18.3259 11.243L16.5418 10.5222C16.1105 10.3523 15.6514 10.3138 15.205 10.4102C14.7586 10.5066 14.3387 10.7349 13.9824 11.0749L11.0949 13.8738L10.5355 12.5167C10.2358 11.7851 9.77315 11.1699 9.19985 10.7407C8.62654 10.3114 7.96553 10.0854 7.29169 10.0881H2.62631C1.62633 10.0881 0.81311 11.0738 0.81311 12.2859V18.8794C0.81311 20.0915 1.62633 21.0772 2.62631 21.0772ZM2.62631 12.2859H7.29169C7.98343 12.2859 8.60445 12.7508 8.9136 13.5002L9.31885 14.4837H5.34612V16.6816H10.7984C10.9379 16.6793 11.0751 16.6379 11.1991 16.5607L11.2019 16.5596L11.2055 16.5574H11.2082L11.21 16.5563H11.2137L11.2146 16.5552C11.2227 16.5585 11.2173 16.5541 11.2173 16.5541C11.2263 16.5541 11.2191 16.553 11.2191 16.553H11.22L11.2218 16.5519L11.2245 16.5508L11.2263 16.5497L11.2282 16.5486L11.2309 16.5475L11.2327 16.5464C11.2354 16.5464 11.2336 16.5453 11.2345 16.5453L11.2372 16.5431L11.239 16.542L11.2408 16.5409L11.2436 16.5398L11.2454 16.5387H11.2463L11.2481 16.5376H11.249L11.2508 16.5365L11.2526 16.5354C11.2608 16.5343 11.2554 16.5343 11.2554 16.5343L11.2572 16.5332C11.2921 16.5076 11.3254 16.479 11.3569 16.4475L15.1157 12.8024C15.3532 12.5738 15.6805 12.5024 15.9679 12.6189L16.4728 12.8233L12.7259 18.1233C12.5535 18.3606 12.3415 18.5506 12.1039 18.681C11.8663 18.8113 11.6086 18.879 11.3478 18.8794H2.62631V12.2859ZM13.5055 0.197886H13.4901C13.3424 0.200084 12.5781 0.240744 11.6923 0.972619C10.8302 0.260524 10.084 0.203381 9.90814 0.198985L9.88095 0.197886H9.87732C9.15113 0.197886 8.46755 0.541846 7.95623 1.16273C7.44309 1.78581 7.15933 2.61329 7.15933 3.49462C7.15933 4.37595 7.44309 5.20343 7.93991 5.80673L11.035 9.74743C11.1202 9.85458 11.2223 9.9398 11.3353 9.99797C11.4483 10.0561 11.5698 10.0861 11.6925 10.086C11.8153 10.0859 11.9367 10.0557 12.0497 9.99737C12.1626 9.93901 12.2646 9.85362 12.3496 9.74633L15.4284 5.82541C15.9425 5.20343 16.2253 4.37595 16.2253 3.49462C16.2253 2.61329 15.9416 1.78581 15.4293 1.16383C15.1776 0.856733 14.8781 0.61323 14.5482 0.447422C14.2183 0.281614 13.8645 0.196798 13.5074 0.197886H13.5055ZM14.4121 3.49462C14.4121 3.78803 14.3179 4.06386 14.1302 4.29133L11.6923 7.39576L9.23816 4.27155C9.06682 4.06386 8.97253 3.78803 8.97253 3.49462C8.97253 3.20121 9.06682 2.92538 9.23907 2.71659C9.40302 2.51445 9.62626 2.39911 9.86009 2.39571C9.88276 2.39681 10.3152 2.43087 10.8274 2.92868C10.9009 3.00011 10.9752 3.08143 11.0514 3.17264L11.6923 3.94957L12.3333 3.17264C12.4095 3.08143 12.4838 3.00011 12.5572 2.92868C13.0368 2.46164 13.4421 2.4034 13.511 2.39681C13.6291 2.39678 13.7461 2.42512 13.8552 2.4802C13.9643 2.53527 14.0633 2.61599 14.1465 2.71769C14.3179 2.92538 14.4121 3.20121 14.4121 3.49462Z" fill="black"/>
</svg>
