<svg width="24" height="25" viewBox="0 0 24 25" fill="none" xmlns="http://www.w3.org/2000/svg">
<path d="M16.6352 0.0310059L16.029 0.695491C14.6713 2.18989 13.5522 2.85807 12.6206 3.29521C11.689 3.73142 10.9062 3.86173 10.1373 4.45043C9.31757 5.07887 8.1263 6.284 7.62448 8.43549C6.54873 8.67023 5.76133 9.08241 5.14028 9.61936C4.52663 10.1498 4.06454 10.7533 3.49524 11.4104C3.49062 11.4178 3.49802 11.4317 3.49524 11.4391C2.67827 12.378 1.96388 13.3891 0.577612 13.9233L0 14.1543V24.031H17.6176C18.6277 23.9765 19.3283 23.2769 19.7543 22.5865C20.1794 21.8971 20.4151 21.1503 20.5343 20.5367C20.8412 18.973 21.4003 14.4713 21.4003 14.4713L21.4299 14.3854V14.2985C21.4003 13.6737 21.1434 13.1433 20.8227 12.6516L21.8624 9.56206L23.5093 7.07787L23.9713 6.41338L23.3642 5.86535L17.2997 0.608618L16.6352 0.0310059ZM16.6934 2.5725L21.5158 6.76088L20.2451 8.63696L20.1591 8.72476L20.1295 8.86893L19.2922 11.3522C18.8551 11.172 18.405 11.0454 17.906 11.0639H17.8477L12.0143 11.0925H11.0901V14.6737C10.9608 15.6811 10.4007 16.0711 9.70388 16.3492C9.47283 16.4426 9.44418 16.3917 9.24179 16.4352V11.0648C9.09022 7.63885 10.3101 6.65275 11.2639 5.92357C11.5273 5.72117 12.299 5.48736 13.4006 4.97074C14.3211 4.5373 15.4652 3.76099 16.6934 2.57342V2.5725ZM7.45165 10.5149C7.44796 10.7247 7.38234 10.8725 7.39343 11.0925V18.4859H8.31761C8.31761 18.4859 9.30648 18.4748 10.3684 18.0525C11.4293 17.6301 12.7112 16.6413 12.9385 14.9047V12.9409L17.906 12.9122H17.9346C18.3403 12.89 18.7383 13.0294 19.0414 13.3C19.3445 13.5705 19.5281 13.9502 19.5519 14.3558C19.5482 14.3706 19.5057 14.7134 19.4946 14.7892H15.711V16.6376H19.2636C19.1656 17.352 19.076 17.8002 18.9743 18.4859H15.711V20.3343H18.686C18.5768 20.7814 18.4014 21.2097 18.1657 21.605C17.9134 22.0163 17.6962 22.1716 17.5021 22.1826H1.84836V15.28C3.34645 14.4852 4.27802 13.342 4.88059 12.6525C5.50533 11.9372 5.93415 11.3956 6.35373 11.0352C6.62821 10.8005 7.05795 10.6665 7.45165 10.5149Z" fill="black"/>
</svg>
