<svg width="20" height="20" viewBox="0 0 20 20" fill="none" xmlns="http://www.w3.org/2000/svg">
<path d="M19 11.9999H17.75H17V12.7499V18.9999C17 19.2651 16.8946 19.5195 16.7071 19.707C16.5196 19.8945 16.2652 19.9999 16 19.9999H3.99998C3.73477 19.9999 3.48041 19.8945 3.29288 19.707C3.10534 19.5195 2.99998 19.2651 2.99998 18.9999V12.7499V11.9999H2.24998H0.999982L1.00018 11.2499H2.99998H3.74998V11.9999V18.9999C3.74998 19.0662 3.77632 19.1298 3.82321 19.1767C3.87009 19.2236 3.93368 19.2499 3.99998 19.2499H16C16.0663 19.2499 16.1299 19.2236 16.1768 19.1767C16.2236 19.1298 16.25 19.0662 16.25 18.9999V11.9999V11.2499H17H19H19.0006C19.0487 11.2499 19.0957 11.236 19.1359 11.2099C19.1762 11.1837 19.208 11.1464 19.2275 11.1025L19.2283 11.1007C19.248 11.0568 19.2544 11.0082 19.2469 10.9607C19.2394 10.9132 19.2183 10.869 19.1861 10.8333L19.1855 10.8326L10.1855 0.832628L10.185 0.832043C10.157 0.80087 10.0945 0.764404 9.99998 0.764404C9.9055 0.764404 9.84297 0.80087 9.81498 0.832043L9.81445 0.832628L0.814453 10.8326L0.814428 10.8327C0.782102 10.8686 0.760876 10.9131 0.75332 10.9608C0.745764 11.0085 0.752202 11.0574 0.771854 11.1016C0.791507 11.1457 0.823532 11.1832 0.864052 11.2096C0.90452 11.2358 0.951729 11.2499 0.999982 11.2499L19 11.9999ZM19 11.9999C19.1932 12.0001 19.3824 11.9441 19.5445 11.8389M19 11.9999L19.5445 11.8389M19.5445 11.8389C19.7065 11.7336 19.8346 11.5835 19.913 11.4069L19.5445 11.8389ZM9.47647 16.535L10.002 17.0511L10.5275 16.535L13.8739 13.2486C14.1518 12.9804 14.373 12.6591 14.5243 12.3037C14.676 11.9471 14.7543 11.5635 14.7543 11.1759C14.7543 10.7883 14.676 10.4047 14.5243 10.0481C14.3731 9.69292 14.1521 9.37177 13.8744 9.10373C13.318 8.55632 12.5687 8.24946 11.788 8.24946C11.1401 8.24946 10.5139 8.46079 10.0015 8.84556C9.48931 8.46085 8.86319 8.24955 8.21548 8.24955C7.43495 8.24955 6.68578 8.5564 6.12953 9.10377C5.85185 9.3718 5.63086 9.69293 5.47971 10.0481C5.32793 10.4047 5.24969 10.7883 5.24969 11.1759C5.24969 11.5635 5.32793 11.9471 5.47971 12.3037C5.63095 12.6591 5.85212 12.9804 6.13004 13.2485L9.47647 16.535Z" stroke="black" stroke-width="1.5"/>
</svg>
