<svg width="18" height="24" viewBox="0 0 18 24" fill="none" xmlns="http://www.w3.org/2000/svg">
<path d="M17.0305 3.96967L17.0305 3.96969C17.3234 4.26259 17.3234 4.73741 17.0305 5.03031L12.5949 9.46595L12.3752 9.68562V9.99628V22.5C12.3752 22.9142 12.0394 23.25 11.6252 23.25H10.8752C10.461 23.25 10.1252 22.9142 10.1252 22.5V17.25V16.5H9.37523H8.62523H7.87523V17.25V22.5C7.87523 22.9142 7.53944 23.25 7.12523 23.25H6.37523C5.96102 23.25 5.62523 22.9142 5.62523 22.5V9.99628V9.68562L5.40556 9.46595L0.969922 5.03036C0.969921 5.03036 0.96992 5.03036 0.969919 5.03035C0.677018 4.73745 0.677019 4.26259 0.969922 3.96969L0.969943 3.96967C1.26279 3.67679 1.73767 3.67679 2.03052 3.96967L2.03054 3.96969L6.09118 8.03033L6.31085 8.25H6.62151H11.3789H11.6896L11.9092 8.03033L15.9699 3.96969L15.9699 3.96967C16.2628 3.67679 16.7377 3.67679 17.0305 3.96967ZM6.37523 3.375C6.37523 1.92523 7.55046 0.75 9.00023 0.75C10.45 0.75 11.6252 1.92523 11.6252 3.375C11.6252 4.82473 10.45 6 9.00023 6C7.55047 6 6.37523 4.82473 6.37523 3.375Z" stroke="black" stroke-width="1.5"/>
</svg>
