<svg width="24" height="24" viewBox="0 0 24 24" fill="none" xmlns="http://www.w3.org/2000/svg">
<path d="M15.4826 6.20385L15.4832 6.20432C16.4714 7.06904 17.0357 8.25354 17.0357 9.53571C17.0357 11.4306 15.7886 13.079 13.9541 13.7848L13.6848 13.0848L13.955 13.7845C13.853 13.8238 13.7653 13.893 13.7033 13.983C13.6415 14.0725 13.608 14.1785 13.6071 14.2873V14.8929C13.6071 15.4249 13.1749 15.8571 12.6429 15.8571H11.3571C10.8251 15.8571 10.3929 15.4249 10.3929 14.8929V14.317C10.3929 13.5549 10.6137 12.7929 11.0599 12.1507C11.4904 11.5302 12.0929 11.0543 12.8025 10.7829C13.4882 10.5184 13.8214 9.99426 13.8214 9.53571C13.8214 8.891 13.1367 8.14286 12 8.14286C10.8633 8.14286 10.1786 8.891 10.1786 9.53571V9.73929C10.1786 10.2714 9.74635 10.7036 9.21429 10.7036H7.92857C7.39651 10.7036 6.96429 10.2714 6.96429 9.73929V9.53571C6.96429 8.25357 7.52856 7.0691 8.51676 6.20438L15.4826 6.20385ZM15.4826 6.20385C14.5353 5.37655 13.2968 4.92857 12 4.92857C10.7046 4.92857 9.46539 5.37299 8.51684 6.20432L15.4826 6.20385ZM0.75 12C0.75 5.78743 5.78743 0.75 12 0.75C18.2126 0.75 23.25 5.78743 23.25 12C23.25 18.2126 18.2126 23.25 12 23.25C5.78743 23.25 0.75 18.2126 0.75 12ZM10.1786 17.8929C10.1786 18.899 10.9938 19.7143 12 19.7143C13.0062 19.7143 13.8214 18.899 13.8214 17.8929C13.8214 16.8867 13.0062 16.0714 12 16.0714C10.9938 16.0714 10.1786 16.8867 10.1786 17.8929Z" stroke="black" stroke-width="1.5"/>
</svg>
