<svg width="237" height="40" viewBox="0 0 237 40" fill="none" xmlns="http://www.w3.org/2000/svg">
<g clip-path="url(#clip0_413_2559)">
<rect x="0.259766" y="0.21582" width="236.053" height="39.0817" fill="white"/>
<path fill-rule="evenodd" clip-rule="evenodd" d="M19.7687 19.7567C19.7687 17.8951 20.3208 16.0754 21.355 14.5276C22.3892 12.9797 23.8592 11.7734 25.579 11.061C27.2989 10.3486 29.1914 10.1622 31.0171 10.5254C32.8429 10.8885 34.52 11.785 35.8363 13.1013C37.1526 14.4176 38.0491 16.0947 38.4122 17.9205C38.7754 19.7462 38.589 21.6387 37.8766 23.3586C37.1642 25.0784 35.9579 26.5484 34.41 27.5826C32.8622 28.6168 31.0425 29.1688 29.1809 29.1688C27.4002 29.172 25.6555 28.6673 24.1515 27.7138C24.0177 27.6292 23.8673 27.5742 23.7105 27.5527C23.5537 27.5311 23.3941 27.5434 23.2424 27.5887L20.0533 28.5399L21.2548 25.7306C21.3246 25.5671 21.354 25.3891 21.3405 25.2118C21.327 25.0345 21.271 24.863 21.1772 24.7119C20.2537 23.2243 19.7657 21.5076 19.7687 19.7567ZM29.1809 8.12988C22.7596 8.12988 17.5541 13.3354 17.5541 19.7567C17.5541 21.7919 18.0779 23.7076 18.9992 25.3741L17.089 29.841C17.0064 30.0345 16.9805 30.2475 17.0146 30.4552C17.0486 30.6628 17.1411 30.8565 17.2813 31.0134C17.4214 31.1704 17.6033 31.2842 17.8058 31.3415C18.0083 31.3988 18.2229 31.3972 18.4245 31.337L23.4074 29.851C25.1647 30.858 27.1555 31.3864 29.1809 31.3835C35.6022 31.3835 40.8077 26.178 40.8077 19.7567C40.8077 13.3354 35.6022 8.12988 29.1809 8.12988ZM31.72 22.1728L30.2639 23.1982C29.4616 22.7366 28.7249 22.1694 28.0736 21.5118C27.3744 20.8135 26.7698 20.0265 26.2753 19.1709L27.1999 18.3858C27.3926 18.2224 27.5236 17.9979 27.5711 17.7498C27.6186 17.5016 27.5799 17.2447 27.4613 17.0216L26.2831 14.807C26.2047 14.6599 26.0941 14.5324 25.9595 14.434C25.825 14.3357 25.67 14.2689 25.5061 14.2388C25.3421 14.2087 25.1735 14.2159 25.0128 14.2601C24.8521 14.3042 24.7034 14.384 24.5778 14.4936L24.2279 14.7981C23.3874 15.5312 22.8903 16.7359 23.3022 17.9562C23.9649 19.8864 25.0616 21.6388 26.5079 23.0786C28.5154 25.0862 30.5551 25.8768 31.7488 26.1846C32.7099 26.4316 33.619 26.1005 34.2602 25.5778L34.9146 25.0441C35.0526 24.9316 35.1614 24.7875 35.2318 24.624C35.3022 24.4605 35.3322 24.2824 35.3191 24.1048C35.3061 23.9273 35.2504 23.7555 35.1569 23.604C35.0633 23.4526 34.9346 23.3259 34.7817 23.2348L32.9236 22.1274C32.7399 22.0178 32.5283 21.9637 32.3145 21.9718C32.1007 21.9799 31.8938 22.0497 31.7189 22.1728H31.72Z" fill="#630600"/>
<path d="M69.5822 20.5278H65.7928V24.4109H63.8044V20.5278H60.015V18.7269H63.8044V14.8437H65.7928V18.7269H69.5822V20.5278ZM75.2825 22.6851C75.4076 23.3104 75.6764 23.7856 76.0891 24.1108C76.5018 24.436 77.0584 24.5985 77.7587 24.5985C78.6466 24.5985 79.297 24.2484 79.7097 23.548C80.1224 22.8477 80.3287 21.6533 80.3287 19.965C80.0286 20.3902 79.6034 20.7216 79.0531 20.9592C78.5153 21.1844 77.9275 21.2969 77.2897 21.2969C76.4768 21.2969 75.739 21.1343 75.0761 20.8092C74.4133 20.4715 73.8881 19.9775 73.5004 19.3272C73.1252 18.6644 72.9376 17.864 72.9376 16.926C72.9376 15.5503 73.3378 14.4561 74.1382 13.6432C74.9511 12.8178 76.0641 12.405 77.4773 12.405C79.1782 12.405 80.385 12.9741 81.0979 14.1121C81.8232 15.2377 82.1859 16.9698 82.1859 19.3084C82.1859 20.9217 82.0483 22.2411 81.7732 23.2666C81.5106 24.2921 81.0478 25.0675 80.385 25.5928C79.7222 26.118 78.803 26.3807 77.6274 26.3807C76.2892 26.3807 75.2575 26.0305 74.5321 25.3301C73.8068 24.6298 73.4003 23.7481 73.3128 22.6851H75.2825ZM77.6649 19.496C78.4153 19.496 79.0031 19.2647 79.4283 18.8019C79.866 18.3267 80.0849 17.7014 80.0849 16.926C80.0849 16.0631 79.8535 15.394 79.3908 14.9188C78.9405 14.431 78.3215 14.1872 77.5336 14.1872C76.7457 14.1872 76.1204 14.4373 75.6577 14.9375C75.2075 15.4253 74.9824 16.0693 74.9824 16.8697C74.9824 17.6326 75.2012 18.2642 75.6389 18.7644C76.0891 19.2522 76.7645 19.496 77.6649 19.496ZM84.245 14.6749V12.724H88.1469V26.3994H85.9896V14.6749H84.245ZM98.6216 22.6851C98.7466 23.3104 99.0155 23.7856 99.4282 24.1108C99.8409 24.436 100.397 24.5985 101.098 24.5985C101.986 24.5985 102.636 24.2484 103.049 23.548C103.461 22.8477 103.668 21.6533 103.668 19.965C103.368 20.3902 102.942 20.7216 102.392 20.9592C101.854 21.1844 101.267 21.2969 100.629 21.2969C99.8159 21.2969 99.0781 21.1343 98.4152 20.8092C97.7524 20.4715 97.2271 19.9775 96.8395 19.3272C96.4643 18.6644 96.2767 17.864 96.2767 16.926C96.2767 15.5503 96.6769 14.4561 97.4773 13.6432C98.2902 12.8178 99.4032 12.405 100.816 12.405C102.517 12.405 103.724 12.9741 104.437 14.1121C105.162 15.2377 105.525 16.9698 105.525 19.3084C105.525 20.9217 105.387 22.2411 105.112 23.2666C104.85 24.2921 104.387 25.0675 103.724 25.5928C103.061 26.118 102.142 26.3807 100.966 26.3807C99.6283 26.3807 98.5966 26.0305 97.8712 25.3301C97.1459 24.6298 96.7394 23.7481 96.6519 22.6851H98.6216ZM101.004 19.496C101.754 19.496 102.342 19.2647 102.767 18.8019C103.205 18.3267 103.424 17.7014 103.424 16.926C103.424 16.0631 103.193 15.394 102.73 14.9188C102.28 14.431 101.661 14.1872 100.873 14.1872C100.085 14.1872 99.4595 14.4373 98.9968 14.9375C98.5465 15.4253 98.3214 16.0693 98.3214 16.8697C98.3214 17.6326 98.5403 18.2642 98.978 18.7644C99.4282 19.2522 100.104 19.496 101.004 19.496ZM107.603 23.548V21.9347L113.906 12.8928H116.495V21.6909H118.239V23.548H116.495V26.3994H114.394V23.548H107.603ZM114.487 15.0689L110.06 21.6909H114.487V15.0689ZM119.749 23.548V21.9347L126.052 12.8928H128.641V21.6909H130.385V23.548H128.641V26.3994H126.54V23.548H119.749ZM126.633 15.0689L122.206 21.6909H126.633V15.0689ZM131.876 14.6749V12.724H135.778V26.3994H133.62V14.6749H131.876ZM141.379 22.6851C141.504 23.3104 141.773 23.7856 142.186 24.1108C142.599 24.436 143.155 24.5985 143.856 24.5985C144.744 24.5985 145.394 24.2484 145.807 23.548C146.219 22.8477 146.426 21.6533 146.426 19.965C146.125 20.3902 145.7 20.7216 145.15 20.9592C144.612 21.1844 144.024 21.2969 143.387 21.2969C142.574 21.2969 141.836 21.1343 141.173 20.8092C140.51 20.4715 139.985 19.9775 139.597 19.3272C139.222 18.6644 139.034 17.864 139.034 16.926C139.034 15.5503 139.435 14.4561 140.235 13.6432C141.048 12.8178 142.161 12.405 143.574 12.405C145.275 12.405 146.482 12.9741 147.195 14.1121C147.92 15.2377 148.283 16.9698 148.283 19.3084C148.283 20.9217 148.145 22.2411 147.87 23.2666C147.607 24.2921 147.145 25.0675 146.482 25.5928C145.819 26.118 144.9 26.3807 143.724 26.3807C142.386 26.3807 141.354 26.0305 140.629 25.3301C139.904 24.6298 139.497 23.7481 139.41 22.6851H141.379ZM143.762 19.496C144.512 19.496 145.1 19.2647 145.525 18.8019C145.963 18.3267 146.182 17.7014 146.182 16.926C146.182 16.0631 145.95 15.394 145.488 14.9188C145.037 14.431 144.418 14.1872 143.63 14.1872C142.843 14.1872 142.217 14.4373 141.755 14.9375C141.304 15.4253 141.079 16.0693 141.079 16.8697C141.079 17.6326 141.298 18.2642 141.736 18.7644C142.186 19.2522 142.861 19.496 143.762 19.496ZM156.678 23.4917C157.879 22.4537 158.823 21.6033 159.511 20.9405C160.211 20.2652 160.793 19.5648 161.255 18.8395C161.718 18.1141 161.949 17.3887 161.949 16.6634C161.949 15.913 161.768 15.3252 161.405 14.9C161.055 14.4748 160.499 14.2622 159.736 14.2622C158.998 14.2622 158.423 14.4998 158.01 14.9751C157.61 15.4378 157.397 16.0631 157.372 16.851H155.309C155.346 15.4253 155.771 14.3372 156.584 13.5869C157.41 12.824 158.454 12.4426 159.717 12.4426C161.08 12.4426 162.143 12.8178 162.906 13.5681C163.682 14.3185 164.069 15.319 164.069 16.5696C164.069 17.47 163.838 18.3392 163.375 19.1771C162.925 20.0025 162.381 20.7466 161.743 21.4095C161.118 22.0598 160.317 22.8164 159.342 23.6793L158.498 24.4297H164.444V26.2118H155.327V24.6548L156.678 23.4917ZM167.505 23.4917C168.706 22.4537 169.65 21.6033 170.338 20.9405C171.038 20.2652 171.619 19.5648 172.082 18.8395C172.545 18.1141 172.776 17.3887 172.776 16.6634C172.776 15.913 172.595 15.3252 172.232 14.9C171.882 14.4748 171.326 14.2622 170.563 14.2622C169.825 14.2622 169.25 14.4998 168.837 14.9751C168.437 15.4378 168.224 16.0631 168.199 16.851H166.136C166.173 15.4253 166.598 14.3372 167.411 13.5869C168.237 12.824 169.281 12.4426 170.544 12.4426C171.907 12.4426 172.97 12.8178 173.733 13.5681C174.508 14.3185 174.896 15.319 174.896 16.5696C174.896 17.47 174.665 18.3392 174.202 19.1771C173.752 20.0025 173.208 20.7466 172.57 21.4095C171.945 22.0598 171.144 22.8164 170.169 23.6793L169.325 24.4297H175.271V26.2118H166.154V24.6548L167.505 23.4917ZM177.15 19.3835C177.15 17.2199 177.513 15.5316 178.238 14.3185C178.976 13.0929 180.239 12.4801 182.027 12.4801C183.816 12.4801 185.073 13.0929 185.798 14.3185C186.536 15.5316 186.905 17.2199 186.905 19.3835C186.905 21.572 186.536 23.2854 185.798 24.5235C185.073 25.7491 183.816 26.3619 182.027 26.3619C180.239 26.3619 178.976 25.7491 178.238 24.5235C177.513 23.2854 177.15 21.572 177.15 19.3835ZM184.804 19.3835C184.804 18.3705 184.735 17.5138 184.597 16.8135C184.472 16.1131 184.21 15.5441 183.809 15.1064C183.409 14.6562 182.815 14.431 182.027 14.431C181.239 14.431 180.645 14.6562 180.245 15.1064C179.845 15.5441 179.576 16.1131 179.439 16.8135C179.314 17.5138 179.251 18.3705 179.251 19.3835C179.251 20.434 179.314 21.3157 179.439 22.0285C179.564 22.7414 179.826 23.3167 180.226 23.7544C180.639 24.1921 181.239 24.4109 182.027 24.4109C182.815 24.4109 183.409 24.1921 183.809 23.7544C184.222 23.3167 184.491 22.7414 184.616 22.0285C184.741 21.3157 184.804 20.434 184.804 19.3835ZM190.349 23.4917C191.55 22.4537 192.494 21.6033 193.182 20.9405C193.882 20.2652 194.464 19.5648 194.927 18.8395C195.389 18.1141 195.621 17.3887 195.621 16.6634C195.621 15.913 195.439 15.3252 195.077 14.9C194.727 14.4748 194.17 14.2622 193.407 14.2622C192.669 14.2622 192.094 14.4998 191.681 14.9751C191.281 15.4378 191.068 16.0631 191.043 16.851H188.98C189.017 15.4253 189.443 14.3372 190.256 13.5869C191.081 12.824 192.125 12.4426 193.388 12.4426C194.752 12.4426 195.815 12.8178 196.577 13.5681C197.353 14.3185 197.741 15.319 197.741 16.5696C197.741 17.47 197.509 18.3392 197.046 19.1771C196.596 20.0025 196.052 20.7466 195.414 21.4095C194.789 22.0598 193.989 22.8164 193.013 23.6793L192.169 24.4297H198.116V26.2118H188.999V24.6548L190.349 23.4917ZM201.176 23.4917C202.377 22.4537 203.321 21.6033 204.009 20.9405C204.709 20.2652 205.291 19.5648 205.753 18.8395C206.216 18.1141 206.448 17.3887 206.448 16.6634C206.448 15.913 206.266 15.3252 205.904 14.9C205.553 14.4748 204.997 14.2622 204.234 14.2622C203.496 14.2622 202.921 14.4998 202.508 14.9751C202.108 15.4378 201.895 16.0631 201.87 16.851H199.807C199.844 15.4253 200.27 14.3372 201.082 13.5869C201.908 12.824 202.952 12.4426 204.215 12.4426C205.578 12.4426 206.641 12.8178 207.404 13.5681C208.18 14.3185 208.567 15.319 208.567 16.5696C208.567 17.47 208.336 18.3392 207.873 19.1771C207.423 20.0025 206.879 20.7466 206.241 21.4095C205.616 22.0598 204.816 22.8164 203.84 23.6793L202.996 24.4297H208.943V26.2118H199.826V24.6548L201.176 23.4917Z" fill="#630600"/>
</g>
<rect x="0.650582" y="0.606637" width="235.272" height="38.3" stroke="#630600" stroke-width="0.781633"/>
<defs>
<clipPath id="clip0_413_2559">
<rect x="0.259766" y="0.21582" width="236.053" height="39.0817" fill="white"/>
</clipPath>
</defs>
</svg>
