<svg width="30" height="30" viewBox="0 0 30 30" fill="none" xmlns="http://www.w3.org/2000/svg">
<path fill-rule="evenodd" clip-rule="evenodd" d="M15.4002 22.305C17.1143 21.4311 23.75 17.6354 23.75 11.25C23.75 6.41751 19.8325 2.5 15 2.5C10.1675 2.5 6.25 6.41751 6.25 11.25C6.25 17.6354 12.8857 21.4311 14.5998 22.305C14.8536 22.4344 15.1464 22.4344 15.4002 22.305ZM15 15C17.0711 15 18.75 13.3211 18.75 11.25C18.75 9.17893 17.0711 7.5 15 7.5C12.9289 7.5 11.25 9.17893 11.25 11.25C11.25 13.3211 12.9289 15 15 15Z" fill="#7E869E" fill-opacity="0.25"/>
<path d="M15.4002 22.305L15.1277 21.7705H15.1277L15.4002 22.305ZM14.5998 22.305L14.8723 21.7705H14.8723L14.5998 22.305ZM23.15 11.25C23.15 14.2213 21.6077 16.6223 19.7956 18.4181C17.9846 20.2128 15.9582 21.347 15.1277 21.7705L15.6727 22.8396C16.5563 22.389 18.7048 21.1885 20.6402 19.2705C22.5745 17.3536 24.35 14.6641 24.35 11.25H23.15ZM15 3.1C19.5011 3.1 23.15 6.74888 23.15 11.25H24.35C24.35 6.08614 20.1639 1.9 15 1.9V3.1ZM6.85 11.25C6.85 6.74888 10.4989 3.1 15 3.1V1.9C9.83614 1.9 5.65 6.08614 5.65 11.25H6.85ZM14.8723 21.7705C14.0418 21.347 12.0154 20.2128 10.2044 18.4181C8.39234 16.6223 6.85 14.2213 6.85 11.25H5.65C5.65 14.6641 7.42549 17.3536 9.35975 19.2705C11.2952 21.1885 13.4437 22.389 14.3273 22.8396L14.8723 21.7705ZM15.1277 21.7705C15.0451 21.8126 14.9549 21.8126 14.8723 21.7705L14.3273 22.8396C14.7522 23.0562 15.2478 23.0562 15.6727 22.8396L15.1277 21.7705ZM18.15 11.25C18.15 12.9897 16.7397 14.4 15 14.4V15.6C17.4024 15.6 19.35 13.6524 19.35 11.25H18.15ZM15 8.1C16.7397 8.1 18.15 9.5103 18.15 11.25H19.35C19.35 8.84756 17.4024 6.9 15 6.9V8.1ZM11.85 11.25C11.85 9.5103 13.2603 8.1 15 8.1V6.9C12.5976 6.9 10.65 8.84756 10.65 11.25H11.85ZM15 14.4C13.2603 14.4 11.85 12.9897 11.85 11.25H10.65C10.65 13.6524 12.5976 15.6 15 15.6V14.4Z" fill="#2C2B2B"/>
<path d="M24.7428 21.875C25.7302 22.4451 26.25 23.0917 26.25 23.75C26.25 24.4083 25.7302 25.0549 24.7428 25.625C23.7554 26.1951 22.3352 26.6685 20.625 26.9976C18.9148 27.3267 16.9748 27.5 15 27.5C13.0252 27.5 11.0852 27.3267 9.375 26.9976C7.66478 26.6685 6.24461 26.1951 5.25721 25.625C4.26982 25.0549 3.75 24.4083 3.75 23.75C3.75 23.0917 4.26982 22.4451 5.25721 21.875" stroke="#2C2B2B" stroke-width="1.2" stroke-linecap="round"/>
</svg>
