<svg width="31" height="30" viewBox="0 0 31 30" fill="none" xmlns="http://www.w3.org/2000/svg">
<path d="M8.00049 2.49976C9.59522 2.49932 11.1597 2.93471 12.525 3.75888C13.8902 4.58305 15.0043 5.76466 15.7467 7.17601C16.4968 6.1161 17.4903 5.25173 18.6438 4.65552C19.7973 4.05931 21.077 3.74869 22.3755 3.74976H26.7505V6.87476C26.7505 9.02964 25.8945 11.0963 24.3707 12.62C22.847 14.1437 20.7804 14.9998 18.6255 14.9998H16.7505V16.2498H23.0005V24.9998C23.0005 25.6628 22.7371 26.2987 22.2683 26.7675C21.7994 27.2364 21.1635 27.4998 20.5005 27.4998H10.5005C9.83745 27.4998 9.20156 27.2364 8.73272 26.7675C8.26388 26.2987 8.00049 25.6628 8.00049 24.9998V16.2498H14.2505V13.7498H11.7505C9.42984 13.7498 7.20425 12.8279 5.5633 11.1869C3.92236 9.546 3.00049 7.3204 3.00049 4.99976V2.49976H8.00049ZM20.5005 18.7498H10.5005V24.9998H20.5005V18.7498ZM24.2505 6.24976H22.3755C20.8836 6.24976 19.4529 6.84239 18.398 7.89728C17.3431 8.95217 16.7505 10.3829 16.7505 11.8748V12.4998H18.6255C19.3642 12.4998 20.0956 12.3543 20.7781 12.0716C21.4605 11.7889 22.0806 11.3746 22.603 10.8522C23.1253 10.3299 23.5396 9.70981 23.8223 9.02735C24.105 8.34489 24.2505 7.61344 24.2505 6.87476V6.24976ZM8.00049 4.99976H5.50049C5.50049 6.65736 6.15897 8.24707 7.33107 9.41917C8.50317 10.5913 10.0929 11.2498 11.7505 11.2498H14.2505C14.2505 9.59215 13.592 8.00244 12.4199 6.83034C11.2478 5.65824 9.65809 4.99976 8.00049 4.99976Z" fill="black"/>
</svg>
