<svg width="70" height="70" viewBox="0 0 70 70" fill="none" xmlns="http://www.w3.org/2000/svg">
<path d="M62.2225 25.7054V58.3332H7.77806V15.5554H13.6114V11.6665H7.29195C6.83741 11.6741 6.38882 11.7712 5.9718 11.9522C5.55478 12.1331 5.1775 12.3945 4.86151 12.7213C4.54552 13.0482 4.29701 13.434 4.13018 13.8569C3.96334 14.2798 3.88145 14.7314 3.88917 15.1859V58.7026C3.88145 59.1571 3.96334 59.6088 4.13018 60.0316C4.29701 60.4545 4.54552 60.8404 4.86151 61.1672C5.1775 61.494 5.55478 61.7554 5.9718 61.9364C6.38882 62.1174 6.83741 62.2145 7.29195 62.2221H62.7086C63.1632 62.2145 63.6117 62.1174 64.0288 61.9364C64.4458 61.7554 64.8231 61.494 65.1391 61.1672C65.455 60.8404 65.7035 60.4545 65.8704 60.0316C66.0372 59.6088 66.1191 59.1571 66.1114 58.7026V23.9943C64.9062 24.7527 63.5959 25.3293 62.2225 25.7054Z" fill="black"/>
<path d="M15.5557 27.2222H19.4446V31.1111H15.5557V27.2222Z" fill="black"/>
<path d="M27.2227 27.2222H31.1115V31.1111H27.2227V27.2222Z" fill="black"/>
<path d="M38.8887 27.2222H42.7776V31.1111H38.8887V27.2222Z" fill="black"/>
<path d="M50.5557 27.2222H54.4446V31.1111H50.5557V27.2222Z" fill="black"/>
<path d="M15.5557 36.9443H19.4446V40.8332H15.5557V36.9443Z" fill="black"/>
<path d="M27.2227 36.9443H31.1115V40.8332H27.2227V36.9443Z" fill="black"/>
<path d="M38.8887 36.9443H42.7776V40.8332H38.8887V36.9443Z" fill="black"/>
<path d="M50.5557 36.9443H54.4446V40.8332H50.5557V36.9443Z" fill="black"/>
<path d="M15.5557 46.6665H19.4446V50.5554H15.5557V46.6665Z" fill="black"/>
<path d="M27.2227 46.6665H31.1115V50.5554H27.2227V46.6665Z" fill="black"/>
<path d="M38.8887 46.6665H42.7776V50.5554H38.8887V46.6665Z" fill="black"/>
<path d="M50.5557 46.6665H54.4446V50.5554H50.5557V46.6665Z" fill="black"/>
<path d="M19.4444 19.4442C19.9601 19.4442 20.4547 19.2394 20.8194 18.8747C21.184 18.5101 21.3889 18.0155 21.3889 17.4998V5.83312C21.3889 5.31742 21.184 4.82284 20.8194 4.45819C20.4547 4.09353 19.9601 3.88867 19.4444 3.88867C18.9287 3.88867 18.4342 4.09353 18.0695 4.45819C17.7049 4.82284 17.5 5.31742 17.5 5.83312V17.4998C17.5 18.0155 17.7049 18.5101 18.0695 18.8747C18.4342 19.2394 18.9287 19.4442 19.4444 19.4442Z" fill="black"/>
<path d="M43.7496 11.6665H25.2773V15.5554H44.294C43.9378 14.2896 43.7547 12.9814 43.7496 11.6665Z" fill="black"/>
<path d="M58.3335 21.3888C63.703 21.3888 68.0558 17.036 68.0558 11.6666C68.0558 6.29712 63.703 1.94434 58.3335 1.94434C52.9641 1.94434 48.6113 6.29712 48.6113 11.6666C48.6113 17.036 52.9641 21.3888 58.3335 21.3888Z" fill="black"/>
</svg>
