<svg width="53" height="70" viewBox="0 0 53 70" fill="none" xmlns="http://www.w3.org/2000/svg">
<path d="M49.595 12.1627L49.5951 12.1628C50.1349 12.6976 50.1349 13.5524 49.5951 14.0872L36.5346 27.0245L35.6458 27.9048V29.1558V65.625C35.6458 66.3576 35.0384 67 34.2291 67H32.0208C31.2115 67 30.6041 66.3576 30.6041 65.625V50.3125V47.3125H27.6041H25.3958H22.3958V50.3125V65.625C22.3958 66.3576 21.7884 67 20.9791 67H18.7708C17.9615 67 17.3541 66.3576 17.3541 65.625V29.1558V27.9048L16.4654 27.0245L3.40488 14.0873C3.40487 14.0873 3.40487 14.0873 3.40487 14.0873C2.86504 13.5526 2.86504 12.6976 3.40488 12.1628L3.40496 12.1627C3.96042 11.6125 4.87284 11.6125 5.4283 12.1627L5.42839 12.1628L17.3847 24.0063L18.2616 24.875H19.496H33.5038H34.7381L35.6151 24.0064L47.5715 12.1628L47.5716 12.1627C48.1271 11.6125 49.0395 11.6125 49.595 12.1627ZM19.5625 9.84375C19.5625 6.09073 22.6415 3 26.5 3C30.3584 3 33.4375 6.09073 33.4375 9.84375C33.4375 13.5967 30.3584 16.6875 26.5 16.6875C22.6416 16.6875 19.5625 13.5967 19.5625 9.84375Z" stroke="black" stroke-width="6"/>
</svg>
