<svg width="79" height="70" viewBox="0 0 79 70" fill="none" xmlns="http://www.w3.org/2000/svg">
<path d="M40.0321 0.000191743C39.5977 0.000350734 39.1687 0.0965543 38.7764 0.281813C38.3841 0.467071 38.0383 0.736731 37.7641 1.0712L37.5373 1.23806C33.2853 -0.0461123 28.7623 -0.163938 24.4483 0.897084C20.1343 1.95811 16.1903 4.15839 13.0348 7.26441C10.2379 10.0129 8.1581 13.3963 6.97528 17.1218C5.79245 20.8473 5.54226 24.8027 6.24634 28.6457L6.18769 28.7039L2.44153 32.3943C1.66795 33.1548 1.05389 34.0599 0.634828 35.0573C0.215764 36.0547 0 37.1246 0 38.2052C0 39.2859 0.215764 40.3558 0.634828 41.3532C1.05389 42.3506 1.66795 43.2557 2.44153 44.0162C3.35138 44.913 4.45708 45.5898 5.67295 45.9942C6.88882 46.3986 8.1822 46.5198 9.45286 46.3484C9.906 47.9845 10.8558 49.4425 12.1732 50.5242C13.4906 51.6058 15.1117 52.2587 16.8161 52.3941C16.9913 54.3839 17.8867 56.2434 19.3367 57.6288C20.7866 59.0141 22.6931 59.8316 24.7034 59.93C24.8051 61.8974 25.6145 63.8298 27.1357 65.3277C30.1076 68.2613 34.7687 68.5136 38.0339 66.0921L39.5472 67.5822C41.1224 69.1311 43.2501 70 45.4676 70C47.685 70 49.8128 69.1311 51.3879 67.5822C52.8348 66.1542 53.6442 64.3304 53.8123 62.4678C55.7637 62.3037 57.5942 61.462 58.9818 60.0907C60.3694 58.7194 61.2251 56.9064 61.3985 54.9708C63.1174 54.814 64.7446 54.1307 66.0547 53.0155C67.3649 51.9004 68.2931 50.4085 68.7109 48.7465C69.9626 48.8953 71.2319 48.7611 72.4238 48.3538C73.6157 47.9466 74.6992 47.2769 75.5932 46.3949C76.3662 45.6345 76.9798 44.7296 77.3985 43.7326C77.8172 42.7355 78.0328 41.6661 78.0328 40.5859C78.0328 39.5057 77.8172 38.4363 77.3985 37.4392C76.9798 36.4422 76.3662 35.5373 75.5932 34.7769L72.3359 31.56L73.0085 28.9756C74.4636 23.3515 73.7306 17.3899 70.9555 12.278C68.9364 8.56682 65.9425 5.46733 62.2915 3.30842C58.6406 1.1495 54.4687 0.0116823 50.2187 0.0157134H43.9347C43.6664 0.00408185 43.3978 -0.00109341 43.1292 0.000191743H40.036H40.0321ZM51.47 19.1891L65.0156 32.5456L65.0274 32.5611L65.0821 32.6116L71.4365 38.8785C71.6635 39.1021 71.8437 39.3681 71.9666 39.6612C72.0895 39.9542 72.1528 40.2685 72.1528 40.5859C72.1528 40.9033 72.0895 41.2176 71.9666 41.5106C71.8437 41.8037 71.6635 42.0697 71.4365 42.2933C70.9753 42.7459 70.3528 42.9998 69.7042 42.9998C69.0555 42.9998 68.4331 42.7459 67.9719 42.2933L61.6175 36.0264C61.0639 35.4823 60.3163 35.1771 59.5372 35.1771C58.758 35.1771 58.0104 35.4823 57.4568 36.0264L57.3943 36.0923C57.1213 36.3608 56.9046 36.6802 56.7567 37.0322C56.6088 37.3842 56.5327 37.7618 56.5327 38.1432C56.5327 38.5245 56.6088 38.9021 56.7567 39.2541C56.9046 39.6061 57.1213 39.9255 57.3943 40.194L62.3448 45.0795C62.5718 45.3031 62.752 45.5691 62.8749 45.8621C62.9979 46.1552 63.0612 46.4695 63.0612 46.7869C63.0612 47.1043 62.9979 47.4186 62.8749 47.7116C62.752 48.0047 62.5718 48.2706 62.3448 48.4943C61.9272 48.9067 61.3746 49.1569 60.787 49.1996C60.1994 49.2424 59.6159 49.0747 59.1422 48.7271C58.5734 48.3045 57.8702 48.0994 57.1614 48.1493C56.4526 48.1992 55.7857 48.5007 55.2827 48.9987C54.7817 49.4957 54.4806 50.157 54.436 50.8586C54.3914 51.5602 54.6062 52.2538 55.0402 52.8093C55.4009 53.274 55.5782 53.8535 55.5386 54.4388C55.499 55.024 55.2452 55.5748 54.8251 55.9874C54.4002 56.4054 53.8364 56.6556 53.2392 56.6913C52.6419 56.727 52.052 56.5458 51.5795 56.1815C51.0142 55.7439 50.3079 55.5251 49.5922 55.5657C48.8764 55.6064 48.1999 55.9039 47.6887 56.4026C47.1792 56.9001 46.872 57.5663 46.8259 58.2742C46.7797 58.982 46.9978 59.6819 47.4384 60.2404C47.8078 60.7123 47.9904 61.302 47.9515 61.8983C47.9125 62.4946 47.6549 63.0561 47.2272 63.4767C46.7587 63.9364 46.1264 64.1943 45.4676 64.1943C44.8087 64.1943 44.1764 63.9364 43.7079 63.4767L42.2532 62.0448L42.6638 61.6374C43.4368 60.8769 44.0504 59.972 44.4691 58.975C44.8878 57.978 45.1034 56.9085 45.1034 55.8283C45.1034 54.7482 44.8878 53.6787 44.4691 52.6817C44.0504 51.6846 43.4368 50.7798 42.6638 50.0193C41.2014 48.5745 39.2505 47.72 37.1893 47.6212C37.0777 45.6275 36.2423 43.7414 34.8376 42.3118C33.4329 40.8822 31.5539 40.0058 29.5484 39.8447C29.3882 37.9012 28.5324 36.0787 27.1357 34.707C26.2258 33.8103 25.1201 33.1335 23.9042 32.729C22.6884 32.3246 21.395 32.2034 20.1243 32.3749C19.6279 30.5888 18.542 29.0196 17.0404 27.9186C15.5388 26.8175 13.7084 26.2483 11.8421 26.3019C11.5452 23.5725 11.8723 20.8118 12.7991 18.2253C13.726 15.6387 15.2287 13.2928 17.1954 11.3622C19.0282 9.5554 21.2194 8.14638 23.63 7.22452C26.0406 6.30267 28.6179 5.88811 31.1986 6.00714L25.3447 10.4037C24.3934 11.1181 23.5939 12.0122 22.9921 13.0344C22.3904 14.0567 21.9983 15.1869 21.8383 16.3601C21.6784 17.5333 21.7539 18.7263 22.0604 19.8704C22.3668 21.0146 22.8983 22.0873 23.6241 23.0268C25.09 24.9231 27.2521 26.1672 29.6388 26.4878C32.0254 26.8084 34.443 26.1794 36.3642 24.7381L43.7509 19.1852H51.47V19.1891ZM28.8836 15.0486L41.1583 5.82088H43.1292C43.3731 5.81912 43.6169 5.82559 43.8604 5.84028H50.2187C53.4089 5.83602 56.5409 6.68868 59.2823 8.30782C62.0237 9.92697 64.2724 12.2522 65.7899 15.037C67.7255 18.607 68.3316 22.7125 67.5261 26.6589L54.9698 14.257C54.6965 13.9762 54.3691 13.7528 54.007 13.6001C53.6449 13.4474 53.2555 13.3686 52.8621 13.3684H42.7694C42.1299 13.3681 41.5079 13.5752 40.998 13.9582L32.8253 20.101C32.1399 20.6142 31.278 20.8382 30.427 20.7241C29.5761 20.61 28.805 20.1671 28.2814 19.4917C28.0257 19.1611 27.8385 18.7835 27.7305 18.3807C27.6225 17.978 27.5959 17.558 27.6523 17.1449C27.7086 16.7319 27.8468 16.3341 28.0588 15.9743C28.2708 15.6145 28.5524 15.2999 28.8875 15.0486H28.8836ZM15.7681 45.9177C15.5411 45.694 15.361 45.428 15.238 45.135C15.1151 44.842 15.0518 44.5277 15.0518 44.2103C15.0518 43.8928 15.1151 43.5785 15.238 43.2855C15.361 42.9925 15.5411 42.7265 15.7681 42.5028L19.5104 38.8087C19.9716 38.356 20.5941 38.1022 21.2427 38.1022C21.8913 38.1022 22.5138 38.356 22.975 38.8087C23.4281 39.255 23.6856 39.8606 23.6914 40.4942C23.6973 41.1277 23.4511 41.7379 23.0063 42.1924L22.975 42.2235L19.2328 45.9138L19.1976 45.9487C18.7339 46.3867 18.1166 46.6284 17.4765 46.6226C16.8364 46.6168 16.2237 46.364 15.7681 45.9177ZM13.8481 32.8444C14.2914 33.2986 14.536 33.9081 14.5287 34.5404C14.5214 35.1726 14.2627 35.7764 13.809 36.2204L10.0668 39.9146C9.6056 40.3672 8.98313 40.6211 8.33449 40.6211C7.68585 40.6211 7.06338 40.3672 6.60219 39.9146C6.37519 39.691 6.19502 39.425 6.07207 39.1319C5.94913 38.8389 5.88583 38.5246 5.88583 38.2072C5.88583 37.8898 5.94913 37.5755 6.07207 37.2824C6.19502 36.9894 6.37519 36.7234 6.60219 36.4998L10.3483 32.8095C10.8095 32.3568 11.432 32.103 12.0806 32.103C12.7293 32.103 13.3518 32.3568 13.813 32.8095L13.8481 32.8444ZM34.7609 61.2261C34.2997 61.6787 33.6773 61.9325 33.0286 61.9325C32.38 61.9325 31.7575 61.6787 31.2963 61.2261C31.0693 61.0024 30.8891 60.7364 30.7662 60.4434C30.6433 60.1504 30.58 59.8361 30.58 59.5187C30.58 59.2012 30.6433 58.887 30.7662 58.5939C30.8891 58.3009 31.0693 58.0349 31.2963 57.8113L35.0386 54.1209C35.4998 53.6683 36.1222 53.4145 36.7709 53.4145C37.4195 53.4145 38.042 53.6683 38.5032 54.1209C38.7302 54.3446 38.9103 54.6106 39.0333 54.9036C39.1562 55.1966 39.2195 55.5109 39.2195 55.8283C39.2195 56.1458 39.1562 56.46 39.0333 56.7531C38.9103 57.0461 38.7302 57.3121 38.5032 57.5357L34.7609 61.2261ZM26.858 53.4341C26.3973 53.8876 25.7747 54.1422 25.1257 54.1422C24.4768 54.1422 23.8541 53.8876 23.3934 53.4341C22.9398 52.9883 22.6816 52.3829 22.675 51.7494C22.6684 51.1159 22.9139 50.5053 23.3582 50.0503L23.3934 50.0193L27.1357 46.329L27.1669 46.2941C27.6313 45.8554 28.2497 45.6137 28.8907 45.6202C29.5318 45.6267 30.1451 45.881 30.6003 46.329C30.8273 46.5526 31.0074 46.8186 31.1304 47.1116C31.2533 47.4047 31.3166 47.719 31.3166 48.0364C31.3166 48.3538 31.2533 48.6681 31.1304 48.9611C31.0074 49.2542 30.8273 49.5202 30.6003 49.7438L26.858 53.4341Z" fill="black"/>
</svg>
