<svg width="70" height="70" viewBox="0 0 70 70" fill="none" xmlns="http://www.w3.org/2000/svg">
<path d="M17.4997 5.8335C21.2207 5.83247 24.8713 6.84839 28.0568 8.77145C31.2424 10.6945 33.8419 13.4516 35.5743 16.7447C37.3244 14.2716 39.6426 12.2548 42.3341 10.8636C45.0255 9.47245 48.0116 8.74767 51.0414 8.75016H61.2497V16.0418C61.2497 21.0699 59.2523 25.892 55.6969 29.4474C52.1415 33.0028 47.3194 35.0002 42.2913 35.0002H37.9163V37.9168H52.4997V58.3335C52.4997 59.8806 51.8851 61.3643 50.7911 62.4583C49.6972 63.5522 48.2134 64.1668 46.6663 64.1668H23.333C21.7859 64.1668 20.3022 63.5522 19.2082 62.4583C18.1143 61.3643 17.4997 59.8806 17.4997 58.3335V37.9168H32.083V32.0835H26.2497C20.8348 32.0835 15.6418 29.9325 11.8129 26.1036C7.98404 22.2747 5.83301 17.0817 5.83301 11.6668V5.8335H17.4997ZM46.6663 43.7502H23.333V58.3335H46.6663V43.7502ZM55.4164 14.5835H51.0414C47.5604 14.5835 44.222 15.9663 41.7606 18.4277C39.2992 20.8891 37.9163 24.2275 37.9163 27.7085V29.1668H42.2913C44.0149 29.1668 45.7217 28.8273 47.3141 28.1677C48.9065 27.5082 50.3534 26.5414 51.5721 25.3226C52.7909 24.1038 53.7577 22.6569 54.4173 21.0646C55.0769 19.4722 55.4164 17.7654 55.4164 16.0418V14.5835ZM17.4997 11.6668H11.6663C11.6663 15.5346 13.2028 19.2439 15.9377 21.9788C18.6726 24.7137 22.3819 26.2502 26.2497 26.2502H32.083C32.083 22.3824 30.5466 18.6731 27.8117 15.9382C25.0767 13.2033 21.3674 11.6668 17.4997 11.6668Z" fill="black"/>
</svg>
