<?xml version="1.0" standalone="no"?>
<!DOCTYPE svg PUBLIC "-//W3C//DTD SVG 20010904//EN"
 "http://www.w3.org/TR/2001/REC-SVG-20010904/DTD/svg10.dtd">
<svg version="1.0" xmlns="http://www.w3.org/2000/svg"
 width="512.000000pt" height="512.000000pt" viewBox="0 0 512.000000 512.000000"
 preserveAspectRatio="xMidYMid meet">

<g transform="translate(0.000000,512.000000) scale(0.100000,-0.100000)"
fill="#000000" stroke="none">
<path d="M1241 4834 c-77 -20 -145 -60 -205 -119 -95 -94 -136 -206 -136 -372
l0 -93 -450 0 -450 0 0 -450 0 -450 83 0 c249 -1 400 -109 486 -349 37 -104
37 -118 -4 -231 -48 -130 -114 -214 -216 -273 -70 -41 -143 -57 -251 -57 l-98
0 0 -450 0 -450 450 0 450 0 0 90 c0 162 35 261 127 360 133 145 353 187 524
101 174 -87 259 -233 259 -447 l0 -104 450 0 450 0 0 450 0 450 99 0 c160 0
261 41 359 144 78 82 115 168 120 279 6 110 -15 194 -68 275 -91 142 -234 212
-431 212 l-79 0 0 450 0 450 -449 0 -449 0 -4 128 c-3 122 -5 130 -40 205 -97
203 -317 308 -527 251z"/>
<path d="M3102 4017 l-93 -93 3 -148 3 -148 55 -17 c111 -35 200 -91 295 -186
103 -103 144 -168 188 -292 40 -114 49 -278 22 -400 -35 -159 -131 -318 -254
-420 -67 -55 -218 -136 -278 -148 l-33 -7 0 -459 0 -459 -273 0 -273 0 -57
-58 -57 -57 425 -425 425 -425 320 320 319 319 75 -72 c158 -154 346 -190 531
-104 169 80 263 242 253 440 -4 79 -9 99 -40 164 -22 43 -64 103 -104 146
l-67 74 316 316 317 317 -317 317 -316 316 72 79 c91 98 127 161 148 258 51
235 -104 480 -338 534 -65 15 -168 13 -230 -5 -80 -23 -135 -59 -222 -143
l-78 -75 -317 317 c-174 174 -319 317 -322 317 -3 0 -47 -42 -98 -93z"/>
</g>
</svg>
