<svg width="403" height="179" viewBox="0 0 403 179" fill="none" xmlns="http://www.w3.org/2000/svg">
<path d="M204.475 25.6419C207.637 27.6293 208.438 31.2343 210.086 34.3937C210.548 34.0256 215.374 28.3888 218.541 25.8556C219.103 25.4056 219.985 24.9638 220.659 24.6943C221.87 24.2099 223.198 23.5914 224.468 23.3193C226.498 22.8844 228.266 22.6875 230.359 22.6875C233.913 22.6875 237.235 25.7191 237.856 29.1352C238.087 30.4037 238.669 31.6437 238.98 32.8886C239.163 33.6198 239.338 34.4003 239.352 35.1555C239.368 36.0246 239.668 36.855 239.686 37.7012C239.721 39.2416 239.686 40.7869 239.686 42.3279C239.686 43.431 239.196 44.7191 238.85 45.7562C238.555 46.6423 238.264 47.4205 237.921 48.2925C237.622 49.0547 237.274 50.1162 236.806 50.7824C236.285 51.5246 235.726 52.3936 235.301 53.198C234.803 54.1407 234.054 55.0774 233.294 55.8365C232.586 56.5447 231.897 57.3964 231.083 57.9733C228.966 59.475 227.219 61.7101 225.49 63.6313C224.716 64.4917 223.637 65.0534 222.787 65.8332C221.724 66.8076 220.628 67.7599 219.526 68.6855C218.129 69.8576 216.838 71.1493 215.363 72.2252C214.737 72.6823 213.825 73.3275 213.097 73.563C212.505 73.7544 212.101 74.5188 211.759 74.9938C211.495 75.3601 210.981 75.6908 210.588 75.8671C209.812 75.3497 209.196 74.535 208.451 73.9254C206.915 72.6685 205.38 71.2701 203.639 70.3206C201.985 69.4187 200.449 68.0703 198.836 67.0689C198.175 66.6592 197.519 66.1963 196.875 65.7589C196.026 65.1819 195.376 64.3611 194.515 63.8079C193.749 63.3151 193.041 62.6683 192.397 62.0241C189.511 59.1376 187.349 55.955 185.15 52.5197C184.378 51.313 183.667 50.0832 182.921 48.8592C182.355 47.9319 182.161 46.7942 181.824 45.7654C181.41 44.4992 181.657 42.9053 181.657 41.5847C181.657 40.0093 182.159 38.4499 182.159 36.8929C182.159 35.9905 182.487 35.1848 182.698 34.3194C182.803 33.8893 182.788 33.372 183.097 33.028C183.702 32.3554 183.8 31.225 184.342 30.4452C184.902 29.6404 185.413 28.8079 185.968 28.0017C186.361 27.4312 186.486 26.8833 187.018 26.4316C187.928 25.6583 188.728 25.203 189.814 24.6943C190.866 24.2015 191.352 23.6909 192.564 23.6909H195.37C197.343 23.6909 199.116 23.6613 201.019 24.2669C202.256 24.6605 203.341 24.9294 204.475 25.6419Z" fill="#FC6E47"/>
<path d="M202.559 45.2642C203.9 45.5324 205.312 46.3148 206.563 46.8622C207.207 47.1439 207.815 47.0395 208.495 47.1873C209.12 47.3231 209.818 47.5333 210.446 47.5961C211.792 47.7306 213.533 47.7852 214.804 47.2709C216.003 46.7855 217.043 45.9761 218.111 45.2642" stroke="#A94B31" stroke-width="2.3449" stroke-linecap="round"/>
<path d="M221.288 41.2503C220.367 41.0998 220.118 40.8777 220.118 41.817C220.118 42.0846 220.018 42.4209 220.369 42.4209C220.751 42.4209 220.741 42.7948 221.13 42.7461C221.675 42.678 221.623 42.3583 221.623 41.9192C221.623 40.3194 219.783 40.5159 219.783 42.0864" stroke="#A94B31" stroke-width="2.3449" stroke-linecap="round"/>
<path d="M199.716 41.752C198.761 41.7758 198.713 42.1079 198.713 42.9597C198.713 43.5185 198.815 43.7587 199.382 43.7587C200.417 43.7587 200.051 42.7898 200.051 41.9192" stroke="#A94B31" stroke-width="2.3449" stroke-linecap="round"/>
<circle cx="296.982" cy="39.6066" r="32.4625" fill="#4565DB"/>
<path d="M277.17 16.1672C277.127 15.3942 277.134 15.5281 277.423 14.814C277.578 14.3498 278.145 14.0391 278.528 13.752C279.336 13.1456 280.173 12.713 281.069 12.2495L281.107 12.2296C281.962 11.7872 282.735 11.1792 283.654 10.8576C284.526 10.5523 285.354 10.1048 286.215 9.74867C287.013 9.41822 287.915 9.27798 288.738 8.99687C289.22 8.83238 289.708 8.53064 290.218 8.47061C291.715 8.29451 293.151 7.96314 294.663 7.96314C295.22 7.96314 298.499 7.73953 298.568 8.04772C298.641 8.37494 298.282 8.7287 298.145 8.98277C297.66 9.88257 297.259 10.7089 296.449 11.3838C295.679 12.0254 294.837 12.2268 293.883 12.4035C292.689 12.6246 291.873 12.6683 291.397 13.9306C291.189 14.4825 291.21 15.2065 291.21 15.7866C291.21 16.7132 291.05 17.5649 290.871 18.4696C290.749 19.0873 290.428 19.7016 289.969 20.1424C289.536 20.5585 288.88 20.3773 288.353 20.2927C287.669 20.1832 286.341 20.2771 285.881 19.6208C285.543 19.1375 285.543 18.5065 285.543 17.9444V17.9433C285.543 17.2761 285.508 16.8396 285.04 16.3129C284.686 15.9143 284.441 16.1547 284.067 16.3364C283.626 16.5511 283.139 16.6399 282.677 16.7968C282.156 16.9734 281.666 17.2249 281.14 17.3842C280.327 17.6302 279.452 17.6483 278.607 17.605C278.046 17.5762 277.2 16.7091 277.17 16.1672Z" fill="#59D89E" stroke="#59D89E" stroke-width="2.3449" stroke-linecap="round"/>
<path d="M305.621 11.1908C306.085 10.5289 306.018 9.23145 306.18 9.23145C307.266 9.62613 309.752 10.5625 310.757 11.1298C311.488 11.5426 312.249 11.9084 313.012 12.2575C313.96 12.6908 314.855 13.3653 315.719 13.949C316.402 14.4104 317.056 14.795 317.702 15.3023C318.214 15.7046 318.749 16.1546 319.281 16.5239C320.605 17.4433 321.24 19.1993 322.33 20.3675C322.868 20.9436 323.554 21.3384 323.947 22.0497C324.258 22.6146 324.449 23.2101 324.449 23.8587V25.7946C324.449 26.1561 324.096 26.1965 323.787 26.1376C322.548 25.9018 320.736 24.3443 319.92 25.9779C319.698 26.4211 319.459 27.162 318.891 27.162C318.344 27.162 317.807 27.0675 317.26 27.0774C316.692 27.0877 316.574 27.4678 316.584 27.9702C316.591 28.351 316.825 28.4201 317.138 28.5716C319.149 29.546 320.214 31.8009 320.831 33.853C321.287 35.3705 321.519 36.8351 321.489 38.4202C321.467 39.5925 321.006 40.8237 320.775 41.9725C320.614 42.7712 320.424 43.579 320.206 44.3642C319.922 45.3904 319.31 46.3507 318.754 47.2445C317.784 48.8047 316.7 50.2668 315.799 51.8634C315.028 53.2287 314.625 54.7286 313.929 56.1205C313.599 56.7808 312.711 55.6479 312.498 55.3769L312.496 55.3734C311.434 54.0193 310.663 52.1227 310.663 50.3974C310.663 48.6092 310.77 46.7776 310.564 44.9985C310.437 43.8979 309.835 42.8557 309.451 41.8315C309.318 41.4768 309.107 41.3943 308.761 41.2586L308.737 41.2489C307.739 40.8571 306.671 40.6749 305.659 40.3232C305.076 40.1207 304.546 39.8378 303.991 39.5761C303.031 39.1234 301.995 38.8131 300.979 38.5142C300.332 38.324 299.591 38.222 298.982 37.9222C298.289 37.5813 298.315 36.6347 298.315 36.0051C298.315 35.092 298.37 34.2137 298.719 33.355C299.141 32.3136 300.468 31.7084 301.341 31.1183C302.441 30.3748 303.593 29.7133 304.799 29.1542C306.087 28.5572 307.75 28.3073 308.849 27.3781C309.208 27.0748 309.873 26.095 309.272 25.6584C309.002 25.4619 308.222 25.8562 307.961 25.8792C307.207 25.9457 306.904 25.8385 306.354 25.3435C305.928 24.96 305.859 24.9321 305.269 25.0099C304.739 25.0799 304.296 25.2267 303.812 25.4516C303.294 25.6925 302.708 25.8204 302.219 26.1188C301.522 26.545 300.697 27.21 300.222 27.8809C299.929 28.2952 299.614 28.6533 299.245 29.0039C298.944 29.2894 298.587 29.7968 298.207 29.9765C297.277 30.4153 296.1 30.0925 295.364 29.4832C294.514 28.7797 294.213 28.1124 294.274 27.0304C294.306 26.4479 294.31 25.7159 294.612 25.1932C294.863 24.7583 295.438 24.6007 295.843 24.3521C296.826 23.749 297.311 23.098 297.3 21.9557C297.291 21.0415 296.458 21.749 295.909 21.749C295.152 21.749 294.49 21.6066 293.748 21.4952C293.099 21.398 292.986 20.6933 292.986 20.1749C292.986 19.0647 293.322 18.1444 294.175 17.3979C294.622 17.007 295.468 16.7569 296.036 16.6367C296.866 16.4611 297.697 16.2848 298.521 16.0823C299.606 15.8158 300.552 15.3682 301.538 14.8512C302.262 14.4717 303.039 14.1351 303.685 13.6295C304.496 12.9953 305.04 12.0219 305.621 11.1908Z" fill="#59D89E" stroke="#59D89E" stroke-width="2.3449" stroke-linecap="round"/>
<path d="M307.279 9.31672L306.434 9.06299" stroke="#59D89E" stroke-width="2.3449" stroke-linecap="round"/>
<path d="M323.603 44.8385C324.082 44.8295 324.562 44.8385 325.041 44.8385C325.221 44.8385 324.948 47.741 324.496 49.0157L324.489 49.0345C324.172 49.927 323.787 51.0127 322.654 51.0127C321.193 51.0127 321.396 48.7797 321.578 47.841C321.736 47.0254 322.079 46.1374 322.625 45.4963C322.896 45.1793 323.163 44.8468 323.603 44.8385Z" fill="#59D89E" stroke="#59D89E" stroke-width="2.3449" stroke-linecap="round"/>
<path d="M316.244 60.0721C317.748 59.9518 319.304 60.0627 320.811 60.0627C320.428 60.6373 319.592 61.667 319.101 62.1584C318.291 62.9688 317.511 63.8312 316.648 64.5829C315.54 65.5497 314.367 66.4634 313.059 67.1297C311.929 67.705 310.928 68.4132 309.779 68.9434C308.453 69.5552 307.128 70.085 305.728 70.5081C304.049 71.0157 302.314 71.154 300.579 71.4432C299.428 71.6349 298.429 71.8191 297.257 71.8191C296.583 71.8191 295.718 71.9704 295.081 71.7157C294.924 71.653 294.423 71.4755 294.357 71.2928C293.712 69.4987 296.719 68.0703 297.947 67.6559C299.32 67.1929 300.678 66.7659 302.139 66.7444C303.976 66.7174 304.993 65.36 305.851 63.9063C306.771 62.3468 307.615 61.5006 309.506 61.5006C310.611 61.5006 311.58 61.4662 312.636 61.0824C313.138 60.8996 313.683 60.7653 314.196 60.6078C314.838 60.4107 315.573 60.1258 316.244 60.0721Z" fill="#59D89E" stroke="#59D89E" stroke-width="2.3449" stroke-linecap="round"/>
<path d="M280.666 23.4877C277.606 22.362 274.239 21.9922 271.334 20.4805C271.158 20.5391 270.76 21.4728 270.657 21.6364C270.366 22.0996 270.095 22.5997 269.816 23.0695C269.356 23.846 269.038 24.7369 268.609 25.5363C268.195 26.3062 267.871 27.1136 267.533 27.9186C267.131 28.8713 266.776 29.8685 266.471 30.8554C266.115 32.0069 265.652 33.2327 265.517 34.4358C265.458 34.9631 265.277 35.4499 265.207 35.9723C265.129 36.5491 265.16 37.1398 265.16 37.7203C265.16 38.7957 265.076 39.9119 265.244 40.9765C265.437 42.1958 265.538 43.4198 265.836 44.6228C266.178 45.9997 266.769 47.2127 267.401 48.4758C267.678 49.0303 267.706 49.6302 267.951 50.1955C268.234 50.85 268.492 51.516 268.778 52.169C269.356 53.4901 270.058 54.7748 270.568 56.1254C271.222 57.8596 272.833 58.7903 273.871 60.2697C275.125 62.0558 276.734 63.5183 278.269 65.053C279.364 66.0264 281.074 66.6499 282.244 67.5011C283.223 68.2128 286.307 68.4206 287.488 68.4361C287.924 68.3925 288.589 68.3383 288.898 67.9851C289.434 67.3705 289.469 66.6502 289.429 65.8753C289.398 65.2741 289.058 64.6498 288.926 64.0569C288.755 63.2877 288.691 62.4482 288.466 61.6981C288.285 61.0949 287.958 60.54 287.761 59.9408C287.535 59.258 287.484 58.5688 287.488 57.8545C287.494 56.751 287.742 55.6746 287.742 54.5748C287.742 53.8939 287.739 53.2447 287.61 52.5731C287.49 51.9438 287.249 51.772 286.715 51.3919L286.685 51.3702C285.502 50.5279 284.342 49.5292 282.977 48.9973C282.13 48.6672 281.31 48.6394 280.412 48.6449C278.595 48.656 276.832 48.8166 275.018 48.5791C274.032 48.4501 272.822 48.5007 272.302 47.4702C272.135 47.139 271.914 46.3137 272.184 45.976C272.679 45.3573 273.367 44.8298 274.158 44.6228C274.793 44.4564 275.408 44.3929 276.061 44.4207C277.035 44.4622 277.931 44.8061 278.889 44.9047C279.912 45.0098 281.064 44.9772 282.075 44.8201C282.937 44.6862 283.984 44.5898 284.66 43.9837C286.142 42.6548 285.881 40.9399 285.881 39.144C285.881 37.5702 284.51 36.372 284.18 34.8493C283.994 33.9883 284.004 32.8667 284.359 32.0488C284.713 31.2324 284.866 30.565 284.866 29.6666C284.866 28.8122 284.653 28.046 284.274 27.2749C283.958 26.6312 283.764 25.9694 283.471 25.3202C282.964 24.2001 281.736 23.8814 280.666 23.4877Z" fill="#59D89E" stroke="#59D89E" stroke-width="2.3449" stroke-linecap="round"/>
<path d="M90.7987 35.0933C79.3766 35.5793 67.9753 36.5653 56.5449 36.9614C57.2202 44.0521 56.7801 51.3495 56.7801 58.4648V71.79C56.7801 73.6609 57.136 75.8694 56.5449 77.6427C61.138 78.3108 66.0067 77.8779 70.641 77.8779H89.4531C100.477 77.8779 111.513 77.9196 122.531 77.6296C125.863 77.542 129.771 77.8849 132.995 77.0418C135.759 76.3189 138.377 76.2318 141.226 76.2318C145.217 76.2318 149.152 75.5429 153.036 74.638C155.659 74.0268 158.331 74.1906 160.926 73.2924C162.417 72.7764 163.771 72.03 165.277 71.5418C169.431 70.1944 173.719 69.1552 177.779 67.5312C180.304 66.5209 182.321 64.3173 184.755 63.2462C186.198 62.6113 186.723 61.2782 187.76 60.2415C187.932 59.1778 188.247 58.2227 188.066 57.2005C187.96 56.6014 187.562 56.1786 187.412 55.5811C187.282 55.0598 186.822 54.3474 186.378 53.9846C186.028 53.6978 185.406 53.7821 184.995 53.7793C184.158 53.7736 183.322 53.7793 182.486 53.7793C181.73 53.7793 181.017 53.968 180.281 54.129C178.681 54.4789 177.202 54.6004 175.575 54.6004C174.186 54.6004 172.447 54.8511 171.127 54.4027C169.758 53.9376 168.576 53.1945 167.402 52.3804L167.383 52.3672L167.383 52.3671C165.972 51.3886 164.634 50.4605 163.844 48.8527C162.843 46.8143 162.369 44.7299 162.369 42.4665C162.369 38.9438 163.783 36.071 166.056 33.4572C166.941 32.44 167.866 31.6779 168.983 30.9331C169.473 30.6066 169.882 30.5009 170.443 30.3173C171.051 30.1187 171.64 30.2018 172.237 30.036C173.168 29.7774 174.817 30.0879 175.75 30.3021C176.284 30.4247 176.874 30.7668 177.377 31.0016C178.083 31.3311 178.917 31.2991 179.612 31.6098C180.36 31.9443 181.175 32.008 181.946 32.3016C182.589 32.5464 183.235 32.8072 183.885 33.0087C184.591 33.228 185.442 33.1151 186.181 33.1151C186.769 33.0087 187.1 33.39 187.967 32.0888C188.41 31.4243 188.644 31.1331 188.644 30.3021V27.702C188.644 26.7152 188.303 25.9526 188.097 25.0258C187.301 21.4439 183.354 20.4903 180.387 19.3542C178.145 18.4955 175.746 18.5042 173.378 18.6395C169.527 18.8596 165.202 18.3844 161.685 20.2513C162.41 19.1637 162.967 17.9799 163.677 16.8833C164.604 15.45 165.38 14.0143 165.76 12.3445C166.189 10.4565 166.087 7.9978 165.912 6.11028C165.797 4.87212 164.32 3.44798 163.327 2.84111C162.877 2.56609 162.394 1.9422 161.822 1.91358C161.272 1.8861 160.715 1.91358 160.164 1.91358C158.41 1.91358 156.5 2.00431 154.873 2.73468C153.555 3.32615 152.113 3.8017 150.935 4.65056C149.746 5.50616 148.651 6.37489 147.521 7.31151C145.826 8.71561 144.2 10.1734 142.488 11.5538C141.297 12.5146 140.218 13.8958 139.789 15.3248C139.789 13.433 140.04 11.3457 139.652 9.50108C139.379 8.20388 139.056 6.92212 138.344 5.77575C138.255 5.63237 138.241 5.33533 138.116 5.22835C137.756 4.91991 137.037 4.74471 136.611 4.5137C135.804 4.07569 135.144 3.31811 134.338 2.95514C131.793 1.81005 131.236 7.54858 130.894 8.87766C129.859 12.8998 127.55 16.5719 125.96 20.3882C125.151 22.3289 124.305 24.2636 123.443 26.1814C122.971 27.2328 122.303 28.0517 121.626 28.9792C121.078 29.7306 120.765 30.7798 119.801 30.8475C117.777 31.1366 115.656 31.2179 113.661 31.5921C111.805 31.94 109.967 32.975 108.069 33.1859C105.952 33.4212 103.921 33.9742 101.772 34.1265C99.3302 34.2997 96.6138 34.1947 94.2215 34.7928C93.0907 35.0755 91.955 35.0441 90.7987 35.0933Z" fill="#FBD2AE" stroke="#FBD2AE" stroke-width="2.3449" stroke-linecap="round"/>
<path d="M140.311 14.0659C140.02 15.2487 139.119 16.0891 138.474 17.0854C138.202 17.5066 137.92 17.8671 137.576 18.2284C136.91 18.9276 136.094 19.3785 135.27 19.8802C134.879 20.1183 134.493 20.543 134.127 20.7259" stroke="#FFB28A" stroke-width="2.3449" stroke-linecap="round"/>
<path d="M161.36 3.12402C159.415 4.11524 157.533 5.52141 155.889 6.95618C154.192 8.43729 153.076 10.6928 151.74 12.4798C150.305 14.3984 148.682 16.1591 147.445 18.228C146.463 19.8705 145.356 21.7444 143.996 23.1041" stroke="#FFB28A" stroke-width="2.3449" stroke-linecap="round"/>
<path d="M162.907 20.0122C161.071 20.6639 159.51 21.2057 157.912 22.3313C156.483 23.3381 155.084 24.3952 153.631 25.364" stroke="#FFB28A" stroke-width="2.3449" stroke-linecap="round"/>
<path d="M86.53 39.4639C89.7833 37.8806 89.8398 37.8565 93.6474 36.8958C94.8661 36.8371 95.9283 36.6934 97.1488 36.6934C98.1544 36.6934 99.1141 36.9781 100.111 37.0908C101.118 37.2046 102.076 37.4801 103.024 37.8565C104.442 38.42 106.376 39.2562 107.039 40.855C107.566 42.1232 107.393 43.6503 107.393 44.9991C107.393 46.4586 106.819 47.6778 106.052 48.8509C104.727 50.8792 102.337 51.6204 100.216 52.3696C98.411 53.0071 95.9071 53.1229 94.0321 52.8489C92.4191 52.6131 90.8514 52.5437 89.2991 51.9487C88.3315 51.5779 87.1984 51.2017 86.3424 50.6044C85.5041 50.0195 84.4609 49.6552 83.8601 48.7457C82.7099 47.0047 82.8075 44.1567 83.5843 42.2461C84.1181 40.933 85.3448 40.0407 86.53 39.4639Z" fill="#FFFEFE"/>
<path d="M88.429 60.1253C88.429 57.3612 88.2237 54.4816 88.5283 51.7378C89.2738 52.0011 89.5431 52.0968 90.2705 52.2895C90.8962 52.4552 91.4723 52.3879 92.0786 52.6087C92.77 52.8605 93.893 52.6087 94.6265 52.6087C96.254 52.6087 97.2154 52.8991 99.1468 52.6087C99.853 52.3527 100.083 52.5511 101.139 51.9994V53.3393V56.1449V56.1507C101.139 56.7512 101.139 57.3064 100.995 57.8926C100.793 58.719 100.94 59.7533 100.94 60.5988V75.5502C100.94 75.9375 101.028 78.7665 100.637 78.8702C100.084 79.0165 99.3702 78.8819 98.8051 78.8819H96.7255C94.1301 78.8819 91.5908 79.5131 88.9806 79.5131C88.52 79.5131 88.429 79.4972 88.429 79.0397V77.9817V67.4257V60.1253Z" fill="#744B15"/>
<path d="M86.2451 38.4231C86.2451 37.1211 86.1097 35.7741 85.9473 34.4836C86.7342 34.692 87.3798 34.4836 88.1924 34.4836C88.8974 34.4836 89.1025 34.2518 89.8089 34.2518C90.5904 34.2518 90.8014 34.0744 92.3895 34.0744C93.609 33.6563 94.1478 33.6563 95.4806 33.6563C96.3391 33.3794 97.6599 33.096 98.5133 32.8236C99.2204 32.598 98.9595 33.5477 98.9326 34.0744C98.9182 34.3545 98.983 36.9725 98.2541 36.6345C97.3005 36.1925 95.8642 36.4826 94.8285 36.4826C93.2806 36.4826 91.7234 37.0307 90.4375 37.9321C89.6305 38.4978 88.6504 38.6961 87.8118 39.218C87.6676 39.3077 86.3409 40.3358 86.2507 40.0012C86.1293 39.5513 86.2451 38.8834 86.2451 38.4231Z" fill="#744B15"/>
<path d="M89.5039 42.168C90.4068 42.7855 91.2819 43.5008 92.2221 44.0542C92.4548 44.1912 92.645 44.2879 92.8377 44.4819C92.98 44.6252 93.1967 44.6912 93.3198 44.8542C93.3731 44.9249 93.5322 45.0083 93.6073 45.045C93.9073 45.1917 93.9207 44.9257 94.0632 44.6912C94.6201 43.7748 95.7202 43.2848 96.3051 42.3834C96.6282 41.8854 97.0912 41.5964 97.5277 41.2264C97.799 40.9964 98.1563 40.8271 98.3379 40.5063" stroke="#585757" stroke-width="2.3449" stroke-linecap="round"/>
<path d="M0.47312 139.457V138.401H0.965549C1.29384 138.401 1.58304 138.362 1.83316 138.284C2.09892 138.206 2.30996 138.05 2.46629 137.815C2.62261 137.581 2.70078 137.229 2.70078 136.76V125.317C2.70078 124.863 2.6148 124.527 2.44284 124.308C2.28651 124.09 2.07547 123.949 1.80971 123.886C1.55959 123.808 1.2782 123.769 0.965549 123.769H0.47312V122.714H5.02223L13.3935 135.33V125.317C13.3935 124.863 13.3075 124.527 13.1356 124.308C12.9793 124.09 12.7682 123.949 12.5025 123.886C12.2523 123.808 11.9709 123.769 11.6583 123.769H11.1659V122.714H17.1219V123.769H16.6295C16.3168 123.769 16.0276 123.808 15.7619 123.886C15.4961 123.965 15.2851 124.121 15.1287 124.355C14.9724 124.574 14.8943 124.926 14.8943 125.411V139.457H13.1121L4.22496 126.114V136.76C4.22496 137.229 4.29531 137.581 4.436 137.815C4.59233 138.05 4.80337 138.206 5.06912 138.284C5.33488 138.362 5.62408 138.401 5.93674 138.401H6.42917V139.457H0.47312ZM24.5443 139.691C22.809 139.691 21.4412 139.152 20.4407 138.073C19.4402 136.994 18.9399 135.353 18.9399 133.149C18.9399 130.945 19.4167 129.311 20.3703 128.248C21.3239 127.169 22.7387 126.63 24.6146 126.63C26.3498 126.63 27.7177 127.169 28.7182 128.248C29.7187 129.311 30.2189 130.945 30.2189 133.149C30.2189 135.353 29.7343 136.994 28.7651 138.073C27.8115 139.152 26.4045 139.691 24.5443 139.691ZM24.5911 138.401C25.3259 138.401 25.9121 138.206 26.3498 137.815C26.7875 137.424 27.1002 136.838 27.2878 136.056C27.4754 135.259 27.5692 134.29 27.5692 133.149C27.5692 131.992 27.4676 131.031 27.2643 130.265C27.0767 129.499 26.7641 128.92 26.3264 128.529C25.8887 128.138 25.3024 127.943 24.5677 127.943C23.833 127.943 23.2467 128.138 22.809 128.529C22.3713 128.92 22.0587 129.499 21.8711 130.265C21.6835 131.031 21.5897 131.992 21.5897 133.149C21.5897 134.29 21.6835 135.259 21.8711 136.056C22.0743 136.838 22.3948 137.424 22.8325 137.815C23.2702 138.206 23.8564 138.401 24.5911 138.401ZM38.1606 139.457V138.401H38.3951C38.7547 138.401 39.0673 138.362 39.3331 138.284C39.5988 138.206 39.8099 138.05 39.9662 137.815C40.1225 137.565 40.2007 137.205 40.2007 136.736V129.491C40.2007 129.037 40.1225 128.701 39.9662 128.482C39.8255 128.248 39.6144 128.099 39.3331 128.037C39.0673 127.959 38.7625 127.92 38.4186 127.92H38.3482V126.888H42.3814L42.6863 128.717H42.8035C43.1162 128.123 43.4523 127.677 43.8118 127.38C44.1714 127.083 44.5622 126.888 44.9843 126.794C45.4064 126.685 45.8675 126.63 46.3678 126.63C46.8836 126.63 47.3683 126.7 47.8216 126.841C48.2749 126.982 48.6658 127.201 48.9941 127.498C49.338 127.795 49.6037 128.201 49.7913 128.717H50.0024C50.315 128.123 50.6589 127.677 51.0341 127.38C51.4249 127.083 51.8392 126.888 52.2769 126.794C52.7303 126.685 53.1992 126.63 53.6839 126.63C54.8876 126.63 55.8255 126.997 56.4977 127.732C57.1856 128.451 57.5295 129.608 57.5295 131.202V136.713C57.5295 137.198 57.5998 137.565 57.7405 137.815C57.8812 138.05 58.0844 138.206 58.3502 138.284C58.616 138.362 58.9208 138.401 59.2647 138.401H59.3351V139.457H54.9501V131.46C54.9501 130.444 54.7781 129.663 54.4342 129.116C54.0903 128.553 53.4963 128.271 52.6521 128.271C52.0424 128.271 51.5578 128.428 51.1983 128.74C50.8387 129.053 50.5808 129.475 50.4244 130.007C50.2681 130.538 50.19 131.109 50.19 131.718V136.713C50.19 137.198 50.2603 137.565 50.401 137.815C50.5573 138.05 50.7605 138.206 51.0107 138.284C51.2764 138.362 51.5813 138.401 51.9252 138.401H51.9955V139.457H47.6106V131.46C47.6106 130.444 47.4386 129.663 47.0947 129.116C46.7508 128.553 46.1567 128.271 45.3126 128.271C44.6873 128.271 44.187 128.443 43.8118 128.787C43.4366 129.131 43.1709 129.592 43.0146 130.171C42.8582 130.749 42.7801 131.367 42.7801 132.023V136.854C42.7801 137.291 42.866 137.628 43.038 137.862C43.21 138.081 43.4288 138.229 43.6946 138.308C43.976 138.37 44.2886 138.401 44.6325 138.401H44.7029V139.457H38.1606ZM64.7531 139.691C64.0652 139.691 63.4399 139.558 62.8771 139.292C62.33 139.011 61.9001 138.597 61.5874 138.05C61.2748 137.487 61.1185 136.776 61.1185 135.916C61.1185 134.665 61.5562 133.743 62.4316 133.149C63.307 132.539 64.6436 132.203 66.4414 132.14L68.3642 132.07V130.71C68.3642 130.147 68.3173 129.655 68.2235 129.233C68.1453 128.811 67.9656 128.482 67.6842 128.248C67.4028 127.998 66.9729 127.873 66.3945 127.873C65.8473 127.873 65.4253 127.982 65.1282 128.201C64.8469 128.42 64.6514 128.725 64.542 129.116C64.4482 129.491 64.4013 129.928 64.4013 130.429C63.651 130.429 63.0804 130.319 62.6895 130.1C62.2987 129.866 62.1033 129.475 62.1033 128.928C62.1033 128.365 62.2987 127.92 62.6895 127.591C63.096 127.263 63.6275 127.021 64.2841 126.864C64.9563 126.708 65.691 126.63 66.4883 126.63C67.9734 126.63 69.0833 126.935 69.818 127.544C70.5684 128.154 70.9436 129.194 70.9436 130.663V136.713C70.9436 137.151 70.9905 137.495 71.0843 137.745C71.1781 137.979 71.3344 138.151 71.5533 138.261C71.7721 138.354 72.0535 138.401 72.3974 138.401H72.4678V139.457H68.9739L68.5752 137.557H68.3642C68.0359 137.979 67.7155 138.354 67.4028 138.683C67.0901 138.995 66.7306 139.246 66.3241 139.433C65.9177 139.605 65.394 139.691 64.7531 139.691ZM65.5034 138.167C66.0975 138.167 66.6055 138.042 67.0276 137.792C67.4497 137.526 67.778 137.151 68.0125 136.666C68.247 136.181 68.3642 135.619 68.3642 134.978V133.125L66.9807 133.196C66.1678 133.227 65.5269 133.36 65.0579 133.594C64.5889 133.813 64.2528 134.126 64.0496 134.532C63.862 134.939 63.7682 135.439 63.7682 136.033C63.7682 136.502 63.8307 136.901 63.9558 137.229C64.0809 137.542 64.2684 137.776 64.5186 137.932C64.7843 138.089 65.1126 138.167 65.5034 138.167ZM79.0626 139.691C77.9058 139.691 77.046 139.425 76.4832 138.894C75.9205 138.347 75.6391 137.393 75.6391 136.033V128.295H73.8804V127.287C74.2087 127.287 74.5526 127.216 74.9122 127.075C75.2717 126.935 75.5765 126.732 75.8267 126.466C76.0924 126.2 76.3113 125.872 76.4832 125.481C76.6552 125.074 76.7959 124.582 76.9053 124.004H78.2185V126.888H81.2668V128.295H78.2185V136.033C78.2185 136.799 78.367 137.362 78.664 137.721C78.9767 138.081 79.4066 138.261 79.9537 138.261C80.2351 138.261 80.493 138.245 80.7275 138.214C80.9776 138.182 81.2278 138.143 81.4779 138.097V139.269C81.2747 139.363 80.9464 139.457 80.493 139.55C80.0397 139.644 79.5629 139.691 79.0626 139.691ZM87.6728 139.691C86.516 139.691 85.6562 139.425 85.0934 138.894C84.5306 138.347 84.2493 137.393 84.2493 136.033V128.295H82.4906V127.287C82.8189 127.287 83.1628 127.216 83.5223 127.075C83.8819 126.935 84.1867 126.732 84.4368 126.466C84.7026 126.2 84.9215 125.872 85.0934 125.481C85.2654 125.074 85.4061 124.582 85.5155 124.004H86.8286V126.888H89.877V128.295H86.8286V136.033C86.8286 136.799 86.9772 137.362 87.2742 137.721C87.5868 138.081 88.0167 138.261 88.5639 138.261C88.8453 138.261 89.1032 138.245 89.3377 138.214C89.5878 138.182 89.8379 138.143 90.0881 138.097V139.269C89.8848 139.363 89.5565 139.457 89.1032 139.55C88.6499 139.644 88.1731 139.691 87.6728 139.691ZM97.4789 139.691C95.6968 139.691 94.3133 139.128 93.3284 138.003C92.3592 136.877 91.8746 135.298 91.8746 133.266C91.8746 131.062 92.3436 129.405 93.2815 128.295C94.2195 127.185 95.5404 126.63 97.2444 126.63C98.8077 126.63 100.035 127.107 100.926 128.06C101.833 128.998 102.286 130.397 102.286 132.258V133.36H94.5243C94.5556 134.47 94.6963 135.384 94.9464 136.103C95.2122 136.807 95.5873 137.323 96.072 137.651C96.5722 137.979 97.1819 138.143 97.901 138.143C98.4481 138.143 98.9327 138.065 99.3548 137.909C99.7925 137.737 100.168 137.526 100.48 137.276C100.809 137.01 101.067 136.729 101.254 136.432C101.395 136.494 101.512 136.604 101.606 136.76C101.7 136.916 101.747 137.104 101.747 137.323C101.747 137.667 101.59 138.026 101.278 138.401C100.981 138.761 100.512 139.066 99.8707 139.316C99.2454 139.566 98.4481 139.691 97.4789 139.691ZM99.5893 132.023C99.5893 131.21 99.5111 130.499 99.3548 129.889C99.1985 129.28 98.9484 128.811 98.6044 128.482C98.2605 128.138 97.7994 127.967 97.221 127.967C96.6894 127.967 96.2283 128.123 95.8375 128.436C95.4623 128.748 95.1653 129.209 94.9464 129.819C94.7432 130.413 94.6181 131.148 94.5712 132.023H99.5893ZM104.09 139.457V138.401H104.16C104.52 138.401 104.84 138.362 105.121 138.284C105.418 138.206 105.645 138.05 105.801 137.815C105.973 137.565 106.059 137.198 106.059 136.713V129.538C106.059 129.069 105.973 128.725 105.801 128.506C105.629 128.271 105.403 128.123 105.121 128.06C104.856 127.982 104.551 127.943 104.207 127.943H104.137V126.888H108.053L108.498 129.069H108.615C108.819 128.6 109.037 128.185 109.272 127.826C109.522 127.451 109.842 127.161 110.233 126.958C110.64 126.739 111.179 126.63 111.851 126.63C112.727 126.63 113.375 126.786 113.798 127.099C114.22 127.412 114.431 127.849 114.431 128.412C114.431 128.959 114.235 129.405 113.844 129.749C113.469 130.077 112.867 130.241 112.039 130.241C112.039 129.803 112 129.452 111.922 129.186C111.843 128.904 111.718 128.701 111.546 128.576C111.374 128.436 111.132 128.365 110.82 128.365C110.397 128.365 110.038 128.529 109.741 128.858C109.459 129.186 109.241 129.6 109.084 130.1C108.928 130.601 108.811 131.117 108.733 131.648C108.67 132.18 108.639 132.649 108.639 133.055V136.83C108.639 137.284 108.725 137.628 108.897 137.862C109.069 138.081 109.288 138.229 109.553 138.308C109.835 138.37 110.147 138.401 110.491 138.401H111.171V139.457H104.09ZM126.533 139.691C125.376 139.691 124.517 139.425 123.954 138.894C123.391 138.347 123.11 137.393 123.11 136.033V128.295H121.351V127.287C121.679 127.287 122.023 127.216 122.383 127.075C122.742 126.935 123.047 126.732 123.297 126.466C123.563 126.2 123.782 125.872 123.954 125.481C124.126 125.074 124.266 124.582 124.376 124.004H125.689V126.888H128.737V128.295H125.689V136.033C125.689 136.799 125.837 137.362 126.134 137.721C126.447 138.081 126.877 138.261 127.424 138.261C127.706 138.261 127.964 138.245 128.198 138.214C128.448 138.182 128.698 138.143 128.948 138.097V139.269C128.745 139.363 128.417 139.457 127.964 139.55C127.51 139.644 127.033 139.691 126.533 139.691ZM129.938 139.457V138.401H130.078C130.438 138.401 130.758 138.362 131.04 138.284C131.321 138.206 131.548 138.05 131.72 137.815C131.892 137.565 131.978 137.205 131.978 136.736V124.238C131.978 123.785 131.884 123.449 131.696 123.23C131.524 123.011 131.298 122.87 131.016 122.808C130.735 122.73 130.438 122.691 130.125 122.691H129.914V121.635H134.557V126.442C134.557 126.755 134.541 127.083 134.51 127.427C134.495 127.771 134.479 128.068 134.463 128.318C134.448 128.568 134.44 128.693 134.44 128.693H134.581C134.831 128.193 135.128 127.795 135.472 127.498C135.816 127.185 136.199 126.966 136.621 126.841C137.058 126.7 137.535 126.63 138.051 126.63C139.364 126.63 140.372 126.997 141.076 127.732C141.779 128.451 142.131 129.608 142.131 131.202V136.713C142.131 137.198 142.201 137.565 142.342 137.815C142.498 138.05 142.702 138.206 142.952 138.284C143.218 138.362 143.522 138.401 143.866 138.401H143.937V139.457H139.552V131.46C139.552 130.444 139.372 129.663 139.012 129.116C138.668 128.553 138.051 128.271 137.16 128.271C136.566 128.271 136.073 128.436 135.683 128.764C135.292 129.076 135.003 129.514 134.815 130.077C134.643 130.64 134.557 131.288 134.557 132.023V136.854C134.557 137.291 134.635 137.628 134.792 137.862C134.964 138.081 135.19 138.229 135.472 138.308C135.753 138.37 136.066 138.401 136.41 138.401H136.48V139.457H129.938ZM151.43 139.691C149.648 139.691 148.264 139.128 147.279 138.003C146.31 136.877 145.826 135.298 145.826 133.266C145.826 131.062 146.295 129.405 147.233 128.295C148.171 127.185 149.491 126.63 151.195 126.63C152.759 126.63 153.986 127.107 154.877 128.06C155.784 128.998 156.237 130.397 156.237 132.258V133.36H148.475C148.507 134.47 148.647 135.384 148.897 136.103C149.163 136.807 149.538 137.323 150.023 137.651C150.523 137.979 151.133 138.143 151.852 138.143C152.399 138.143 152.884 138.065 153.306 137.909C153.744 137.737 154.119 137.526 154.431 137.276C154.76 137.01 155.018 136.729 155.205 136.432C155.346 136.494 155.463 136.604 155.557 136.76C155.651 136.916 155.698 137.104 155.698 137.323C155.698 137.667 155.541 138.026 155.229 138.401C154.932 138.761 154.463 139.066 153.822 139.316C153.196 139.566 152.399 139.691 151.43 139.691ZM153.54 132.023C153.54 131.21 153.462 130.499 153.306 129.889C153.15 129.28 152.899 128.811 152.555 128.482C152.212 128.138 151.75 127.967 151.172 127.967C150.64 127.967 150.179 128.123 149.788 128.436C149.413 128.748 149.116 129.209 148.897 129.819C148.694 130.413 148.569 131.148 148.522 132.023H153.54ZM163.874 139.457V138.401H164.085C164.413 138.401 164.718 138.362 165 138.284C165.281 138.206 165.508 138.05 165.68 137.815C165.852 137.581 165.938 137.229 165.938 136.76V124.238C165.938 123.785 165.844 123.449 165.656 123.23C165.484 123.011 165.257 122.87 164.976 122.808C164.695 122.73 164.398 122.691 164.085 122.691H163.874V121.635H168.517V130.687C168.517 130.89 168.509 131.148 168.493 131.46C168.493 131.773 168.486 132.086 168.47 132.398C168.454 132.711 168.439 132.977 168.423 133.196C168.423 133.399 168.423 133.5 168.423 133.5L171.354 130.265C171.651 129.936 171.878 129.663 172.034 129.444C172.191 129.209 172.3 129.014 172.363 128.858C172.425 128.701 172.456 128.561 172.456 128.436C172.456 128.232 172.355 128.099 172.151 128.037C171.964 127.959 171.675 127.92 171.284 127.92V126.888H176.677V127.92C176.411 127.92 176.146 127.967 175.88 128.06C175.614 128.154 175.348 128.295 175.083 128.482C174.817 128.654 174.543 128.873 174.262 129.139C173.981 129.405 173.684 129.71 173.371 130.053L171.776 131.859L174.895 136.502C175.176 136.908 175.442 137.26 175.692 137.557C175.958 137.839 176.232 138.05 176.513 138.19C176.81 138.331 177.123 138.401 177.451 138.401H177.521V139.457H177.193C176.458 139.457 175.849 139.433 175.364 139.386C174.879 139.339 174.465 139.246 174.121 139.105C173.793 138.964 173.488 138.745 173.207 138.448C172.925 138.151 172.62 137.745 172.292 137.229L170.018 133.665L168.517 134.79V136.854C168.517 137.291 168.603 137.628 168.775 137.862C168.962 138.081 169.197 138.229 169.478 138.308C169.76 138.37 170.057 138.401 170.369 138.401H170.487V139.457H163.874ZM177.982 139.457V138.401H178.287C178.599 138.401 178.896 138.37 179.178 138.308C179.459 138.229 179.686 138.081 179.858 137.862C180.045 137.628 180.139 137.291 180.139 136.854V129.491C180.139 129.037 180.045 128.701 179.858 128.482C179.686 128.264 179.459 128.123 179.178 128.06C178.896 127.982 178.599 127.943 178.287 127.943H178.169V126.888H182.718V136.76C182.718 137.229 182.804 137.581 182.976 137.815C183.148 138.05 183.375 138.206 183.656 138.284C183.953 138.362 184.258 138.401 184.571 138.401H184.876V139.457H177.982ZM181.335 124.613C180.897 124.613 180.53 124.496 180.233 124.262C179.951 124.027 179.811 123.636 179.811 123.089C179.811 122.526 179.959 122.136 180.256 121.917C180.553 121.682 180.913 121.565 181.335 121.565C181.741 121.565 182.093 121.682 182.39 121.917C182.703 122.136 182.859 122.526 182.859 123.089C182.859 123.636 182.703 124.027 182.39 124.262C182.093 124.496 181.741 124.613 181.335 124.613ZM185.816 139.457V138.401H185.957C186.316 138.401 186.637 138.362 186.918 138.284C187.215 138.206 187.442 138.05 187.598 137.815C187.77 137.565 187.856 137.205 187.856 136.736V129.514C187.856 129.061 187.77 128.725 187.598 128.506C187.442 128.271 187.223 128.123 186.942 128.06C186.676 127.982 186.371 127.943 186.027 127.943H185.933V126.888H190.037L190.342 128.717H190.459C190.787 128.123 191.131 127.677 191.491 127.38C191.866 127.083 192.265 126.888 192.687 126.794C193.124 126.685 193.593 126.63 194.094 126.63C195.329 126.63 196.29 126.997 196.978 127.732C197.666 128.451 198.01 129.608 198.01 131.202V136.713C198.01 137.198 198.08 137.565 198.221 137.815C198.361 138.05 198.557 138.206 198.807 138.284C199.073 138.362 199.377 138.401 199.721 138.401H199.839V139.457H195.43V131.46C195.43 130.444 195.25 129.663 194.891 129.116C194.547 128.553 193.937 128.271 193.062 128.271C192.405 128.271 191.882 128.443 191.491 128.787C191.116 129.131 190.842 129.592 190.67 130.171C190.514 130.749 190.435 131.367 190.435 132.023V136.854C190.435 137.291 190.514 137.628 190.67 137.862C190.842 138.081 191.061 138.229 191.327 138.308C191.608 138.37 191.921 138.401 192.265 138.401H192.358V139.457H185.816ZM206.507 139.691C205.475 139.691 204.599 139.464 203.88 139.011C203.177 138.558 202.638 137.854 202.262 136.901C201.903 135.931 201.723 134.696 201.723 133.196C201.723 131.679 201.903 130.444 202.262 129.491C202.638 128.521 203.177 127.802 203.88 127.333C204.599 126.864 205.467 126.63 206.483 126.63C207.374 126.63 208.101 126.818 208.664 127.193C209.242 127.568 209.704 128.053 210.047 128.647H210.188C210.157 128.381 210.126 128.092 210.094 127.779C210.079 127.466 210.063 127.154 210.047 126.841C210.047 126.528 210.047 126.247 210.047 125.997V124.238C210.047 123.785 209.954 123.449 209.766 123.23C209.594 123.011 209.36 122.87 209.063 122.808C208.781 122.73 208.469 122.691 208.125 122.691H207.937V121.635H212.627V136.783C212.627 137.252 212.713 137.604 212.885 137.839C213.072 138.073 213.307 138.229 213.588 138.308C213.885 138.37 214.206 138.401 214.55 138.401H214.714V139.457H210.587L210.212 137.416H210.094C209.75 138.12 209.297 138.675 208.734 139.081C208.172 139.488 207.429 139.691 206.507 139.691ZM207.069 138.12C208.195 138.12 208.969 137.714 209.391 136.901C209.829 136.088 210.047 134.845 210.047 133.172C210.047 132.109 209.954 131.21 209.766 130.476C209.578 129.725 209.266 129.162 208.828 128.787C208.406 128.396 207.812 128.201 207.046 128.201C206.405 128.201 205.889 128.396 205.498 128.787C205.108 129.178 204.818 129.741 204.631 130.476C204.443 131.21 204.349 132.125 204.349 133.219C204.349 134.313 204.443 135.228 204.631 135.963C204.818 136.682 205.108 137.221 205.498 137.581C205.905 137.94 206.429 138.12 207.069 138.12ZM228.051 139.691C226.316 139.691 224.948 139.152 223.948 138.073C222.947 136.994 222.447 135.353 222.447 133.149C222.447 130.945 222.924 129.311 223.877 128.248C224.831 127.169 226.246 126.63 228.122 126.63C229.857 126.63 231.225 127.169 232.225 128.248C233.226 129.311 233.726 130.945 233.726 133.149C233.726 135.353 233.241 136.994 232.272 138.073C231.319 139.152 229.912 139.691 228.051 139.691ZM228.098 138.401C228.833 138.401 229.419 138.206 229.857 137.815C230.295 137.424 230.607 136.838 230.795 136.056C230.982 135.259 231.076 134.29 231.076 133.149C231.076 131.992 230.975 131.031 230.771 130.265C230.584 129.499 230.271 128.92 229.833 128.529C229.396 128.138 228.81 127.943 228.075 127.943C227.34 127.943 226.754 128.138 226.316 128.529C225.878 128.92 225.566 129.499 225.378 130.265C225.191 131.031 225.097 131.992 225.097 133.149C225.097 134.29 225.191 135.259 225.378 136.056C225.581 136.838 225.902 137.424 226.34 137.815C226.777 138.206 227.364 138.401 228.098 138.401ZM235.553 139.457V138.401H235.905C236.233 138.401 236.538 138.362 236.819 138.284C237.101 138.206 237.327 138.05 237.499 137.815C237.671 137.581 237.757 137.229 237.757 136.76V128.131H235.647V126.888H237.757V125.809C237.757 124.387 238.132 123.3 238.883 122.55C239.633 121.784 240.704 121.401 242.095 121.401C242.955 121.401 243.635 121.479 244.135 121.635C244.636 121.776 244.995 121.971 245.214 122.222C245.433 122.456 245.542 122.737 245.542 123.066C245.542 123.363 245.449 123.613 245.261 123.816C245.089 124.019 244.839 124.176 244.511 124.285C244.198 124.394 243.815 124.449 243.362 124.449C243.362 124.152 243.315 123.855 243.221 123.558C243.127 123.261 242.979 123.019 242.775 122.831C242.572 122.644 242.283 122.55 241.908 122.55C241.314 122.55 240.899 122.8 240.665 123.3C240.446 123.785 240.337 124.527 240.337 125.528V126.888H243.619V128.131H240.337V136.76C240.337 137.229 240.423 137.581 240.595 137.815C240.782 138.05 241.017 138.206 241.298 138.284C241.579 138.362 241.876 138.401 242.189 138.401H243.15V139.457H235.553ZM256.649 139.691C255.586 139.691 254.641 139.48 253.812 139.058C252.999 138.62 252.358 137.932 251.889 136.994C251.42 136.041 251.186 134.79 251.186 133.243C251.186 131.554 251.42 130.233 251.889 129.28C252.358 128.31 252.999 127.63 253.812 127.24C254.625 126.833 255.54 126.63 256.556 126.63C257.306 126.63 258.002 126.724 258.643 126.911C259.284 127.099 259.799 127.372 260.19 127.732C260.581 128.076 260.776 128.514 260.776 129.045C260.776 129.389 260.698 129.686 260.542 129.936C260.386 130.171 260.136 130.351 259.792 130.476C259.463 130.601 259.01 130.663 258.432 130.663C258.432 130.147 258.377 129.686 258.267 129.28C258.158 128.858 257.97 128.521 257.705 128.271C257.439 128.006 257.064 127.873 256.579 127.873C256.016 127.873 255.524 128.029 255.102 128.342C254.695 128.654 254.383 129.202 254.164 129.983C253.945 130.749 253.836 131.828 253.836 133.219C253.836 134.313 253.945 135.228 254.164 135.963C254.398 136.682 254.758 137.221 255.242 137.581C255.727 137.925 256.368 138.097 257.165 138.097C257.666 138.097 258.119 138.026 258.525 137.885C258.947 137.729 259.315 137.526 259.627 137.276C259.94 137.01 260.182 136.713 260.354 136.385C260.495 136.479 260.604 136.611 260.683 136.783C260.761 136.94 260.8 137.127 260.8 137.346C260.8 137.721 260.644 138.089 260.331 138.448C260.034 138.808 259.581 139.105 258.971 139.339C258.361 139.574 257.587 139.691 256.649 139.691ZM268.56 139.691C266.825 139.691 265.457 139.152 264.457 138.073C263.456 136.994 262.956 135.353 262.956 133.149C262.956 130.945 263.433 129.311 264.387 128.248C265.34 127.169 266.755 126.63 268.631 126.63C270.366 126.63 271.734 127.169 272.734 128.248C273.735 129.311 274.235 130.945 274.235 133.149C274.235 135.353 273.75 136.994 272.781 138.073C271.828 139.152 270.421 139.691 268.56 139.691ZM268.607 138.401C269.342 138.401 269.928 138.206 270.366 137.815C270.804 137.424 271.116 136.838 271.304 136.056C271.492 135.259 271.585 134.29 271.585 133.149C271.585 131.992 271.484 131.031 271.281 130.265C271.093 129.499 270.78 128.92 270.343 128.529C269.905 128.138 269.319 127.943 268.584 127.943C267.849 127.943 267.263 128.138 266.825 128.529C266.387 128.92 266.075 129.499 265.887 130.265C265.7 131.031 265.606 131.992 265.606 133.149C265.606 134.29 265.7 135.259 265.887 136.056C266.09 136.838 266.411 137.424 266.849 137.815C267.286 138.206 267.873 138.401 268.607 138.401ZM276.086 139.457V138.401H276.226C276.586 138.401 276.906 138.362 277.188 138.284C277.485 138.206 277.711 138.05 277.868 137.815C278.04 137.565 278.126 137.205 278.126 136.736V129.514C278.126 129.061 278.04 128.725 277.868 128.506C277.711 128.271 277.492 128.123 277.211 128.06C276.945 127.982 276.64 127.943 276.297 127.943H276.203V126.888H280.306L280.611 128.717H280.728C281.057 128.123 281.401 127.677 281.76 127.38C282.135 127.083 282.534 126.888 282.956 126.794C283.394 126.685 283.863 126.63 284.363 126.63C285.598 126.63 286.559 126.997 287.247 127.732C287.935 128.451 288.279 129.608 288.279 131.202V136.713C288.279 137.198 288.349 137.565 288.49 137.815C288.631 138.05 288.826 138.206 289.076 138.284C289.342 138.362 289.647 138.401 289.991 138.401H290.108V139.457H285.7V131.46C285.7 130.444 285.52 129.663 285.16 129.116C284.816 128.553 284.207 128.271 283.331 128.271C282.675 128.271 282.151 128.443 281.76 128.787C281.385 129.131 281.111 129.592 280.939 130.171C280.783 130.749 280.705 131.367 280.705 132.023V136.854C280.705 137.291 280.783 137.628 280.939 137.862C281.111 138.081 281.33 138.229 281.596 138.308C281.877 138.37 282.19 138.401 282.534 138.401H282.628V139.457H276.086ZM296.401 139.691C295.244 139.691 294.384 139.425 293.822 138.894C293.259 138.347 292.977 137.393 292.977 136.033V128.295H291.219V127.287C291.547 127.287 291.891 127.216 292.251 127.075C292.61 126.935 292.915 126.732 293.165 126.466C293.431 126.2 293.65 125.872 293.822 125.481C293.994 125.074 294.134 124.582 294.244 124.004H295.557V126.888H298.605V128.295H295.557V136.033C295.557 136.799 295.705 137.362 296.002 137.721C296.315 138.081 296.745 138.261 297.292 138.261C297.573 138.261 297.831 138.245 298.066 138.214C298.316 138.182 298.566 138.143 298.816 138.097V139.269C298.613 139.363 298.285 139.457 297.831 139.55C297.378 139.644 296.901 139.691 296.401 139.691ZM300.04 139.457V138.401H300.11C300.47 138.401 300.79 138.362 301.072 138.284C301.369 138.206 301.595 138.05 301.752 137.815C301.924 137.565 302.01 137.198 302.01 136.713V129.538C302.01 129.069 301.924 128.725 301.752 128.506C301.58 128.271 301.353 128.123 301.072 128.06C300.806 127.982 300.501 127.943 300.157 127.943H300.087V126.888H304.003L304.448 129.069H304.566C304.769 128.6 304.988 128.185 305.222 127.826C305.472 127.451 305.793 127.161 306.184 126.958C306.59 126.739 307.129 126.63 307.802 126.63C308.677 126.63 309.326 126.786 309.748 127.099C310.17 127.412 310.381 127.849 310.381 128.412C310.381 128.959 310.186 129.405 309.795 129.749C309.42 130.077 308.818 130.241 307.989 130.241C307.989 129.803 307.95 129.452 307.872 129.186C307.794 128.904 307.669 128.701 307.497 128.576C307.325 128.436 307.082 128.365 306.77 128.365C306.348 128.365 305.988 128.529 305.691 128.858C305.41 129.186 305.191 129.6 305.035 130.1C304.878 130.601 304.761 131.117 304.683 131.648C304.62 132.18 304.589 132.649 304.589 133.055V136.83C304.589 137.284 304.675 137.628 304.847 137.862C305.019 138.081 305.238 138.229 305.504 138.308C305.785 138.37 306.098 138.401 306.442 138.401H307.122V139.457H300.04ZM311.233 139.457V138.401H311.538C311.851 138.401 312.148 138.37 312.429 138.308C312.711 138.229 312.937 138.081 313.109 137.862C313.297 137.628 313.391 137.291 313.391 136.854V129.491C313.391 129.037 313.297 128.701 313.109 128.482C312.937 128.264 312.711 128.123 312.429 128.06C312.148 127.982 311.851 127.943 311.538 127.943H311.421V126.888H315.97V136.76C315.97 137.229 316.056 137.581 316.228 137.815C316.4 138.05 316.627 138.206 316.908 138.284C317.205 138.362 317.51 138.401 317.823 138.401H318.127V139.457H311.233ZM314.587 124.613C314.149 124.613 313.782 124.496 313.485 124.262C313.203 124.027 313.062 123.636 313.062 123.089C313.062 122.526 313.211 122.136 313.508 121.917C313.805 121.682 314.165 121.565 314.587 121.565C314.993 121.565 315.345 121.682 315.642 121.917C315.954 122.136 316.111 122.526 316.111 123.089C316.111 123.636 315.954 124.027 315.642 124.262C315.345 124.496 314.993 124.613 314.587 124.613ZM327.064 139.691C326.157 139.691 325.415 139.503 324.836 139.128C324.273 138.737 323.82 138.237 323.476 137.628H323.312L322.82 139.457H318.88V138.401H319.044C319.388 138.401 319.701 138.362 319.982 138.284C320.279 138.206 320.514 138.05 320.686 137.815C320.858 137.565 320.944 137.205 320.944 136.736V124.285C320.944 123.816 320.85 123.472 320.662 123.253C320.49 123.019 320.264 122.87 319.982 122.808C319.701 122.73 319.388 122.691 319.044 122.691H318.88V121.635H323.523V125.856C323.523 126.122 323.515 126.458 323.5 126.864C323.5 127.255 323.484 127.638 323.453 128.013C323.437 128.389 323.421 128.67 323.406 128.858H323.523C323.867 128.17 324.32 127.63 324.883 127.24C325.446 126.833 326.181 126.63 327.087 126.63C328.619 126.63 329.792 127.154 330.605 128.201C331.433 129.248 331.847 130.898 331.847 133.149C331.847 134.649 331.66 135.884 331.285 136.854C330.925 137.823 330.386 138.542 329.667 139.011C328.963 139.464 328.096 139.691 327.064 139.691ZM326.501 138.12C327.142 138.12 327.658 137.932 328.049 137.557C328.455 137.166 328.744 136.604 328.916 135.869C329.104 135.118 329.198 134.204 329.198 133.125C329.198 132.031 329.104 131.124 328.916 130.405C328.744 129.67 328.455 129.123 328.049 128.764C327.658 128.389 327.134 128.201 326.478 128.201C325.352 128.201 324.578 128.607 324.156 129.42C323.734 130.233 323.523 131.476 323.523 133.149C323.523 134.212 323.609 135.118 323.781 135.869C323.969 136.604 324.281 137.166 324.719 137.557C325.157 137.932 325.751 138.12 326.501 138.12ZM339.399 139.691C338.164 139.691 337.21 139.324 336.538 138.589C335.881 137.854 335.553 136.682 335.553 135.072V129.561C335.553 129.092 335.467 128.748 335.295 128.529C335.139 128.295 334.92 128.138 334.638 128.06C334.373 127.982 334.068 127.943 333.724 127.943H333.654V126.888H338.132V134.814C338.132 135.486 338.195 136.064 338.32 136.549C338.461 137.033 338.695 137.409 339.023 137.674C339.367 137.925 339.828 138.05 340.407 138.05C341.032 138.05 341.548 137.893 341.955 137.581C342.361 137.268 342.658 136.83 342.846 136.267C343.033 135.705 343.127 135.056 343.127 134.321V129.585C343.127 129.1 343.041 128.74 342.869 128.506C342.713 128.271 342.494 128.123 342.212 128.06C341.931 127.982 341.618 127.943 341.274 127.943H341.204V126.888H345.706V136.854C345.706 137.307 345.785 137.651 345.941 137.885C346.113 138.104 346.339 138.245 346.621 138.308C346.902 138.37 347.207 138.401 347.535 138.401H347.629V139.457H343.643L343.291 137.628H343.174C342.939 138.05 342.674 138.401 342.377 138.683C342.095 138.948 341.798 139.16 341.486 139.316C341.173 139.457 340.837 139.55 340.477 139.597C340.133 139.66 339.774 139.691 339.399 139.691ZM353.833 139.691C352.676 139.691 351.816 139.425 351.253 138.894C350.691 138.347 350.409 137.393 350.409 136.033V128.295H348.65V127.287C348.979 127.287 349.323 127.216 349.682 127.075C350.042 126.935 350.347 126.732 350.597 126.466C350.863 126.2 351.081 125.872 351.253 125.481C351.425 125.074 351.566 124.582 351.675 124.004H352.989V126.888H356.037V128.295H352.989V136.033C352.989 136.799 353.137 137.362 353.434 137.721C353.747 138.081 354.177 138.261 354.724 138.261C355.005 138.261 355.263 138.245 355.498 138.214C355.748 138.182 355.998 138.143 356.248 138.097V139.269C356.045 139.363 355.716 139.457 355.263 139.55C354.81 139.644 354.333 139.691 353.833 139.691ZM357.284 139.457V138.401H357.589C357.902 138.401 358.199 138.37 358.48 138.308C358.761 138.229 358.988 138.081 359.16 137.862C359.348 137.628 359.441 137.291 359.441 136.854V129.491C359.441 129.037 359.348 128.701 359.16 128.482C358.988 128.264 358.761 128.123 358.48 128.06C358.199 127.982 357.902 127.943 357.589 127.943H357.472V126.888H362.021V136.76C362.021 137.229 362.107 137.581 362.279 137.815C362.451 138.05 362.677 138.206 362.959 138.284C363.256 138.362 363.561 138.401 363.873 138.401H364.178V139.457H357.284ZM360.637 124.613C360.2 124.613 359.832 124.496 359.535 124.262C359.254 124.027 359.113 123.636 359.113 123.089C359.113 122.526 359.262 122.136 359.559 121.917C359.856 121.682 360.215 121.565 360.637 121.565C361.044 121.565 361.396 121.682 361.693 121.917C362.005 122.136 362.162 122.526 362.162 123.089C362.162 123.636 362.005 124.027 361.693 124.262C361.396 124.496 361.044 124.613 360.637 124.613ZM371.356 139.691C369.621 139.691 368.253 139.152 367.252 138.073C366.252 136.994 365.752 135.353 365.752 133.149C365.752 130.945 366.228 129.311 367.182 128.248C368.136 127.169 369.55 126.63 371.426 126.63C373.161 126.63 374.529 127.169 375.53 128.248C376.53 129.311 377.031 130.945 377.031 133.149C377.031 135.353 376.546 136.994 375.577 138.073C374.623 139.152 373.216 139.691 371.356 139.691ZM371.403 138.401C372.138 138.401 372.724 138.206 373.161 137.815C373.599 137.424 373.912 136.838 374.099 136.056C374.287 135.259 374.381 134.29 374.381 133.149C374.381 131.992 374.279 131.031 374.076 130.265C373.888 129.499 373.576 128.92 373.138 128.529C372.7 128.138 372.114 127.943 371.379 127.943C370.645 127.943 370.058 128.138 369.621 128.529C369.183 128.92 368.87 129.499 368.683 130.265C368.495 131.031 368.401 131.992 368.401 133.149C368.401 134.29 368.495 135.259 368.683 136.056C368.886 136.838 369.206 137.424 369.644 137.815C370.082 138.206 370.668 138.401 371.403 138.401ZM378.881 139.457V138.401H379.022C379.381 138.401 379.702 138.362 379.983 138.284C380.28 138.206 380.507 138.05 380.663 137.815C380.835 137.565 380.921 137.205 380.921 136.736V129.514C380.921 129.061 380.835 128.725 380.663 128.506C380.507 128.271 380.288 128.123 380.007 128.06C379.741 127.982 379.436 127.943 379.092 127.943H378.998V126.888H383.102L383.407 128.717H383.524C383.852 128.123 384.196 127.677 384.556 127.38C384.931 127.083 385.329 126.888 385.752 126.794C386.189 126.685 386.658 126.63 387.159 126.63C388.393 126.63 389.355 126.997 390.043 127.732C390.731 128.451 391.074 129.608 391.074 131.202V136.713C391.074 137.198 391.145 137.565 391.286 137.815C391.426 138.05 391.622 138.206 391.872 138.284C392.138 138.362 392.442 138.401 392.786 138.401H392.904V139.457H388.495V131.46C388.495 130.444 388.315 129.663 387.956 129.116C387.612 128.553 387.002 128.271 386.127 128.271C385.47 128.271 384.946 128.443 384.556 128.787C384.18 129.131 383.907 129.592 383.735 130.171C383.579 130.749 383.5 131.367 383.5 132.023V136.854C383.5 137.291 383.579 137.628 383.735 137.862C383.907 138.081 384.126 138.229 384.392 138.308C384.673 138.37 384.986 138.401 385.329 138.401H385.423V139.457H378.881ZM394.343 142.012C394.843 141.841 395.249 141.653 395.562 141.45C395.89 141.262 396.132 141.043 396.289 140.793C396.445 140.559 396.523 140.293 396.523 139.996C396.523 139.808 396.461 139.652 396.336 139.527C396.226 139.417 396.086 139.324 395.914 139.246C395.757 139.152 395.593 139.05 395.421 138.941C395.249 138.816 395.101 138.659 394.976 138.472C394.866 138.284 394.812 138.034 394.812 137.721C394.812 137.252 394.96 136.901 395.257 136.666C395.554 136.416 395.929 136.291 396.383 136.291C396.914 136.291 397.36 136.486 397.719 136.877C398.094 137.252 398.282 137.784 398.282 138.472C398.282 139.472 397.985 140.387 397.391 141.215C396.797 142.044 395.781 142.661 394.343 143.068V142.012ZM114.992 161.186C114.882 160.858 114.749 160.607 114.593 160.436C114.452 160.248 114.28 160.123 114.077 160.06C113.89 159.982 113.639 159.943 113.327 159.943H113.256V158.888H119.353V159.943H119.048C118.579 159.943 118.228 160.013 117.993 160.154C117.759 160.279 117.641 160.537 117.641 160.928C117.641 161.053 117.657 161.209 117.688 161.397C117.735 161.585 117.782 161.764 117.829 161.936L118.861 165.641C118.97 166.016 119.072 166.423 119.166 166.861C119.259 167.298 119.345 167.72 119.423 168.127C119.517 168.518 119.588 168.846 119.635 169.112H119.705C119.752 168.846 119.822 168.541 119.916 168.197C120.01 167.853 120.119 167.486 120.244 167.095C120.369 166.704 120.494 166.321 120.619 165.946L123.035 158.982H124.535L126.857 165.899C126.951 166.181 127.044 166.47 127.138 166.767C127.232 167.064 127.318 167.361 127.396 167.658C127.49 167.955 127.568 168.228 127.631 168.479C127.693 168.729 127.74 168.94 127.771 169.112H127.842C127.889 168.846 127.951 168.564 128.029 168.267C128.107 167.955 128.193 167.611 128.287 167.236C128.397 166.845 128.522 166.415 128.662 165.946L129.811 162.265C129.874 162.061 129.921 161.85 129.952 161.631C129.999 161.397 130.022 161.217 130.022 161.092C130.022 160.686 129.89 160.396 129.624 160.224C129.374 160.037 128.991 159.943 128.475 159.943H128.311V158.888H133.423V159.943H133.118C132.821 159.943 132.571 159.99 132.367 160.084C132.164 160.162 131.984 160.334 131.828 160.6C131.672 160.865 131.515 161.256 131.359 161.772L128.334 171.457H126.271L123.246 162.218L120.08 171.457H118.04L114.992 161.186ZM140.278 171.691C138.496 171.691 137.112 171.128 136.127 170.003C135.158 168.877 134.674 167.298 134.674 165.266C134.674 163.062 135.143 161.405 136.081 160.295C137.018 159.185 138.339 158.63 140.043 158.63C141.607 158.63 142.834 159.107 143.725 160.06C144.632 160.998 145.085 162.397 145.085 164.258V165.36H137.323C137.355 166.47 137.495 167.384 137.745 168.103C138.011 168.807 138.386 169.323 138.871 169.651C139.371 169.979 139.981 170.143 140.7 170.143C141.247 170.143 141.732 170.065 142.154 169.909C142.592 169.737 142.967 169.526 143.279 169.276C143.608 169.01 143.866 168.729 144.053 168.432C144.194 168.494 144.311 168.604 144.405 168.76C144.499 168.916 144.546 169.104 144.546 169.323C144.546 169.667 144.389 170.026 144.077 170.401C143.78 170.761 143.311 171.066 142.67 171.316C142.044 171.566 141.247 171.691 140.278 171.691ZM142.388 164.023C142.388 163.21 142.31 162.499 142.154 161.889C141.997 161.28 141.747 160.811 141.403 160.482C141.06 160.138 140.598 159.967 140.02 159.967C139.488 159.967 139.027 160.123 138.636 160.436C138.261 160.748 137.964 161.209 137.745 161.819C137.542 162.413 137.417 163.148 137.37 164.023H142.388ZM157.083 171.691C156.396 171.691 155.77 171.558 155.208 171.292C154.66 171.011 154.231 170.597 153.918 170.05C153.605 169.487 153.449 168.776 153.449 167.916C153.449 166.665 153.887 165.743 154.762 165.149C155.637 164.539 156.974 164.203 158.772 164.14L160.695 164.07V162.71C160.695 162.147 160.648 161.655 160.554 161.233C160.476 160.811 160.296 160.482 160.015 160.248C159.733 159.998 159.303 159.873 158.725 159.873C158.178 159.873 157.756 159.982 157.459 160.201C157.177 160.42 156.982 160.725 156.872 161.116C156.779 161.491 156.732 161.928 156.732 162.429C155.981 162.429 155.411 162.319 155.02 162.1C154.629 161.866 154.434 161.475 154.434 160.928C154.434 160.365 154.629 159.92 155.02 159.591C155.426 159.263 155.958 159.021 156.615 158.864C157.287 158.708 158.021 158.63 158.819 158.63C160.304 158.63 161.414 158.935 162.148 159.544C162.899 160.154 163.274 161.194 163.274 162.663V168.713C163.274 169.151 163.321 169.495 163.415 169.745C163.509 169.979 163.665 170.151 163.884 170.261C164.103 170.354 164.384 170.401 164.728 170.401H164.798V171.457H161.304L160.906 169.557H160.695C160.366 169.979 160.046 170.354 159.733 170.683C159.421 170.995 159.061 171.246 158.655 171.433C158.248 171.605 157.724 171.691 157.083 171.691ZM157.834 170.167C158.428 170.167 158.936 170.042 159.358 169.792C159.78 169.526 160.108 169.151 160.343 168.666C160.577 168.181 160.695 167.619 160.695 166.978V165.125L159.311 165.196C158.498 165.227 157.857 165.36 157.388 165.594C156.919 165.813 156.583 166.126 156.38 166.532C156.192 166.939 156.099 167.439 156.099 168.033C156.099 168.502 156.161 168.901 156.286 169.229C156.411 169.542 156.599 169.776 156.849 169.932C157.115 170.089 157.443 170.167 157.834 170.167ZM166.422 171.457V170.401H166.492C166.852 170.401 167.172 170.362 167.454 170.284C167.751 170.206 167.977 170.05 168.134 169.815C168.306 169.565 168.392 169.198 168.392 168.713V161.538C168.392 161.069 168.306 160.725 168.134 160.506C167.962 160.271 167.735 160.123 167.454 160.06C167.188 159.982 166.883 159.943 166.539 159.943H166.469V158.888H170.385L170.83 161.069H170.948C171.151 160.6 171.37 160.185 171.604 159.826C171.854 159.451 172.175 159.161 172.566 158.958C172.972 158.739 173.511 158.63 174.183 158.63C175.059 158.63 175.708 158.786 176.13 159.099C176.552 159.412 176.763 159.849 176.763 160.412C176.763 160.959 176.567 161.405 176.177 161.749C175.801 162.077 175.2 162.241 174.371 162.241C174.371 161.803 174.332 161.452 174.254 161.186C174.176 160.904 174.051 160.701 173.879 160.576C173.707 160.436 173.464 160.365 173.152 160.365C172.73 160.365 172.37 160.529 172.073 160.858C171.792 161.186 171.573 161.6 171.417 162.1C171.26 162.601 171.143 163.117 171.065 163.648C171.002 164.18 170.971 164.649 170.971 165.055V168.83C170.971 169.284 171.057 169.628 171.229 169.862C171.401 170.081 171.62 170.229 171.885 170.308C172.167 170.37 172.48 170.401 172.823 170.401H173.503V171.457H166.422ZM183.97 171.691C182.188 171.691 180.804 171.128 179.819 170.003C178.85 168.877 178.366 167.298 178.366 165.266C178.366 163.062 178.835 161.405 179.773 160.295C180.711 159.185 182.032 158.63 183.735 158.63C185.299 158.63 186.526 159.107 187.417 160.06C188.324 160.998 188.777 162.397 188.777 164.258V165.36H181.015C181.047 166.47 181.187 167.384 181.437 168.103C181.703 168.807 182.078 169.323 182.563 169.651C183.063 169.979 183.673 170.143 184.392 170.143C184.939 170.143 185.424 170.065 185.846 169.909C186.284 169.737 186.659 169.526 186.971 169.276C187.3 169.01 187.558 168.729 187.745 168.432C187.886 168.494 188.003 168.604 188.097 168.76C188.191 168.916 188.238 169.104 188.238 169.323C188.238 169.667 188.081 170.026 187.769 170.401C187.472 170.761 187.003 171.066 186.362 171.316C185.736 171.566 184.939 171.691 183.97 171.691ZM186.08 164.023C186.08 163.21 186.002 162.499 185.846 161.889C185.69 161.28 185.439 160.811 185.096 160.482C184.752 160.138 184.29 159.967 183.712 159.967C183.181 159.967 182.719 160.123 182.329 160.436C181.953 160.748 181.656 161.209 181.437 161.819C181.234 162.413 181.109 163.148 181.062 164.023H186.08ZM201.432 177.084C199.759 177.084 198.501 176.787 197.657 176.193C196.813 175.615 196.391 174.786 196.391 173.708C196.391 173.114 196.523 172.613 196.789 172.207C197.055 171.8 197.415 171.48 197.868 171.246C198.321 171.011 198.829 170.855 199.392 170.777C199.048 170.636 198.728 170.401 198.431 170.073C198.134 169.745 197.985 169.323 197.985 168.807C197.985 168.322 198.126 167.908 198.407 167.564C198.689 167.204 199.111 166.861 199.673 166.532C198.986 166.266 198.446 165.813 198.056 165.172C197.665 164.531 197.469 163.797 197.469 162.968C197.469 161.624 197.844 160.568 198.595 159.802C199.361 159.021 200.502 158.63 202.018 158.63C202.581 158.63 203.105 158.708 203.589 158.864C204.09 159.021 204.465 159.201 204.715 159.404C204.918 159.185 205.129 158.982 205.348 158.794C205.583 158.591 205.841 158.427 206.122 158.302C206.403 158.177 206.708 158.114 207.036 158.114C207.537 158.114 207.904 158.239 208.139 158.489C208.389 158.739 208.514 159.029 208.514 159.357C208.514 159.701 208.412 159.998 208.209 160.248C208.006 160.498 207.654 160.623 207.154 160.623C207.154 160.404 207.091 160.209 206.966 160.037C206.841 159.865 206.638 159.779 206.356 159.779C206.169 159.779 205.997 159.802 205.841 159.849C205.684 159.896 205.536 159.959 205.395 160.037C205.676 160.381 205.911 160.787 206.099 161.256C206.286 161.725 206.38 162.28 206.38 162.921C206.38 164.094 206.02 165.063 205.301 165.829C204.598 166.595 203.503 166.978 202.018 166.978C201.831 166.978 201.604 166.97 201.338 166.954C201.088 166.923 200.893 166.892 200.752 166.861C200.471 167.001 200.228 167.189 200.025 167.423C199.822 167.642 199.72 167.924 199.72 168.267C199.72 168.549 199.814 168.76 200.002 168.901C200.189 169.041 200.549 169.112 201.08 169.112H203.777C204.746 169.112 205.52 169.268 206.099 169.581C206.693 169.878 207.122 170.292 207.388 170.823C207.67 171.339 207.81 171.949 207.81 172.652C207.81 174.012 207.294 175.091 206.263 175.888C205.231 176.686 203.621 177.084 201.432 177.084ZM201.479 175.865C202.558 175.865 203.394 175.748 203.988 175.513C204.598 175.294 205.028 174.982 205.278 174.575C205.528 174.169 205.653 173.7 205.653 173.168C205.653 172.512 205.458 172.066 205.067 171.832C204.692 171.597 204.137 171.48 203.402 171.48H200.987C200.58 171.48 200.189 171.535 199.814 171.644C199.439 171.754 199.126 171.957 198.876 172.254C198.642 172.551 198.524 172.996 198.524 173.59C198.524 174.028 198.618 174.419 198.806 174.763C198.993 175.107 199.298 175.373 199.72 175.56C200.158 175.763 200.744 175.865 201.479 175.865ZM201.948 165.782C202.433 165.782 202.816 165.68 203.097 165.477C203.394 165.258 203.597 164.938 203.707 164.516C203.832 164.078 203.894 163.539 203.894 162.898C203.894 162.225 203.832 161.663 203.707 161.209C203.582 160.756 203.371 160.42 203.074 160.201C202.792 159.967 202.409 159.849 201.925 159.849C201.456 159.849 201.073 159.967 200.776 160.201C200.494 160.436 200.283 160.779 200.142 161.233C200.017 161.686 199.955 162.249 199.955 162.921C199.955 163.546 200.017 164.07 200.142 164.492C200.283 164.914 200.502 165.235 200.799 165.454C201.096 165.672 201.479 165.782 201.948 165.782ZM209.427 171.457V170.401H209.497C209.857 170.401 210.177 170.362 210.459 170.284C210.756 170.206 210.982 170.05 211.139 169.815C211.311 169.565 211.397 169.198 211.397 168.713V161.538C211.397 161.069 211.311 160.725 211.139 160.506C210.967 160.271 210.74 160.123 210.459 160.06C210.193 159.982 209.888 159.943 209.544 159.943H209.474V158.888H213.39L213.835 161.069H213.953C214.156 160.6 214.375 160.185 214.609 159.826C214.859 159.451 215.18 159.161 215.571 158.958C215.977 158.739 216.516 158.63 217.189 158.63C218.064 158.63 218.713 158.786 219.135 159.099C219.557 159.412 219.768 159.849 219.768 160.412C219.768 160.959 219.573 161.405 219.182 161.749C218.807 162.077 218.205 162.241 217.376 162.241C217.376 161.803 217.337 161.452 217.259 161.186C217.181 160.904 217.056 160.701 216.884 160.576C216.712 160.436 216.47 160.365 216.157 160.365C215.735 160.365 215.375 160.529 215.078 160.858C214.797 161.186 214.578 161.6 214.422 162.1C214.265 162.601 214.148 163.117 214.07 163.648C214.007 164.18 213.976 164.649 213.976 165.055V168.83C213.976 169.284 214.062 169.628 214.234 169.862C214.406 170.081 214.625 170.229 214.891 170.308C215.172 170.37 215.485 170.401 215.829 170.401H216.509V171.457H209.427ZM224.454 171.691C223.766 171.691 223.14 171.558 222.578 171.292C222.031 171.011 221.601 170.597 221.288 170.05C220.975 169.487 220.819 168.776 220.819 167.916C220.819 166.665 221.257 165.743 222.132 165.149C223.008 164.539 224.344 164.203 226.142 164.14L228.065 164.07V162.71C228.065 162.147 228.018 161.655 227.924 161.233C227.846 160.811 227.666 160.482 227.385 160.248C227.103 159.998 226.673 159.873 226.095 159.873C225.548 159.873 225.126 159.982 224.829 160.201C224.547 160.42 224.352 160.725 224.243 161.116C224.149 161.491 224.102 161.928 224.102 162.429C223.351 162.429 222.781 162.319 222.39 162.1C221.999 161.866 221.804 161.475 221.804 160.928C221.804 160.365 221.999 159.92 222.39 159.591C222.797 159.263 223.328 159.021 223.985 158.864C224.657 158.708 225.392 158.63 226.189 158.63C227.674 158.63 228.784 158.935 229.519 159.544C230.269 160.154 230.644 161.194 230.644 162.663V168.713C230.644 169.151 230.691 169.495 230.785 169.745C230.879 169.979 231.035 170.151 231.254 170.261C231.473 170.354 231.754 170.401 232.098 170.401H232.168V171.457H228.674L228.276 169.557H228.065C227.736 169.979 227.416 170.354 227.103 170.683C226.791 170.995 226.431 171.246 226.025 171.433C225.618 171.605 225.095 171.691 224.454 171.691ZM225.204 170.167C225.798 170.167 226.306 170.042 226.728 169.792C227.15 169.526 227.479 169.151 227.713 168.666C227.947 168.181 228.065 167.619 228.065 166.978V165.125L226.681 165.196C225.868 165.227 225.227 165.36 224.758 165.594C224.289 165.813 223.953 166.126 223.75 166.532C223.563 166.939 223.469 167.439 223.469 168.033C223.469 168.502 223.531 168.901 223.656 169.229C223.781 169.542 223.969 169.776 224.219 169.932C224.485 170.089 224.813 170.167 225.204 170.167ZM238.763 171.691C237.606 171.691 236.747 171.425 236.184 170.894C235.621 170.347 235.34 169.393 235.34 168.033V160.295H233.581V159.287C233.909 159.287 234.253 159.216 234.613 159.075C234.972 158.935 235.277 158.732 235.527 158.466C235.793 158.2 236.012 157.872 236.184 157.481C236.356 157.074 236.496 156.582 236.606 156.004H237.919V158.888H240.967V160.295H237.919V168.033C237.919 168.799 238.067 169.362 238.365 169.721C238.677 170.081 239.107 170.261 239.654 170.261C239.936 170.261 240.194 170.245 240.428 170.214C240.678 170.182 240.928 170.143 241.178 170.097V171.269C240.975 171.363 240.647 171.457 240.194 171.55C239.74 171.644 239.263 171.691 238.763 171.691ZM248.569 171.691C246.787 171.691 245.404 171.128 244.419 170.003C243.45 168.877 242.965 167.298 242.965 165.266C242.965 163.062 243.434 161.405 244.372 160.295C245.31 159.185 246.631 158.63 248.335 158.63C249.898 158.63 251.125 159.107 252.016 160.06C252.923 160.998 253.376 162.397 253.376 164.258V165.36H245.615C245.646 166.47 245.787 167.384 246.037 168.103C246.302 168.807 246.678 169.323 247.162 169.651C247.663 169.979 248.272 170.143 248.991 170.143C249.538 170.143 250.023 170.065 250.445 169.909C250.883 169.737 251.258 169.526 251.571 169.276C251.899 169.01 252.157 168.729 252.345 168.432C252.485 168.494 252.602 168.604 252.696 168.76C252.79 168.916 252.837 169.104 252.837 169.323C252.837 169.667 252.681 170.026 252.368 170.401C252.071 170.761 251.602 171.066 250.961 171.316C250.336 171.566 249.538 171.691 248.569 171.691ZM250.68 164.023C250.68 163.21 250.601 162.499 250.445 161.889C250.289 161.28 250.039 160.811 249.695 160.482C249.351 160.138 248.89 159.967 248.311 159.967C247.78 159.967 247.319 160.123 246.928 160.436C246.553 160.748 246.256 161.209 246.037 161.819C245.833 162.413 245.708 163.148 245.662 164.023H250.68ZM255.086 171.457V170.401H255.438C255.766 170.401 256.071 170.362 256.352 170.284C256.634 170.206 256.861 170.05 257.032 169.815C257.204 169.581 257.29 169.229 257.29 168.76V160.131H255.18V158.888H257.29V157.809C257.29 156.387 257.666 155.3 258.416 154.55C259.166 153.784 260.237 153.401 261.628 153.401C262.488 153.401 263.168 153.479 263.669 153.635C264.169 153.776 264.528 153.971 264.747 154.222C264.966 154.456 265.076 154.737 265.076 155.066C265.076 155.363 264.982 155.613 264.794 155.816C264.622 156.019 264.372 156.176 264.044 156.285C263.731 156.394 263.348 156.449 262.895 156.449C262.895 156.152 262.848 155.855 262.754 155.558C262.66 155.261 262.512 155.019 262.309 154.831C262.105 154.644 261.816 154.55 261.441 154.55C260.847 154.55 260.433 154.8 260.198 155.3C259.979 155.785 259.87 156.527 259.87 157.528V158.888H263.153V160.131H259.87V168.76C259.87 169.229 259.956 169.581 260.128 169.815C260.315 170.05 260.55 170.206 260.831 170.284C261.113 170.362 261.41 170.401 261.722 170.401H262.684V171.457H255.086ZM269.693 171.691C268.458 171.691 267.504 171.324 266.832 170.589C266.175 169.854 265.847 168.682 265.847 167.072V161.561C265.847 161.092 265.761 160.748 265.589 160.529C265.433 160.295 265.214 160.138 264.933 160.06C264.667 159.982 264.362 159.943 264.018 159.943H263.948V158.888H268.427V166.814C268.427 167.486 268.489 168.064 268.614 168.549C268.755 169.033 268.989 169.409 269.318 169.674C269.661 169.925 270.123 170.05 270.701 170.05C271.326 170.05 271.842 169.893 272.249 169.581C272.655 169.268 272.952 168.83 273.14 168.267C273.327 167.705 273.421 167.056 273.421 166.321V161.585C273.421 161.1 273.335 160.74 273.163 160.506C273.007 160.271 272.788 160.123 272.507 160.06C272.225 159.982 271.913 159.943 271.569 159.943H271.498V158.888H276.001V168.854C276.001 169.307 276.079 169.651 276.235 169.885C276.407 170.104 276.634 170.245 276.915 170.308C277.196 170.37 277.501 170.401 277.83 170.401H277.923V171.457H273.937L273.585 169.628H273.468C273.234 170.05 272.968 170.401 272.671 170.683C272.389 170.948 272.092 171.16 271.78 171.316C271.467 171.457 271.131 171.55 270.771 171.597C270.427 171.66 270.068 171.691 269.693 171.691ZM278.804 171.457V170.401H279.109C279.437 170.401 279.742 170.362 280.023 170.284C280.305 170.206 280.531 170.05 280.703 169.815C280.875 169.581 280.961 169.229 280.961 168.76V156.238C280.961 155.785 280.867 155.449 280.68 155.23C280.508 155.011 280.281 154.87 280 154.808C279.718 154.73 279.421 154.691 279.109 154.691H278.804V153.635H283.541V168.76C283.541 169.229 283.627 169.581 283.799 169.815C283.971 170.05 284.197 170.206 284.479 170.284C284.776 170.362 285.08 170.401 285.393 170.401H285.675V171.457H278.804ZM289.104 171.621C288.667 171.621 288.291 171.503 287.979 171.269C287.666 171.019 287.51 170.581 287.51 169.956C287.51 169.315 287.666 168.877 287.979 168.643C288.291 168.408 288.667 168.291 289.104 168.291C289.542 168.291 289.917 168.408 290.23 168.643C290.543 168.877 290.699 169.315 290.699 169.956C290.699 170.581 290.543 171.019 290.23 171.269C289.917 171.503 289.542 171.621 289.104 171.621Z" fill="black"/>
</svg>
