<svg width="325" height="40" viewBox="0 0 325 40" fill="none" xmlns="http://www.w3.org/2000/svg">
<g clip-path="url(#clip0_413_2561)">
<rect x="0.359375" y="0.21582" width="324.378" height="39.0817" fill="white"/>
<rect x="21.2031" y="11.9404" width="20.8436" height="15.6327" rx="1.56327" stroke="#630600" stroke-width="3.12653"/>
<path d="M21.2031 15.8486L30.9258 20.71C31.3659 20.93 31.8839 20.93 32.324 20.71L42.0467 15.8486" stroke="#630600" stroke-width="3.12653"/>
<path d="M68.0494 26.5682C67.2365 26.5682 66.5049 26.4244 65.8546 26.1368C65.2168 25.8366 64.7103 25.4364 64.3351 24.9362C63.9599 24.4234 63.7598 23.8544 63.7348 23.2291H65.9484C65.9859 23.6668 66.1922 24.0358 66.5674 24.3359C66.9551 24.6235 67.4366 24.7674 68.0119 24.7674C68.6122 24.7674 69.0749 24.6548 69.4001 24.4297C69.7377 24.1921 69.9066 23.8919 69.9066 23.5293C69.9066 23.1416 69.719 22.8539 69.3438 22.6663C68.9811 22.4787 68.3996 22.2724 67.5992 22.0473C66.8238 21.8347 66.1922 21.6283 65.7045 21.4282C65.2168 21.2281 64.7916 20.9217 64.4289 20.509C64.0787 20.0963 63.9036 19.5523 63.9036 18.877C63.9036 18.3267 64.0662 17.8265 64.3914 17.3762C64.7165 16.9135 65.1792 16.5508 65.7795 16.2882C66.3923 16.0256 67.0927 15.8943 67.8806 15.8943C69.0561 15.8943 70.0004 16.1944 70.7132 16.7947C71.4386 17.3825 71.8263 18.1891 71.8763 19.2146H69.7377C69.7002 18.7519 69.5126 18.383 69.175 18.1078C68.8373 17.8327 68.3808 17.6951 67.8055 17.6951C67.2428 17.6951 66.8113 17.8014 66.5112 18.0141C66.211 18.2267 66.0609 18.508 66.0609 18.8582C66.0609 19.1333 66.161 19.3647 66.3611 19.5523C66.5612 19.7399 66.805 19.89 67.0927 20.0025C67.3803 20.1026 67.8055 20.2339 68.3683 20.3965C69.1187 20.5966 69.7315 20.8029 70.2067 21.0155C70.6945 21.2156 71.1134 21.5158 71.4636 21.916C71.8138 22.3162 71.9951 22.8477 72.0076 23.5105C72.0076 24.0983 71.845 24.6235 71.5199 25.0863C71.1947 25.549 70.732 25.9117 70.1317 26.1743C69.5439 26.4369 68.8498 26.5682 68.0494 26.5682ZM75.4064 14.6937C75.0187 14.6937 74.6935 14.5624 74.4309 14.2997C74.1683 14.0371 74.037 13.7119 74.037 13.3243C74.037 12.9366 74.1683 12.6114 74.4309 12.3488C74.6935 12.0861 75.0187 11.9548 75.4064 11.9548C75.7816 11.9548 76.1005 12.0861 76.3631 12.3488C76.6257 12.6114 76.757 12.9366 76.757 13.3243C76.757 13.7119 76.6257 14.0371 76.3631 14.2997C76.1005 14.5624 75.7816 14.6937 75.4064 14.6937ZM76.4569 16.0631V26.3994H74.3183V16.0631H76.4569ZM81.4032 17.5638C81.7158 17.0386 82.1285 16.6321 82.6413 16.3445C83.1665 16.0443 83.7856 15.8943 84.4984 15.8943V18.1078H83.9544C83.1165 18.1078 82.4787 18.3205 82.041 18.7457C81.6158 19.1709 81.4032 19.9087 81.4032 20.9592V26.3994H79.2646V16.0631H81.4032V17.5638ZM87.5522 14.6937C87.1645 14.6937 86.8394 14.5624 86.5768 14.2997C86.3141 14.0371 86.1828 13.7119 86.1828 13.3243C86.1828 12.9366 86.3141 12.6114 86.5768 12.3488C86.8394 12.0861 87.1645 11.9548 87.5522 11.9548C87.9274 11.9548 88.2463 12.0861 88.509 12.3488C88.7716 12.6114 88.9029 12.9366 88.9029 13.3243C88.9029 13.7119 88.7716 14.0371 88.509 14.2997C88.2463 14.5624 87.9274 14.6937 87.5522 14.6937ZM88.6027 16.0631V26.3994H86.4642V16.0631H88.6027ZM92.2734 26.5307C91.8857 26.5307 91.5605 26.3994 91.2979 26.1368C91.0353 25.8742 90.904 25.549 90.904 25.1613C90.904 24.7736 91.0353 24.4485 91.2979 24.1858C91.5605 23.9232 91.8857 23.7919 92.2734 23.7919C92.6486 23.7919 92.9675 23.9232 93.2301 24.1858C93.4927 24.4485 93.6241 24.7736 93.6241 25.1613C93.6241 25.549 93.4927 25.8742 93.2301 26.1368C92.9675 26.3994 92.6486 26.5307 92.2734 26.5307ZM101.15 15.8943C101.963 15.8943 102.689 16.0631 103.327 16.4008C103.977 16.7384 104.483 17.2387 104.846 17.9015C105.209 18.5643 105.39 19.3647 105.39 20.3027V26.3994H103.27V20.6216C103.27 19.6961 103.039 18.9895 102.576 18.5018C102.113 18.0015 101.482 17.7514 100.681 17.7514C99.8811 17.7514 99.2433 18.0015 98.768 18.5018C98.3053 18.9895 98.0739 19.6961 98.0739 20.6216V26.3994H95.9354V16.0631H98.0739V17.2449C98.4241 16.8197 98.8681 16.4883 99.4059 16.2507C99.9561 16.0131 100.538 15.8943 101.15 15.8943ZM112.601 26.5682C111.626 26.5682 110.744 26.3494 109.956 25.9117C109.168 25.4615 108.549 24.8361 108.099 24.0358C107.649 23.2229 107.424 22.2849 107.424 21.2219C107.424 20.1714 107.655 19.2397 108.118 18.4268C108.581 17.6139 109.212 16.9885 110.013 16.5508C110.813 16.1131 111.707 15.8943 112.695 15.8943C113.683 15.8943 114.577 16.1131 115.378 16.5508C116.178 16.9885 116.81 17.6139 117.272 18.4268C117.735 19.2397 117.966 20.1714 117.966 21.2219C117.966 22.2724 117.729 23.2041 117.254 24.017C116.778 24.8299 116.128 25.4615 115.303 25.9117C114.49 26.3494 113.589 26.5682 112.601 26.5682ZM112.601 24.7111C113.152 24.7111 113.664 24.5798 114.14 24.3171C114.627 24.0545 115.021 23.6606 115.321 23.1353C115.622 22.6101 115.772 21.9722 115.772 21.2219C115.772 20.4715 115.628 19.8399 115.34 19.3272C115.053 18.8019 114.671 18.408 114.196 18.1454C113.721 17.8827 113.208 17.7514 112.658 17.7514C112.107 17.7514 111.595 17.8827 111.119 18.1454C110.657 18.408 110.288 18.8019 110.013 19.3272C109.737 19.8399 109.6 20.4715 109.6 21.2219C109.6 22.3349 109.881 23.1978 110.444 23.8106C111.019 24.4109 111.738 24.7111 112.601 24.7111ZM125.296 15.8943C126.108 15.8943 126.834 16.0631 127.472 16.4008C128.122 16.7384 128.628 17.2387 128.991 17.9015C129.354 18.5643 129.535 19.3647 129.535 20.3027V26.3994H127.415V20.6216C127.415 19.6961 127.184 18.9895 126.721 18.5018C126.259 18.0015 125.627 17.7514 124.827 17.7514C124.026 17.7514 123.388 18.0015 122.913 18.5018C122.45 18.9895 122.219 19.6961 122.219 20.6216V26.3994H120.081V16.0631H122.219V17.2449C122.569 16.8197 123.013 16.4883 123.551 16.2507C124.101 16.0131 124.683 15.8943 125.296 15.8943ZM134.402 17.5826C134.764 17.1074 135.258 16.7072 135.884 16.382C136.509 16.0568 137.215 15.8943 138.003 15.8943C138.904 15.8943 139.723 16.1194 140.461 16.5696C141.211 17.0073 141.799 17.6264 142.224 18.4268C142.649 19.2271 142.862 20.1463 142.862 21.1844C142.862 22.2224 142.649 23.1541 142.224 23.9795C141.799 24.7924 141.211 25.4302 140.461 25.8929C139.723 26.3431 138.904 26.5682 138.003 26.5682C137.215 26.5682 136.515 26.4119 135.902 26.0993C135.29 25.7741 134.789 25.3739 134.402 24.8987V31.3143H132.263V16.0631H134.402V17.5826ZM140.686 21.1844C140.686 20.4715 140.536 19.8587 140.236 19.346C139.948 18.8207 139.56 18.4268 139.073 18.1641C138.597 17.889 138.085 17.7514 137.534 17.7514C136.997 17.7514 136.484 17.889 135.996 18.1641C135.521 18.4393 135.133 18.8395 134.833 19.3647C134.545 19.89 134.402 20.509 134.402 21.2219C134.402 21.9347 134.545 22.56 134.833 23.0978C135.133 23.6231 135.521 24.0232 135.996 24.2984C136.484 24.5735 136.997 24.7111 137.534 24.7111C138.085 24.7111 138.597 24.5735 139.073 24.2984C139.56 24.0107 139.948 23.598 140.236 23.0603C140.536 22.5225 140.686 21.8972 140.686 21.1844ZM147.115 17.5638C147.428 17.0386 147.841 16.6321 148.353 16.3445C148.879 16.0443 149.498 15.8943 150.211 15.8943V18.1078H149.667C148.829 18.1078 148.191 18.3205 147.753 18.7457C147.328 19.1709 147.115 19.9087 147.115 20.9592V26.3994H144.977V16.0631H147.115V17.5638ZM156.66 26.5682C155.684 26.5682 154.803 26.3494 154.015 25.9117C153.227 25.4615 152.608 24.8361 152.158 24.0358C151.707 23.2229 151.482 22.2849 151.482 21.2219C151.482 20.1714 151.714 19.2397 152.176 18.4268C152.639 17.6139 153.271 16.9885 154.071 16.5508C154.871 16.1131 155.766 15.8943 156.754 15.8943C157.742 15.8943 158.636 16.1131 159.436 16.5508C160.237 16.9885 160.868 17.6139 161.331 18.4268C161.794 19.2397 162.025 20.1714 162.025 21.2219C162.025 22.2724 161.787 23.2041 161.312 24.017C160.837 24.8299 160.187 25.4615 159.361 25.9117C158.548 26.3494 157.648 26.5682 156.66 26.5682ZM156.66 24.7111C157.21 24.7111 157.723 24.5798 158.198 24.3171C158.686 24.0545 159.08 23.6606 159.38 23.1353C159.68 22.6101 159.83 21.9722 159.83 21.2219C159.83 20.4715 159.686 19.8399 159.399 19.3272C159.111 18.8019 158.73 18.408 158.254 18.1454C157.779 17.8827 157.266 17.7514 156.716 17.7514C156.166 17.7514 155.653 17.8827 155.178 18.1454C154.715 18.408 154.346 18.8019 154.071 19.3272C153.796 19.8399 153.658 20.4715 153.658 21.2219C153.658 22.3349 153.94 23.1978 154.503 23.8106C155.078 24.4109 155.797 24.7111 156.66 24.7111ZM168.472 17.8077H166.559V26.3994H164.402V17.8077H163.182V16.0631H164.402V15.3315C164.402 14.1434 164.714 13.2805 165.34 12.7427C165.977 12.1924 166.972 11.9173 168.322 11.9173V13.6994C167.672 13.6994 167.216 13.8245 166.953 14.0746C166.69 14.3122 166.559 14.7312 166.559 15.3315V16.0631H168.472V17.8077ZM171.456 14.6937C171.068 14.6937 170.743 14.5624 170.48 14.2997C170.218 14.0371 170.086 13.7119 170.086 13.3243C170.086 12.9366 170.218 12.6114 170.48 12.3488C170.743 12.0861 171.068 11.9548 171.456 11.9548C171.831 11.9548 172.15 12.0861 172.412 12.3488C172.675 12.6114 172.806 12.9366 172.806 13.3243C172.806 13.7119 172.675 14.0371 172.412 14.2997C172.15 14.5624 171.831 14.6937 171.456 14.6937ZM172.506 16.0631V26.3994H170.368V16.0631H172.506ZM177.809 17.8077V23.5293C177.809 23.9169 177.896 24.1983 178.072 24.3734C178.259 24.536 178.572 24.6173 179.009 24.6173H180.323V26.3994H178.634C177.671 26.3994 176.933 26.1743 176.421 25.7241C175.908 25.2739 175.652 24.5423 175.652 23.5293V17.8077H174.432V16.0631H175.652V13.4931H177.809V16.0631H180.323V17.8077H177.809ZM191.917 14.281C193.343 14.281 194.575 14.5436 195.613 15.0689C196.651 15.5941 197.439 16.332 197.976 17.2824C198.527 18.2204 198.802 19.3147 198.802 20.5653C198.802 21.5658 198.627 22.5225 198.277 23.4355C197.939 24.3484 197.445 25.0925 196.795 25.6678C196.157 26.2431 195.4 26.5307 194.525 26.5307C193.887 26.5307 193.387 26.3932 193.024 26.118C192.661 25.8304 192.436 25.4302 192.349 24.9174C191.961 25.4177 191.473 25.8116 190.885 26.0993C190.298 26.3869 189.685 26.5307 189.047 26.5307C188.084 26.5307 187.327 26.2431 186.777 25.6678C186.239 25.08 185.97 24.2859 185.97 23.2854C185.97 22.3349 186.164 21.447 186.552 20.6216C186.952 19.7962 187.509 19.1396 188.222 18.6519C188.934 18.1516 189.735 17.9015 190.623 17.9015C191.711 17.9015 192.474 18.2704 192.911 19.0083L193.08 18.0703H194.937L193.999 23.4355C193.962 23.6981 193.943 23.9295 193.943 24.1296C193.943 24.4547 194.006 24.6986 194.131 24.8612C194.268 25.0237 194.506 25.105 194.844 25.105C195.319 25.105 195.725 24.8737 196.063 24.4109C196.401 23.9357 196.651 23.3542 196.813 22.6663C196.988 21.9785 197.076 21.3094 197.076 20.6591C197.076 19.0708 196.613 17.8577 195.688 17.0198C194.762 16.1819 193.418 15.7629 191.655 15.7629C190.179 15.7629 188.853 16.1131 187.678 16.8135C186.514 17.5138 185.602 18.4768 184.939 19.7024C184.276 20.928 183.944 22.2911 183.944 23.7919C183.944 25.3927 184.42 26.612 185.37 27.4499C186.321 28.2878 187.678 28.7068 189.441 28.7068C190.629 28.7068 191.667 28.4879 192.555 28.0502L192.836 29.4759C191.698 29.9637 190.423 30.2075 189.009 30.2075C187.646 30.2075 186.452 29.9512 185.426 29.4384C184.401 28.9257 183.607 28.194 183.044 27.2436C182.481 26.3056 182.2 25.2113 182.2 23.9607C182.2 22.1723 182.613 20.5403 183.438 19.0646C184.276 17.5888 185.433 16.4258 186.908 15.5754C188.384 14.7124 190.054 14.281 191.917 14.281ZM189.704 24.8799C190.229 24.8799 190.704 24.7298 191.129 24.4297C191.567 24.117 191.911 23.7106 192.161 23.2103C192.411 22.6976 192.536 22.1536 192.536 21.5783C192.536 20.978 192.367 20.4903 192.03 20.1151C191.705 19.7274 191.242 19.5335 190.642 19.5335C190.104 19.5335 189.629 19.7024 189.216 20.04C188.816 20.3652 188.503 20.7904 188.278 21.3157C188.065 21.8409 187.959 22.3912 187.959 22.9665C187.959 23.5543 188.103 24.0232 188.39 24.3734C188.678 24.7111 189.116 24.8799 189.704 24.8799ZM205.694 15.8943C206.494 15.8943 207.201 16.0568 207.814 16.382C208.439 16.6947 208.927 17.0886 209.277 17.5638V16.0631H211.434V26.5682C211.434 27.5187 211.234 28.3629 210.834 29.1007C210.434 29.8511 209.852 30.4389 209.089 30.8641C208.339 31.2893 207.438 31.5019 206.388 31.5019C204.987 31.5019 203.824 31.1705 202.899 30.5077C201.973 29.8574 201.448 28.9694 201.323 27.8439H203.443C203.605 28.3816 203.949 28.8131 204.474 29.1383C205.012 29.4759 205.65 29.6448 206.388 29.6448C207.251 29.6448 207.945 29.3821 208.47 28.8569C209.008 28.3316 209.277 27.5687 209.277 26.5682V24.8424C208.914 25.3301 208.42 25.7428 207.795 26.0805C207.182 26.4057 206.482 26.5682 205.694 26.5682C204.793 26.5682 203.968 26.3431 203.218 25.8929C202.48 25.4302 201.892 24.7924 201.454 23.9795C201.029 23.1541 200.816 22.2224 200.816 21.1844C200.816 20.1463 201.029 19.2271 201.454 18.4268C201.892 17.6264 202.48 17.0073 203.218 16.5696C203.968 16.1194 204.793 15.8943 205.694 15.8943ZM209.277 21.2219C209.277 20.509 209.127 19.89 208.827 19.3647C208.539 18.8395 208.157 18.4393 207.682 18.1641C207.207 17.889 206.694 17.7514 206.144 17.7514C205.594 17.7514 205.081 17.889 204.606 18.1641C204.13 18.4268 203.743 18.8207 203.443 19.346C203.155 19.8587 203.011 20.4715 203.011 21.1844C203.011 21.8972 203.155 22.5225 203.443 23.0603C203.743 23.598 204.13 24.0107 204.606 24.2984C205.093 24.5735 205.606 24.7111 206.144 24.7111C206.694 24.7111 207.207 24.5735 207.682 24.2984C208.157 24.0232 208.539 23.6231 208.827 23.0978C209.127 22.56 209.277 21.9347 209.277 21.2219ZM226.755 15.8943C227.568 15.8943 228.294 16.0631 228.931 16.4008C229.582 16.7384 230.088 17.2387 230.451 17.9015C230.826 18.5643 231.014 19.3647 231.014 20.3027V26.3994H228.894V20.6216C228.894 19.6961 228.663 18.9895 228.2 18.5018C227.737 18.0015 227.105 17.7514 226.305 17.7514C225.505 17.7514 224.867 18.0015 224.392 18.5018C223.929 18.9895 223.698 19.6961 223.698 20.6216V26.3994H221.578V20.6216C221.578 19.6961 221.346 18.9895 220.884 18.5018C220.421 18.0015 219.789 17.7514 218.989 17.7514C218.189 17.7514 217.551 18.0015 217.076 18.5018C216.613 18.9895 216.381 19.6961 216.381 20.6216V26.3994H214.243V16.0631H216.381V17.2449C216.732 16.8197 217.176 16.4883 217.713 16.2507C218.251 16.0131 218.826 15.8943 219.439 15.8943C220.265 15.8943 221.003 16.0693 221.653 16.4195C222.303 16.7697 222.803 17.2762 223.154 17.939C223.466 17.3137 223.954 16.8197 224.617 16.457C225.28 16.0819 225.992 15.8943 226.755 15.8943ZM233.022 21.1844C233.022 20.1463 233.235 19.2271 233.66 18.4268C234.098 17.6264 234.685 17.0073 235.423 16.5696C236.174 16.1194 236.999 15.8943 237.899 15.8943C238.712 15.8943 239.419 16.0568 240.019 16.382C240.632 16.6947 241.12 17.0886 241.482 17.5638V16.0631H243.64V26.3994H241.482V24.8612C241.12 25.3489 240.626 25.7553 240 26.0805C239.375 26.4057 238.662 26.5682 237.862 26.5682C236.974 26.5682 236.161 26.3431 235.423 25.8929C234.685 25.4302 234.098 24.7924 233.66 23.9795C233.235 23.1541 233.022 22.2224 233.022 21.1844ZM241.482 21.2219C241.482 20.509 241.332 19.89 241.032 19.3647C240.745 18.8395 240.363 18.4393 239.888 18.1641C239.413 17.889 238.9 17.7514 238.35 17.7514C237.799 17.7514 237.287 17.889 236.811 18.1641C236.336 18.4268 235.948 18.8207 235.648 19.346C235.361 19.8587 235.217 20.4715 235.217 21.1844C235.217 21.8972 235.361 22.5225 235.648 23.0603C235.948 23.598 236.336 24.0107 236.811 24.2984C237.299 24.5735 237.812 24.7111 238.35 24.7111C238.9 24.7111 239.413 24.5735 239.888 24.2984C240.363 24.0232 240.745 23.6231 241.032 23.0978C241.332 22.56 241.482 21.9347 241.482 21.2219ZM247.537 14.6937C247.149 14.6937 246.824 14.5624 246.561 14.2997C246.299 14.0371 246.167 13.7119 246.167 13.3243C246.167 12.9366 246.299 12.6114 246.561 12.3488C246.824 12.0861 247.149 11.9548 247.537 11.9548C247.912 11.9548 248.231 12.0861 248.493 12.3488C248.756 12.6114 248.887 12.9366 248.887 13.3243C248.887 13.7119 248.756 14.0371 248.493 14.2997C248.231 14.5624 247.912 14.6937 247.537 14.6937ZM248.587 16.0631V26.3994H246.449V16.0631H248.587ZM253.533 12.5176V26.3994H251.395V12.5176H253.533ZM257.204 26.5307C256.816 26.5307 256.491 26.3994 256.229 26.1368C255.966 25.8742 255.835 25.549 255.835 25.1613C255.835 24.7736 255.966 24.4485 256.229 24.1858C256.491 23.9232 256.816 23.7919 257.204 23.7919C257.579 23.7919 257.898 23.9232 258.161 24.1858C258.423 24.4485 258.555 24.7736 258.555 25.1613C258.555 25.549 258.423 25.8742 258.161 26.1368C257.898 26.3994 257.579 26.5307 257.204 26.5307ZM260.153 21.2219C260.153 20.1589 260.366 19.2271 260.791 18.4268C261.229 17.6139 261.829 16.9885 262.592 16.5508C263.355 16.1131 264.23 15.8943 265.218 15.8943C266.469 15.8943 267.501 16.1944 268.314 16.7947C269.139 17.3825 269.695 18.2267 269.983 19.3272H267.676C267.488 18.8144 267.188 18.4142 266.775 18.1266C266.363 17.839 265.844 17.6951 265.218 17.6951C264.343 17.6951 263.643 18.0078 263.117 18.6331C262.604 19.2459 262.348 20.1088 262.348 21.2219C262.348 22.3349 262.604 23.2041 263.117 23.8294C263.643 24.4547 264.343 24.7674 265.218 24.7674C266.456 24.7674 267.276 24.2233 267.676 23.1353H269.983C269.683 24.1858 269.12 25.0237 268.295 25.649C267.469 26.2618 266.444 26.5682 265.218 26.5682C264.23 26.5682 263.355 26.3494 262.592 25.9117C261.829 25.4615 261.229 24.8361 260.791 24.0358C260.366 23.2229 260.153 22.2849 260.153 21.2219ZM276.598 26.5682C275.622 26.5682 274.741 26.3494 273.953 25.9117C273.165 25.4615 272.546 24.8361 272.096 24.0358C271.645 23.2229 271.42 22.2849 271.42 21.2219C271.42 20.1714 271.652 19.2397 272.114 18.4268C272.577 17.6139 273.209 16.9885 274.009 16.5508C274.809 16.1131 275.704 15.8943 276.692 15.8943C277.68 15.8943 278.574 16.1131 279.374 16.5508C280.175 16.9885 280.806 17.6139 281.269 18.4268C281.732 19.2397 281.963 20.1714 281.963 21.2219C281.963 22.2724 281.725 23.2041 281.25 24.017C280.775 24.8299 280.125 25.4615 279.299 25.9117C278.486 26.3494 277.586 26.5682 276.598 26.5682ZM276.598 24.7111C277.148 24.7111 277.661 24.5798 278.136 24.3171C278.624 24.0545 279.018 23.6606 279.318 23.1353C279.618 22.6101 279.768 21.9722 279.768 21.2219C279.768 20.4715 279.624 19.8399 279.337 19.3272C279.049 18.8019 278.668 18.408 278.192 18.1454C277.717 17.8827 277.204 17.7514 276.654 17.7514C276.104 17.7514 275.591 17.8827 275.116 18.1454C274.653 18.408 274.284 18.8019 274.009 19.3272C273.734 19.8399 273.596 20.4715 273.596 21.2219C273.596 22.3349 273.878 23.1978 274.44 23.8106C275.016 24.4109 275.735 24.7111 276.598 24.7111ZM296.589 15.8943C297.402 15.8943 298.128 16.0631 298.765 16.4008C299.416 16.7384 299.922 17.2387 300.285 17.9015C300.66 18.5643 300.848 19.3647 300.848 20.3027V26.3994H298.728V20.6216C298.728 19.6961 298.497 18.9895 298.034 18.5018C297.571 18.0015 296.94 17.7514 296.139 17.7514C295.339 17.7514 294.701 18.0015 294.226 18.5018C293.763 18.9895 293.532 19.6961 293.532 20.6216V26.3994H291.412V20.6216C291.412 19.6961 291.18 18.9895 290.718 18.5018C290.255 18.0015 289.623 17.7514 288.823 17.7514C288.023 17.7514 287.385 18.0015 286.91 18.5018C286.447 18.9895 286.216 19.6961 286.216 20.6216V26.3994H284.077V16.0631H286.216V17.2449C286.566 16.8197 287.01 16.4883 287.547 16.2507C288.085 16.0131 288.66 15.8943 289.273 15.8943C290.099 15.8943 290.837 16.0693 291.487 16.4195C292.137 16.7697 292.637 17.2762 292.988 17.939C293.3 17.3137 293.788 16.8197 294.451 16.457C295.114 16.0819 295.827 15.8943 296.589 15.8943Z" fill="#630600"/>
</g>
<rect x="0.750192" y="0.606637" width="323.596" height="38.3" stroke="#630600" stroke-width="0.781633"/>
<defs>
<clipPath id="clip0_413_2561">
<rect x="0.359375" y="0.21582" width="324.378" height="39.0817" fill="white"/>
</clipPath>
</defs>
</svg>
