<svg width="23" height="26" viewBox="0 0 23 26" fill="none" xmlns="http://www.w3.org/2000/svg">
<path d="M2.71395 25.4622H13.053C13.6732 25.4626 14.2861 25.3001 14.8496 24.986C15.4131 24.6718 15.9137 24.2134 16.317 23.6423L21.8004 15.8885C21.9152 15.7264 21.9954 15.5326 22.0338 15.3241C22.0723 15.1156 22.0679 14.8988 22.0209 14.6929C21.974 14.487 21.886 14.2982 21.7647 14.1432C21.6434 13.9882 21.4925 13.8718 21.3253 13.8041L19.2102 12.9495C18.699 12.7481 18.1547 12.7026 17.6255 12.8168C17.0964 12.9311 16.5986 13.2018 16.1762 13.6048L12.7531 16.9228L12.09 15.314C11.7348 14.4467 11.1863 13.7174 10.5066 13.2086C9.82701 12.6997 9.04341 12.4317 8.24459 12.435H2.71395C1.5285 12.435 0.564453 13.6035 0.564453 15.0404V22.8567C0.564453 24.2936 1.5285 25.4622 2.71395 25.4622ZM2.71395 15.0404H8.24459C9.06462 15.0404 9.80082 15.5915 10.1673 16.4799L10.6477 17.6459H5.93818V20.2513H12.4017C12.5671 20.2486 12.7297 20.1996 12.8767 20.108L12.88 20.1067L12.8843 20.1041H12.8875L12.8896 20.1028H12.8939L12.895 20.1015C12.9047 20.1054 12.8982 20.1002 12.8982 20.1002C12.909 20.1002 12.9004 20.0989 12.9004 20.0989H12.9015L12.9036 20.0976L12.9068 20.0963L12.909 20.095L12.9111 20.0937L12.9144 20.0924L12.9165 20.0911C12.9197 20.0911 12.9176 20.0898 12.9187 20.0898L12.9219 20.0872L12.924 20.0858L12.9262 20.0845L12.9294 20.0832L12.9316 20.0819H12.9326L12.9348 20.0806H12.9359L12.938 20.0793L12.9402 20.078C12.9498 20.0767 12.9434 20.0767 12.9434 20.0767L12.9455 20.0754C12.9869 20.0451 13.0265 20.0112 13.0637 19.9738L17.5196 15.6527C17.8012 15.3817 18.1892 15.297 18.5299 15.4351L19.1285 15.6774L14.6866 21.9605C14.4823 22.2417 14.231 22.467 13.9493 22.6216C13.6677 22.7761 13.3622 22.8562 13.053 22.8567H2.71395V15.0404ZM15.6109 0.710461H15.5926C15.4174 0.713067 14.5114 0.761268 13.4614 1.62888C12.4393 0.784717 11.5548 0.716975 11.3463 0.711764L11.3141 0.710461H11.3098C10.4489 0.710461 9.63853 1.11821 9.03238 1.85425C8.42407 2.5929 8.08768 3.57385 8.08768 4.61863C8.08768 5.66341 8.42407 6.64436 9.01303 7.35956L12.6822 12.0311C12.7832 12.1581 12.9042 12.2592 13.0382 12.3281C13.1721 12.3971 13.3161 12.4326 13.4616 12.4324C13.6071 12.4323 13.7511 12.3966 13.885 12.3274C14.0188 12.2582 14.1398 12.157 14.2406 12.0298L17.8904 7.3817C18.4998 6.64436 18.8351 5.66341 18.8351 4.61863C18.8351 3.57385 18.4987 2.5929 17.8915 1.85555C17.5931 1.4915 17.238 1.20284 16.8469 1.00628C16.4558 0.809718 16.0364 0.709172 15.613 0.710461H15.6109ZM16.6856 4.61863C16.6856 4.96645 16.5739 5.29344 16.3514 5.5631L13.4614 9.24329L10.5521 5.53965C10.3489 5.29344 10.2372 4.96645 10.2372 4.61863C10.2372 4.2708 10.3489 3.94382 10.5531 3.6963C10.7475 3.45667 11.0121 3.31993 11.2893 3.31591C11.3162 3.31721 11.8289 3.35759 12.4361 3.94773C12.5232 4.0324 12.6113 4.1288 12.7016 4.23693L13.4614 5.15796L14.2213 4.23693C14.3115 4.1288 14.3997 4.0324 14.4867 3.94773C15.0553 3.39407 15.5357 3.32503 15.6173 3.31721C15.7574 3.31718 15.8961 3.35078 16.0254 3.41607C16.1547 3.48135 16.2721 3.57704 16.3707 3.6976C16.5739 3.94382 16.6856 4.2708 16.6856 4.61863Z" fill="black"/>
</svg>
