<svg width="269" height="431" viewBox="0 0 269 431" fill="none" xmlns="http://www.w3.org/2000/svg">
<path d="M28.2 431V401.6H73.8C85.4 401.6 94.4 399 100.8 393.8C107.6 388.2 111 377.4 111 361.4V54.8C95.8 73.6 82 88.8 69.6 100.4C57.6 111.6 45.6 117.2 33.6 117.2C24.4 117.2 16.6 113.6 10.2 106.4C3.8 99.2 0.600002 89.6 0.600002 77.6C12.6 74.8 25.6 70.2 39.6 63.8C54 57 71.2 46.2 91.2 31.4L133.2 0.199967H189.6V361.4C189.6 376.2 192.6 386.6 198.6 392.6C204.6 398.6 214.2 401.6 227.4 401.6H268.2V431H28.2Z" fill="#950024" fill-opacity="0.14"/>
</svg>
