<svg width="278" height="435" viewBox="0 0 278 435" fill="none" xmlns="http://www.w3.org/2000/svg">
<path d="M1.07288e-06 435V379.8L93 279.6C116.2 254.8 134.4 233 147.6 214.2C160.8 195.4 170 177.4 175.2 160.2C180.4 142.6 183 124 183 104.4C183 58 165.4 34.8 130.2 34.8C107.4 34.8 91.8 43.6 83.4 61.2C75.4 78.8 71.4 102.8 71.4 133.2C51.4 133.2 35.2 129.4 22.8 121.8C10.4 114.2 4.2 100.8 4.2 81.6C4.2 59.6 14.8 40.6 36 24.6C57.2 8.59998 88.6 0.599978 130.2 0.599978C172.6 0.599978 205.2 9.59998 228 27.6C250.8 45.6 262.2 69.8 262.2 100.2C262.2 118.6 257.8 136.8 249 154.8C240.2 172.8 226 193 206.4 215.4C186.8 237.8 160.6 265.2 127.8 297.6L52.2 375.6H191.4C205.8 375.6 217 371.8 225 364.2C233 356.2 238.6 345.8 241.8 333L245.4 317.4H277.2L274.2 435H1.07288e-06Z" fill="#950024" fill-opacity="0.14"/>
</svg>
