<svg width="282" height="441" viewBox="0 0 282 441" fill="none" xmlns="http://www.w3.org/2000/svg">
<path d="M124 441C80.8 441 49.4 434 29.8 420C10.2 406 0.4 389.6 0.4 370.8C0.4 356.8 4.8 346.2 13.6 339C22.8 331.4 33.8 327.6 46.6 327.6C46.6 351.2 53.4 369.6 67 382.8C80.6 396 98.8 402.6 121.6 402.6C135.6 402.6 148.6 400 160.6 394.8C172.6 389.2 182.2 379.8 189.4 366.6C197 353 200.8 334.6 200.8 311.4C200.8 287.8 192.2 268.6 175 253.8C157.8 238.6 133.6 231 102.4 231H71.8V196.2H103.6C129.6 196.2 149.8 188 164.2 171.6C179 155.2 186.4 133.4 186.4 106.2C186.4 83.8 181.8 66.4 172.6 54C163.8 41.2 150 34.8 131.2 34.8C115.6 34.8 103.6 39.2 95.2 48C87.2 56.8 81.6 68.2 78.4 82.2C75.6 95.8 74.2 110.6 74.2 126.6C53.4 126.6 36.8 123 24.4 115.8C12.4 108.2 6.4 95.8 6.4 78.6C6.4 56.2 17 37.6 38.2 22.8C59.8 7.99998 91.4 0.599978 133 0.599978C173.8 0.599978 206.2 8.99998 230.2 25.8C254.6 42.6 266.8 66.4 266.8 97.2C266.8 124 258 147 240.4 166.2C222.8 185.4 200.6 198.8 173.8 206.4C185.4 208.4 197.4 211.6 209.8 216C222.6 220.4 234.4 226.6 245.2 234.6C256 242.6 264.8 253 271.6 265.8C278.4 278.2 281.8 293.6 281.8 312C281.8 336.4 277.2 356.8 268 373.2C259.2 389.6 247.2 402.8 232 412.8C216.8 422.8 199.8 430 181 434.4C162.2 438.8 143.2 441 124 441Z" fill="#950024" fill-opacity="0.14"/>
</svg>
