<svg width="559" height="510" viewBox="0 0 559 510" fill="none" xmlns="http://www.w3.org/2000/svg">
<path d="M542.614 95.0885L489.538 46.0458M426.041 430.921L554.069 445.316M473.417 167.212L419.648 132.355M479.003 377.422L552.584 392.732M417.645 2.56944L426.7 509M543.639 95.2477L557 486.135M488.582 47.1312V90.8948L433.162 47.1312V13.6247L417.426 2M159.487 436.217L167.732 173.124M97.9108 437.584L109.542 183.892M417.741 2.47359L22.9218 93.8661M418.962 131.039L313.138 149.178V433.594M425.343 430.783L313.138 433.594M313.138 433.594L0.99999 441.413M167.698 173.635L169.867 107.408M109.497 183.676L111.871 118.933M473.201 167.179L481.056 438.268M169.797 469.661V457.044L174.353 452.486L230.861 451.565L234.373 454.704V468.204M104.419 470.241L104.281 459.372L107.351 454.556L150.193 454.015L155.174 456.917L155.335 469.597M13.8942 468.457L13.7959 461.211L17.5119 455.725L86.0579 454.797L89.7211 457.547L89.8685 468.416M251.382 466.815L251.382 457.351L255.727 451.924L316.265 450.723L319.906 454.656L319.906 466.815M337.963 467.119V456.404L342.224 449.606L408.313 447.736L413.36 452.935V465.428M169.717 107.812L111.171 119.159M372.418 413.394H340.448V383.622L372.418 382.167V413.394ZM340.448 307.661V337.999L372.418 336.146V305.576L340.448 307.661ZM340.448 257.987L372.418 255.114V231.87L340.448 235.674V257.987ZM340.448 166.364V187.918L372.418 183.692V160.025L340.448 166.364Z" stroke="#FC0C0C" stroke-opacity="0.08" stroke-width="4"/>
</svg>
