<svg width="467" height="563" viewBox="0 0 467 563" fill="none" xmlns="http://www.w3.org/2000/svg">
<path d="M244.217 53.7471L247.014 0.187872" stroke="#FC0C0C" stroke-opacity="0.08" stroke-width="4"/>
<path d="M177.851 451.979V536.885H214.197M177.851 451.979V433.546C178.393 420.698 172.209 387.518 143.132 357.577C106.786 320.151 74.7793 291.104 74.7793 233.011C74.7793 174.917 106.786 127.995 131.74 102.3C156.694 76.6045 211.484 62.0811 247.288 62.0811C283.092 62.0811 322.693 77.7217 346.562 102.3C370.431 126.878 399.182 174.358 399.182 233.011C399.182 279.933 359.039 335.606 338.967 357.577C327.394 368.749 304.248 399.583 304.248 433.546C304.248 439.325 304.248 445.541 304.248 451.979M177.851 451.979H304.248M304.248 451.979C304.248 483.378 304.248 520.043 304.248 536.885H265.19M214.197 536.885C215.462 545.078 220.381 560.346 240.778 560.346C261.175 560.346 264.647 545.078 265.19 536.885M214.197 536.885H265.19" stroke="#FC0C0C" stroke-opacity="0.08" stroke-width="4"/>
<path d="M402.438 301.156L451.172 319.548" stroke="#FC0C0C" stroke-opacity="0.08" stroke-width="4"/>
<path d="M64.5762 310.888L15.8419 329.28" stroke="#FC0C0C" stroke-opacity="0.08" stroke-width="4"/>
<path d="M415.803 202.275L466.015 188.417" stroke="#FC0C0C" stroke-opacity="0.08" stroke-width="4"/>
<path d="M51.2129 212.007L1.00079 198.149" stroke="#FC0C0C" stroke-opacity="0.08" stroke-width="4"/>
<path d="M385.883 95.564L426.495 62.9456" stroke="#FC0C0C" stroke-opacity="0.08" stroke-width="4"/>
<path d="M81.1309 105.296L40.5187 72.6781" stroke="#FC0C0C" stroke-opacity="0.08" stroke-width="4"/>
</svg>
