<svg width="301" height="470" viewBox="0 0 301 470" fill="none" xmlns="http://www.w3.org/2000/svg">
<path d="M213.974 465.531V322.563L292.098 201.47C297.306 191.574 304.598 165.533 292.098 140.533C276.473 109.283 258.505 66.3147 229.599 64.7522C206.474 63.5022 172.047 64.2314 157.724 64.7522C148.87 65.2731 133.037 71.3149 140.537 91.3148C149.912 116.315 184.286 124.908 206.942 124.908M206.942 124.908C225.067 124.908 229.599 148.346 229.599 160.064C198.609 163.45 134.287 180.689 124.912 222.564M206.942 124.908L6.68747 145.311M24.9128 469.437V330.376C12.9337 293.397 -7.43073 204.439 6.94417 144.439" stroke="#FC0C0C" stroke-opacity="0.08" stroke-width="4"/>
<rect x="2" y="67.187" width="53.1246" height="134.374" rx="20" fill="white"/>
<rect x="4" y="69.187" width="49.1246" height="130.374" rx="18" stroke="#FC0C0C" stroke-opacity="0.08" stroke-width="4"/>
<rect x="48.873" y="29.687" width="59.3746" height="160.936" rx="20" fill="white"/>
<rect x="50.873" y="31.687" width="55.3746" height="156.936" rx="18" stroke="#FC0C0C" stroke-opacity="0.08" stroke-width="4"/>
<rect x="105.125" y="12.5" width="57.8121" height="164.061" rx="20" fill="white"/>
<rect x="107.125" y="14.5" width="53.8121" height="160.061" rx="18" stroke="#FC0C0C" stroke-opacity="0.08" stroke-width="4"/>
<rect x="156.688" width="56.2496" height="159.374" rx="20" fill="white"/>
<rect x="158.688" y="2" width="52.2496" height="155.374" rx="18" stroke="#FC0C0C" stroke-opacity="0.08" stroke-width="4"/>
</svg>
