<svg width="99" height="11" viewBox="0 0 99 11" fill="none" xmlns="http://www.w3.org/2000/svg">
<path d="M81.3799 0.046875H84.1175L85.4463 3.3555H82.4926L81.3799 0.046875Z" fill="#D9D9D9"/>
<path d="M81.3799 10.959H84.1175L85.4463 7.65036H82.4926L81.3799 10.959Z" fill="#A6A6A6"/>
<rect x="82.5107" y="3.35547" width="2.93525" height="4.29483" fill="#BFBFBF"/>
<path d="M84.123 0.0465046C84.123 0.0465046 93.4669 -0.0965841 94.6112 0.119506C97.3453 0.635833 98.534 3.35513 98.534 3.35513H85.4164L84.123 0.0465046Z" fill="#D38583"/>
<path d="M84.123 10.9125C84.123 10.9125 93.4669 11.0556 94.6112 10.8395C97.3453 10.3232 98.534 7.60386 98.534 7.60386H85.4164L84.123 10.9125Z" fill="#AA3F3C"/>
<path d="M85.4463 3.35498H98.5335C98.5335 3.35498 99.0002 4.65887 98.9997 5.50656C98.9992 6.35125 98.5335 7.65039 98.5335 7.65039H85.4463V3.35498Z" fill="#C86664"/>
<path d="M2.24023 5.02545L26.212 0.129883V3.25512L2.24023 5.35009V5.02545Z" fill="#DDD9C3"/>
<path d="M2.24023 5.97455L26.212 10.8701V7.74488L2.24023 5.64991V5.97455Z" fill="#B3AB79"/>
<path d="M2.24023 5.3436L26.212 3.22607V7.76792L2.24023 5.64678V5.3436Z" fill="#C9C39F"/>
<path d="M26.26 0.202215L81.2824 0.046875L82.64 3.3555H26.2599C26.2599 3.3555 24.0527 2.85016 24.0527 1.91448C24.0528 0.966643 26.26 0.202215 26.26 0.202215Z" fill="#FBC497"/>
<path d="M26.26 10.8447L81.2824 11L82.64 7.69137H26.2599C26.2599 7.69137 24.0527 8.19672 24.0527 9.13239C24.0528 10.0802 26.26 10.8447 26.26 10.8447Z" fill="#F68426"/>
<path d="M26.2334 3.35547H82.6396V7.69113H26.2334C26.2334 7.69113 24.0151 6.61051 24.0117 5.52869C24.0083 4.44358 26.2334 3.35547 26.2334 3.35547Z" fill="#F89D52"/>
<path d="M2.24769 4.97995L0 5.45231L2.24769 5.99029C2.24769 5.99029 3.20654 6.094 3.79662 5.99029C4.40192 5.88391 5.22772 5.45231 5.22772 5.45231C5.22772 5.45231 4.38391 5.11319 3.79662 5.01933C3.20374 4.92458 2.24769 4.97995 2.24769 4.97995Z" fill="#131313"/>
</svg>
