<svg width="32" height="32" viewBox="0 0 32 32" fill="none" xmlns="http://www.w3.org/2000/svg">
<path fill-rule="evenodd" clip-rule="evenodd" d="M4.6669 16C4.6669 13.7585 5.33159 11.5673 6.57691 9.70354C7.82223 7.83978 9.59225 6.38716 11.6632 5.52937C13.734 4.67157 16.0128 4.44713 18.2113 4.88443C20.4097 5.32173 22.4291 6.40113 24.0141 7.98612C25.5991 9.57112 26.6785 11.5905 27.1158 13.789C27.5531 15.9874 27.3287 18.2662 26.4709 20.3371C25.6131 22.408 24.1604 24.178 22.2967 25.4233C20.4329 26.6686 18.2418 27.3333 16.0002 27.3333C13.856 27.3371 11.7552 26.7294 9.94423 25.5813C9.78314 25.4794 9.60207 25.4133 9.41324 25.3873C9.2244 25.3613 9.03219 25.3761 8.84956 25.4307L5.00956 26.576L6.45623 23.1933C6.54032 22.9964 6.57574 22.7821 6.55949 22.5686C6.54325 22.3551 6.47581 22.1486 6.3629 21.9667C5.2508 20.1755 4.66323 18.1083 4.6669 16ZM16.0002 2C8.26823 2 2.00023 8.268 2.00023 16C2.00023 18.4507 2.6309 20.7573 3.74023 22.764L1.44023 28.1427C1.34068 28.3757 1.30958 28.6322 1.35057 28.8822C1.39156 29.1323 1.50294 29.3654 1.67167 29.5544C1.84039 29.7435 2.05948 29.8805 2.30328 29.9495C2.54707 30.0185 2.80548 30.0166 3.04823 29.944L9.04823 28.1547C11.1643 29.3673 13.5614 30.0036 16.0002 30C23.7322 30 30.0002 23.732 30.0002 16C30.0002 8.268 23.7322 2 16.0002 2ZM19.0576 18.9093L17.3042 20.144C16.3382 19.5882 15.4512 18.9052 14.6669 18.1133C13.8249 17.2725 13.097 16.3249 12.5016 15.2947L13.6149 14.3493C13.8469 14.1525 14.0046 13.8823 14.0618 13.5835C14.1191 13.2847 14.0724 12.9753 13.9296 12.7067L12.5109 10.04C12.4165 9.8629 12.2833 9.7094 12.1213 9.59094C11.9593 9.47247 11.7727 9.39211 11.5753 9.35584C11.3779 9.31957 11.1749 9.32832 10.9813 9.38145C10.7878 9.43457 10.6088 9.5307 10.4576 9.66267L10.0362 10.0293C9.02423 10.912 8.42556 12.3627 8.92156 13.832C9.71957 16.1562 11.0401 18.2663 12.7816 20C15.1989 22.4173 17.6549 23.3693 19.0922 23.74C20.2496 24.0373 21.3442 23.6387 22.1162 23.0093L22.9042 22.3667C23.0704 22.2312 23.2014 22.0577 23.2862 21.8608C23.371 21.6639 23.4071 21.4495 23.3914 21.2357C23.3757 21.0219 23.3086 20.815 23.196 20.6327C23.0833 20.4503 22.9284 20.2977 22.7442 20.188L20.5069 18.8547C20.2857 18.7227 20.0309 18.6576 19.7735 18.6673C19.516 18.677 19.2669 18.761 19.0562 18.9093H19.0576Z" fill="#060606"/>
</svg>
