<?xml version="1.0" standalone="no"?>
<!DOCTYPE svg PUBLIC "-//W3C//DTD SVG 20010904//EN"
 "http://www.w3.org/TR/2001/REC-SVG-20010904/DTD/svg10.dtd">
<svg version="1.0" xmlns="http://www.w3.org/2000/svg"
 width="225.000000pt" height="225.000000pt" viewBox="0 0 225.000000 225.000000"
 preserveAspectRatio="xMidYMid meet">
<metadata>
Created by potrace 1.16, written by Peter Selinger 2001-2019
</metadata>
<g transform="translate(0.000000,225.000000) scale(0.100000,-0.100000)"
fill="#000000" stroke="none">
<path d="M1002 1748 c-59 -57 -174 -159 -256 -228 -82 -69 -154 -133 -160
-142 -18 -30 6 -40 135 -54 67 -7 124 -16 127 -19 8 -8 3 -204 -8 -310 -20
-188 -6 -549 22 -583 11 -13 44 -14 242 -8 127 4 234 10 239 13 6 4 7 56 3
131 -4 74 -3 161 4 216 6 50 14 179 18 286 5 120 13 204 21 218 11 21 17 22
134 22 125 0 147 6 147 39 0 9 -116 129 -257 268 -189 186 -264 253 -281 253
-16 0 -57 -32 -130 -102z"/>
</g>
</svg>
