<svg width="30" height="30" viewBox="0 0 30 30" fill="none" xmlns="http://www.w3.org/2000/svg">
<path d="M26.6668 11.0165V24.9999H3.33351V6.66654H5.83351V4.99988H3.12517C2.93037 5.00313 2.73812 5.04473 2.5594 5.1223C2.38067 5.19987 2.21898 5.31189 2.08356 5.45195C1.94813 5.59202 1.84163 5.75739 1.77013 5.93863C1.69863 6.11986 1.66353 6.31341 1.66684 6.50821V25.1582C1.66353 25.353 1.69863 25.5466 1.77013 25.7278C1.84163 25.909 1.94813 26.0744 2.08356 26.2145C2.21898 26.3545 2.38067 26.4666 2.5594 26.5441C2.73812 26.6217 2.93037 26.6633 3.12517 26.6665H26.8752C27.07 26.6633 27.2622 26.6217 27.4409 26.5441C27.6197 26.4666 27.7814 26.3545 27.9168 26.2145C28.0522 26.0744 28.1587 25.909 28.2302 25.7278C28.3017 25.5466 28.3368 25.353 28.3335 25.1582V10.2832C27.817 10.6082 27.2554 10.8553 26.6668 11.0165Z" fill="black"/>
<path d="M6.66638 11.6666H8.33305V13.3333H6.66638V11.6666Z" fill="black"/>
<path d="M11.667 11.6666H13.3337V13.3333H11.667V11.6666Z" fill="black"/>
<path d="M16.6665 11.6666H18.3332V13.3333H16.6665V11.6666Z" fill="black"/>
<path d="M21.6664 11.6666H23.3331V13.3333H21.6664V11.6666Z" fill="black"/>
<path d="M6.66638 15.8333H8.33305V17.4999H6.66638V15.8333Z" fill="black"/>
<path d="M11.667 15.8333H13.3337V17.4999H11.667V15.8333Z" fill="black"/>
<path d="M16.6665 15.8333H18.3332V17.4999H16.6665V15.8333Z" fill="black"/>
<path d="M21.6664 15.8333H23.3331V17.4999H21.6664V15.8333Z" fill="black"/>
<path d="M6.66638 19.9999H8.33305V21.6665H6.66638V19.9999Z" fill="black"/>
<path d="M11.667 19.9999H13.3337V21.6665H11.667V19.9999Z" fill="black"/>
<path d="M16.6665 19.9999H18.3332V21.6665H16.6665V19.9999Z" fill="black"/>
<path d="M21.6664 19.9999H23.3331V21.6665H21.6664V19.9999Z" fill="black"/>
<path d="M8.33333 8.33317C8.55435 8.33317 8.76631 8.24537 8.92259 8.08909C9.07887 7.93281 9.16667 7.72085 9.16667 7.49984V2.49984C9.16667 2.27882 9.07887 2.06686 8.92259 1.91058C8.76631 1.7543 8.55435 1.6665 8.33333 1.6665C8.11232 1.6665 7.90036 1.7543 7.74408 1.91058C7.5878 2.06686 7.5 2.27882 7.5 2.49984V7.49984C7.5 7.72085 7.5878 7.93281 7.74408 8.08909C7.90036 8.24537 8.11232 8.33317 8.33333 8.33317Z" fill="black"/>
<path d="M18.7497 4.99988H10.833V6.66654H18.983C18.8303 6.12407 18.7519 5.56342 18.7497 4.99988Z" fill="black"/>
<path d="M25.0002 9.16658C27.3013 9.16658 29.1668 7.3011 29.1668 4.99992C29.1668 2.69873 27.3013 0.833252 25.0002 0.833252C22.699 0.833252 20.8335 2.69873 20.8335 4.99992C20.8335 7.3011 22.699 9.16658 25.0002 9.16658Z" fill="black"/>
</svg>
