<svg width="34" height="30" viewBox="0 0 34 30" fill="none" xmlns="http://www.w3.org/2000/svg">
<path d="M17.1566 8.21756e-05C16.9704 0.000150315 16.7866 0.0413804 16.6184 0.120777C16.4503 0.200173 16.3021 0.315742 16.1846 0.459085L16.0874 0.530596C14.2651 -0.0197624 12.3267 -0.0702592 10.4778 0.384465C8.62899 0.839189 6.93869 1.78217 5.58634 3.11332C4.38768 4.29123 3.49633 5.74125 2.9894 7.3379C2.48248 8.93455 2.37525 10.6297 2.677 12.2767L2.65187 12.3017L1.04637 13.8833C0.714836 14.2092 0.451668 14.5971 0.272069 15.0246C0.0924701 15.452 0 15.9106 0 16.3737C0 16.8368 0.0924701 17.2953 0.272069 17.7228C0.451668 18.1502 0.714836 18.5381 1.04637 18.8641C1.43631 19.2484 1.91018 19.5385 2.43127 19.7118C2.95235 19.8851 3.50666 19.9371 4.05123 19.8636C4.24543 20.5648 4.65249 21.1896 5.21709 21.6532C5.7817 22.1168 6.47644 22.3966 7.20691 22.4546C7.282 23.3074 7.66574 24.1043 8.28714 24.6981C8.90855 25.2918 9.72559 25.6421 10.5872 25.6843C10.6307 26.5274 10.9776 27.3556 11.6296 27.9976C12.9032 29.2549 14.9009 29.363 16.3003 28.3252L16.9488 28.9638C17.6239 29.6276 18.5358 30 19.4861 30C20.4364 30 21.3483 29.6276 22.0234 28.9638C22.6435 28.3518 22.9904 27.5702 23.0624 26.7719C23.8987 26.7016 24.6832 26.3409 25.2779 25.7532C25.8726 25.1655 26.2393 24.3885 26.3136 23.5589C27.0503 23.4917 27.7477 23.1989 28.3092 22.7209C28.8707 22.243 29.2685 21.6036 29.4475 20.8914C29.984 20.9551 30.528 20.8976 31.0388 20.7231C31.5496 20.5485 32.014 20.2615 32.3971 19.8835C32.7284 19.5576 32.9913 19.1698 33.1708 18.7425C33.3502 18.3152 33.4426 17.8569 33.4426 17.394C33.4426 16.931 33.3502 16.4727 33.1708 16.0454C32.9913 15.6181 32.7284 15.2303 32.3971 14.9044L31.0011 13.5257L31.2893 12.4181C31.913 10.0078 31.5988 7.4528 30.4095 5.26198C29.5442 3.67149 28.2611 2.34314 26.6964 1.41789C25.1317 0.492642 23.3437 0.00500669 21.5223 0.0067343H18.8292C18.7141 0.00174937 18.599 -0.000468604 18.4839 8.21756e-05H17.1583H17.1566ZM22.0586 8.22388L27.8638 13.9481L27.8689 13.9548L27.8923 13.9764L30.6156 16.6622C30.7129 16.7581 30.7901 16.8721 30.8428 16.9976C30.8955 17.1232 30.9226 17.2579 30.9226 17.394C30.9226 17.53 30.8955 17.6647 30.8428 17.7903C30.7901 17.9159 30.7129 18.0299 30.6156 18.1257C30.418 18.3197 30.1512 18.4285 29.8732 18.4285C29.5952 18.4285 29.3285 18.3197 29.1308 18.1257L26.4075 15.4399C26.1703 15.2067 25.8498 15.0759 25.5159 15.0759C25.182 15.0759 24.8616 15.2067 24.6244 15.4399L24.5975 15.4681C24.4805 15.5832 24.3877 15.7201 24.3243 15.8709C24.2609 16.0218 24.2283 16.1836 24.2283 16.3471C24.2283 16.5105 24.2609 16.6723 24.3243 16.8232C24.3877 16.974 24.4805 17.111 24.5975 17.226L26.7192 19.3198C26.8165 19.4156 26.8937 19.5296 26.9464 19.6552C26.9991 19.7808 27.0262 19.9155 27.0262 20.0515C27.0262 20.1876 26.9991 20.3222 26.9464 20.4478C26.8937 20.5734 26.8165 20.6874 26.7192 20.7833C26.5402 20.96 26.3034 21.0673 26.0516 21.0856C25.7998 21.1039 25.5497 21.032 25.3467 20.883C25.1029 20.7019 24.8015 20.614 24.4978 20.6354C24.194 20.6568 23.9082 20.786 23.6926 20.9995C23.4779 21.2125 23.3488 21.4959 23.3297 21.7965C23.3106 22.0972 23.4027 22.3945 23.5887 22.6326C23.7433 22.8317 23.8192 23.0801 23.8022 23.3309C23.7853 23.5817 23.6765 23.8178 23.4965 23.9946C23.3144 24.1737 23.0727 24.281 22.8168 24.2963C22.5608 24.3116 22.308 24.2339 22.1055 24.0778C21.8632 23.8902 21.5605 23.7965 21.2538 23.8139C20.947 23.8313 20.6571 23.9588 20.438 24.1726C20.2196 24.3858 20.088 24.6713 20.0682 24.9746C20.0484 25.278 20.1419 25.578 20.3307 25.8173C20.4891 26.0195 20.5673 26.2723 20.5506 26.5279C20.5339 26.7834 20.4235 27.024 20.2402 27.2043C20.0395 27.4013 19.7685 27.5118 19.4861 27.5118C19.2037 27.5118 18.9327 27.4013 18.732 27.2043L18.1085 26.5906L18.2845 26.416C18.6158 26.0901 18.8787 25.7023 19.0582 25.275C19.2376 24.8477 19.33 24.3894 19.33 23.9264C19.33 23.4635 19.2376 23.0052 19.0582 22.5779C18.8787 22.1506 18.6158 21.7628 18.2845 21.4368C17.6577 20.8177 16.8216 20.4514 15.9383 20.4091C15.8904 19.5547 15.5324 18.7463 14.9304 18.1336C14.3284 17.5209 13.5231 17.1453 12.6636 17.0763C12.595 16.2434 12.2282 15.4623 11.6296 14.8744C11.2396 14.4901 10.7658 14.2001 10.2447 14.0267C9.72359 13.8534 9.16928 13.8015 8.62471 13.8749C8.41197 13.1095 7.94658 12.437 7.30304 11.9651C6.65949 11.4932 5.87502 11.2493 5.07519 11.2723C4.94793 10.1025 5.08812 8.91936 5.48534 7.81082C5.88256 6.70228 6.52658 5.69691 7.36947 4.8695C8.15494 4.09517 9.09402 3.49131 10.1271 3.09623C11.1602 2.70114 12.2648 2.52347 13.3708 2.57449L10.862 4.45873C10.4543 4.76492 10.1117 5.14809 9.85377 5.58619C9.59587 6.02429 9.42782 6.50867 9.35929 7.01147C9.29076 7.51427 9.3231 8.02555 9.45444 8.5159C9.58579 9.00624 9.81355 9.46598 10.1246 9.86864C10.7529 10.6813 11.6795 11.2145 12.7023 11.3519C13.7252 11.4893 14.7613 11.2197 15.5846 10.602L18.7504 8.22222H22.0586V8.22388ZM12.3787 6.4494L17.6393 2.49466H18.4839C18.5885 2.49391 18.693 2.49668 18.7973 2.50298H21.5223C22.8895 2.50115 24.2318 2.86658 25.4067 3.5605C26.5816 4.25442 27.5453 5.25095 28.1957 6.44441C29.0252 7.97442 29.285 9.73393 28.9398 11.4253L23.5585 6.11014C23.4414 5.98978 23.301 5.89404 23.1459 5.82861C22.9907 5.76319 22.8238 5.72941 22.6552 5.7293H18.3297C18.0557 5.72918 17.7891 5.81794 17.5706 5.98208L14.068 8.6147C13.7742 8.83467 13.4048 8.93065 13.0402 8.88175C12.6755 8.83286 12.345 8.64304 12.1206 8.3536C12.011 8.2119 11.9308 8.05007 11.8845 7.87746C11.8382 7.70484 11.8268 7.52484 11.851 7.34783C11.8751 7.17083 11.9343 7.00031 12.0252 6.84612C12.116 6.69192 12.2368 6.55709 12.3804 6.4494H12.3787ZM6.75778 19.679C6.66049 19.5832 6.58328 19.4692 6.53058 19.3436C6.47789 19.218 6.45077 19.0833 6.45077 18.9473C6.45077 18.8112 6.47789 18.6765 6.53058 18.5509C6.58328 18.4253 6.66049 18.3113 6.75778 18.2155L8.3616 16.6323C8.55925 16.4383 8.82602 16.3295 9.10401 16.3295C9.382 16.3295 9.64877 16.4383 9.84643 16.6323C10.0406 16.8236 10.151 17.0831 10.1535 17.3546C10.156 17.6261 10.0505 17.8877 9.85984 18.0825L9.84643 18.0958L8.24261 19.6773L8.22753 19.6923C8.02881 19.88 7.76427 19.9836 7.48994 19.9811C7.2156 19.9786 6.953 19.8703 6.75778 19.679ZM5.93492 14.0762C6.1249 14.2708 6.22973 14.5321 6.22659 14.803C6.22345 15.074 6.1126 15.3328 5.91816 15.523L4.31434 17.1063C4.11669 17.3002 3.84991 17.409 3.57192 17.409C3.29394 17.409 3.02716 17.3002 2.82951 17.1063C2.73222 17.0104 2.65501 16.8964 2.60232 16.7708C2.54963 16.6452 2.5225 16.5105 2.5225 16.3745C2.5225 16.2385 2.54963 16.1038 2.60232 15.9782C2.65501 15.8526 2.73222 15.7386 2.82951 15.6428L4.435 14.0612C4.63266 13.8672 4.89943 13.7584 5.17742 13.7584C5.45541 13.7584 5.72218 13.8672 5.91984 14.0612L5.93492 14.0762ZM14.8975 26.2397C14.6999 26.4337 14.4331 26.5425 14.1551 26.5425C13.8771 26.5425 13.6104 26.4337 13.4127 26.2397C13.3154 26.1439 13.2382 26.0299 13.1855 25.9043C13.1328 25.7787 13.1057 25.644 13.1057 25.508C13.1057 25.372 13.1328 25.2373 13.1855 25.1117C13.2382 24.9861 13.3154 24.8721 13.4127 24.7763L15.0165 23.1947C15.2142 23.0007 15.481 22.8919 15.7589 22.8919C16.0369 22.8919 16.3037 23.0007 16.5014 23.1947C16.5986 23.2905 16.6759 23.4045 16.7285 23.5301C16.7812 23.6557 16.8084 23.7904 16.8084 23.9264C16.8084 24.0625 16.7812 24.1972 16.7285 24.3227C16.6759 24.4483 16.5986 24.5623 16.5014 24.6582L14.8975 26.2397ZM11.5106 22.9003C11.3131 23.0947 11.0463 23.2038 10.7682 23.2038C10.49 23.2038 10.2232 23.0947 10.0257 22.9003C9.83132 22.7093 9.72069 22.4498 9.71786 22.1783C9.71504 21.9068 9.82025 21.6451 10.0107 21.4501L10.0257 21.4368L11.6296 19.8553L11.643 19.8403C11.842 19.6523 12.107 19.5487 12.3817 19.5515C12.6565 19.5543 12.9193 19.6633 13.1144 19.8553C13.2117 19.9511 13.2889 20.0651 13.3416 20.1907C13.3943 20.3163 13.4214 20.451 13.4214 20.587C13.4214 20.7231 13.3943 20.8577 13.3416 20.9833C13.2889 21.1089 13.2117 21.2229 13.1144 21.3188L11.5106 22.9003Z" fill="black"/>
</svg>
