<svg width="26" height="19" viewBox="0 0 26 19" fill="none" xmlns="http://www.w3.org/2000/svg">
<path d="M25.7489 4.56279C25.7489 4.56279 25.5027 2.82477 24.7445 2.06162C23.7844 1.05721 22.7111 1.05229 22.2187 0.993208C18.6935 0.737182 13.4006 0.737183 13.4006 0.737183H13.3908C13.3908 0.737183 8.09795 0.737182 4.57268 0.993208C4.08032 1.05229 3.00698 1.05721 2.04689 2.06162C1.28866 2.82477 1.04741 4.56279 1.04741 4.56279C1.04741 4.56279 0.791382 6.60607 0.791382 8.64442V10.5548C0.791382 12.5931 1.04248 14.6364 1.04248 14.6364C1.04248 14.6364 1.28866 16.3744 2.04197 17.1376C3.00206 18.142 4.26249 18.1075 4.82378 18.2158C6.84244 18.4078 13.3957 18.4669 13.3957 18.4669C13.3957 18.4669 18.6935 18.4571 22.2187 18.206C22.7111 18.1469 23.7844 18.142 24.7445 17.1376C25.5027 16.3744 25.7489 14.6364 25.7489 14.6364C25.7489 14.6364 26 12.598 26 10.5548V8.64442C26 6.60607 25.7489 4.56279 25.7489 4.56279ZM10.7911 12.8738V5.78876L17.6004 9.34357L10.7911 12.8738Z" fill="white"/>
</svg>
