<svg width="26" height="26" viewBox="0 0 26 26" fill="none" xmlns="http://www.w3.org/2000/svg">
<g clip-path="url(#clip0_438_2053)">
<path d="M13.2015 2.26976C16.5692 2.26976 16.968 2.28453 18.2924 2.34361C19.5233 2.39777 20.188 2.60456 20.6311 2.77689C21.217 3.00337 21.6405 3.27909 22.0787 3.71729C22.5218 4.16041 22.7926 4.57891 23.0191 5.16482C23.1914 5.60794 23.3982 6.27754 23.4523 7.50351C23.5114 8.83287 23.5262 9.23168 23.5262 12.5945C23.5262 15.9622 23.5114 16.361 23.4523 17.6854C23.3982 18.9163 23.1914 19.581 23.0191 20.0241C22.7926 20.61 22.5169 21.0335 22.0787 21.4717C21.6355 21.9148 21.217 22.1856 20.6311 22.4121C20.188 22.5844 19.5184 22.7912 18.2924 22.8453C16.9631 22.9044 16.5643 22.9192 13.2015 22.9192C9.83377 22.9192 9.43496 22.9044 8.11052 22.8453C6.87963 22.7912 6.21495 22.5844 5.77183 22.4121C5.18593 22.1856 4.7625 21.9098 4.3243 21.4717C3.88118 21.0285 3.61039 20.61 3.3839 20.0241C3.21158 19.581 3.00479 18.9114 2.95063 17.6854C2.89155 16.3561 2.87678 15.9573 2.87678 12.5945C2.87678 9.22675 2.89155 8.82794 2.95063 7.50351C3.00479 6.27262 3.21158 5.60794 3.3839 5.16482C3.61039 4.57891 3.88611 4.15549 4.3243 3.71729C4.76742 3.27417 5.18593 3.00337 5.77183 2.77689C6.21495 2.60456 6.88456 2.39777 8.11052 2.34361C9.43496 2.28453 9.83377 2.26976 13.2015 2.26976ZM13.2015 0C9.77961 0 9.35126 0.0147707 8.00713 0.0738534C6.66792 0.132936 5.74721 0.349573 4.9496 0.659757C4.11751 0.984712 3.41345 1.41306 2.7143 2.11713C2.01023 2.81628 1.58188 3.52035 1.25693 4.3475C0.946741 5.15005 0.730104 6.06583 0.671021 7.40504C0.611939 8.75409 0.597168 9.18244 0.597168 12.6043C0.597168 16.0262 0.611939 16.4545 0.671021 17.7987C0.730104 19.1379 0.946741 20.0586 1.25693 20.8562C1.58188 21.6883 2.01023 22.3924 2.7143 23.0915C3.41345 23.7906 4.11751 24.2239 4.94467 24.544C5.74721 24.8541 6.663 25.0708 8.0022 25.1299C9.34634 25.1889 9.77469 25.2037 13.1966 25.2037C16.6184 25.2037 17.0468 25.1889 18.3909 25.1299C19.7301 25.0708 20.6508 24.8541 21.4485 24.544C22.2756 24.2239 22.9797 23.7906 23.6788 23.0915C24.378 22.3924 24.8112 21.6883 25.1313 20.8611C25.4415 20.0586 25.6581 19.1428 25.7172 17.8036C25.7763 16.4595 25.791 16.0311 25.791 12.6092C25.791 9.18737 25.7763 8.75902 25.7172 7.41488C25.6581 6.07567 25.4415 5.15497 25.1313 4.35735C24.8211 3.52035 24.3927 2.81628 23.6887 2.11713C22.9895 1.41799 22.2855 0.984712 21.4583 0.664681C20.6558 0.354496 19.74 0.13786 18.4008 0.078777C17.0517 0.0147707 16.6234 0 13.2015 0Z" fill="white"/>
<path d="M13.2015 6.12988C9.62703 6.12988 6.72705 9.02986 6.72705 12.6044C6.72705 16.1789 9.62703 19.0788 13.2015 19.0788C16.776 19.0788 19.676 16.1789 19.676 12.6044C19.676 9.02986 16.776 6.12988 13.2015 6.12988ZM13.2015 16.8042C10.8825 16.8042 9.00174 14.9234 9.00174 12.6044C9.00174 10.2854 10.8825 8.40457 13.2015 8.40457C15.5205 8.40457 17.4013 10.2854 17.4013 12.6044C17.4013 14.9234 15.5205 16.8042 13.2015 16.8042Z" fill="white"/>
<path d="M21.4435 5.8736C21.4435 6.7106 20.764 7.38513 19.9319 7.38513C19.0949 7.38513 18.4204 6.70568 18.4204 5.8736C18.4204 5.03659 19.0999 4.36206 19.9319 4.36206C20.764 4.36206 21.4435 5.04151 21.4435 5.8736Z" fill="white"/>
</g>
<defs>
<clipPath id="clip0_438_2053">
<rect width="25.2086" height="25.2086" fill="white" transform="translate(0.597168)"/>
</clipPath>
</defs>
</svg>
