<svg width="26" height="26" viewBox="0 0 26 26" fill="none" xmlns="http://www.w3.org/2000/svg">
<path d="M23.5368 0H2.05532C1.0263 0 0.194214 0.812388 0.194214 1.81679V23.3869C0.194214 24.3913 1.0263 25.2086 2.05532 25.2086H23.5368C24.5658 25.2086 25.4028 24.3913 25.4028 23.3918V1.81679C25.4028 0.812388 24.5658 0 23.5368 0ZM7.6731 21.4815H3.9312V9.44831H7.6731V21.4815ZM5.80215 7.80877C4.6008 7.80877 3.63086 6.83883 3.63086 5.6424C3.63086 4.44598 4.6008 3.47603 5.80215 3.47603C6.99858 3.47603 7.96852 4.44598 7.96852 5.6424C7.96852 6.8339 6.99858 7.80877 5.80215 7.80877ZM21.6757 21.4815H17.9387V15.6323C17.9387 14.2389 17.9141 12.4418 15.9939 12.4418C14.0491 12.4418 13.7537 13.9632 13.7537 15.5338V21.4815H10.0216V9.44831H13.606V11.0928H13.6552C14.1525 10.1475 15.3736 9.14798 17.1903 9.14798C20.9766 9.14798 21.6757 11.6393 21.6757 14.879V21.4815Z" fill="white"/>
</svg>
