<svg width="47" height="50" viewBox="0 0 47 50" fill="none" xmlns="http://www.w3.org/2000/svg">
<path d="M19.8962 5.16185C18.435 7.34577 17.7616 11.4381 17.7616 11.4381C17.7616 11.4381 19.7488 11.2457 20.994 11.4381C21.8491 11.5702 22.3049 11.7526 23.1286 12.0035C25.4675 12.7161 26.5241 13.718 28.8615 14.4348C31.6021 15.2754 36.1191 15.7353 36.1191 15.7353C36.1191 15.7353 40.0901 16.1418 42.1569 15.0568C43.4762 14.3642 44.3471 13.8535 44.9624 12.5689C45.6197 11.1966 45.6445 10.0859 44.9624 8.72402C44.3375 7.47654 43.5457 6.83309 42.1569 6.34924C40.8415 5.89095 38.5586 6.34924 38.5586 6.34924L36.8509 7.08429C36.8509 7.08429 37.0299 6.0967 36.8509 5.50111C36.6435 4.81086 36.2278 4.53992 35.7532 3.97446C34.4457 2.41703 33.5725 1.45051 31.6059 0.694996C29.1636 -0.243312 27.2889 -0.219946 24.8362 0.694996C22.3362 1.62763 21.3167 3.03875 19.8962 5.16185Z" fill="white"/>
<path d="M9.65013 22.9162C8.1358 24.5976 7.33684 26.2794 8.12543 28.3442C8.61092 29.6155 10.5039 31.0017 10.5039 31.0017C10.5039 31.0017 12.4632 31.6499 13.3094 32.5284C14.2198 33.4735 14.065 35.3295 14.6511 35.5251C14.8343 35.5863 16.1793 33.5424 17.5918 32.7138C18.5241 32.1668 19.2312 32.0245 20.0875 31.5737C20.5829 31.3129 19.0756 30.2667 19.7132 30.2667C20.3507 30.2667 20.5092 30.1383 20.9882 30.005C21.7465 29.7939 21.735 29.7662 22.3016 29.0022C22.6524 28.5291 22.6252 27.7274 22.4577 27.6034C22.2901 27.4794 22.2764 27.4397 22.0896 27.3423C21.7575 27.169 22.0635 26.9143 21.9088 26.5914C21.772 26.3061 21.4577 26.3014 21.2989 26.026C21.0405 25.5782 21.483 25.2909 21.12 24.9105C20.7097 24.4805 20.2485 25.0141 19.7132 24.7255C19.0164 24.35 19.4337 23.5693 19.0423 22.9162C18.5831 22.1499 18.2425 21.7073 17.4566 21.2199C16.1012 20.3792 14.9018 20.4417 13.3094 20.7676C11.6576 21.1056 10.7343 21.7124 9.65013 22.9162Z" fill="white"/>
<path d="M1.2947 20.7676C5.9907 9.26725 16.8467 7.08429 16.8467 7.08429C16.8467 7.08429 12.982 9.47281 10.9308 11.4381C8.62809 13.6443 7.31837 15.0149 5.99075 17.8274C4.19991 21.6211 4.38667 27.3423 4.52703 28.3442C5.40405 34.6049 9.94845 39.8295 12.6247 42.6856C15.301 45.5418 19.7132 49.3751 27.0317 50C20.4414 49.8515 17.1884 50.1747 11.7237 47.0598C5.99075 44.0568 3.34196 40.6262 1.2947 34.8466C0.13534 31.5737 -0.919645 26.1904 1.2947 20.7676Z" fill="white"/>
<path d="M19.8455 15.7994C19.0689 14.4892 18.6268 12.1418 18.6268 12.1418C18.6268 12.1418 20.0755 11.892 20.994 12.0035C21.9261 12.1167 22.4026 12.3926 23.2743 12.719C24.7262 13.2627 25.3878 13.872 26.8312 14.4348C28.5286 15.0967 29.5434 15.3331 31.3331 15.7353C33.4549 16.2122 34.6682 16.5216 36.8509 16.5696C39.0475 16.6178 42.4398 15.9702 42.4398 15.9702C42.4398 15.9702 44.9183 19.1809 45.7406 21.5442C46.5913 23.9894 46.5569 28.0794 46.5569 28.0794C46.5569 28.0794 45.8317 29.4872 45.1727 30.2667C43.4737 32.2765 41.8142 32.9774 39.1744 33.7062C36.2918 34.5022 31.4725 33.7062 31.4725 33.7062L33.1762 31.9064C33.1762 31.9064 34.7168 29.9216 35.0928 28.4414C35.4515 27.0289 35.0928 24.7255 35.0928 24.7255L33.1762 21.2199L29.9818 24.7255C29.9818 24.7255 29.3487 25.2691 28.8615 25.2401C28.4292 25.2144 27.9011 24.7255 27.9011 24.7255L27.364 23.3826L26.3726 23.2486L26.2073 22.8081L25.1333 22.6166L24.9887 21.5442L24.3897 21.1038L23.2743 21.5442C23.2743 21.5442 22.3201 22.0284 22.3016 21.5442C22.258 20.4063 22.4546 19.5406 21.9523 18.2697C21.496 17.1149 20.4844 16.8772 19.8455 15.7994Z" fill="white"/>
<path d="M14.7723 37.2658C15.2701 35.5911 15.9523 34.6352 17.4217 33.5573C19.0166 32.3873 20.3452 31.7398 22.357 32.0161C23.3483 32.1522 24.7467 32.883 24.7467 32.883C24.7467 32.883 28.8956 34.1924 31.656 34.5687C34.0075 34.8893 35.385 35.1926 37.7342 34.8577C39.8586 34.5548 41.1419 34.279 42.9292 33.172C44.8796 31.9638 46.8254 28.9336 46.8254 28.9336V32.0161L45.7345 36.8805C45.7345 36.8805 43.7525 40.9018 41.6824 42.9009C39.3439 45.1591 37.5907 46.1865 34.4094 47.2355C31.2915 48.2636 29.285 48.4665 25.9935 48.1506C22.8091 47.8451 20.6628 47.688 18.201 45.7907C16.7095 44.6411 15.8965 43.8042 15.1879 42.1303C14.4369 40.3564 14.2262 39.103 14.7723 37.2658Z" fill="white"/>
</svg>
