<svg width="32" height="32" viewBox="0 0 32 32" fill="none" xmlns="http://www.w3.org/2000/svg">
<path fill-rule="evenodd" clip-rule="evenodd" d="M16.4025 23.8044C18.1914 22.8962 25.3333 18.8417 25.3333 12C25.3333 6.8453 21.1546 2.66663 16 2.66663C10.8453 2.66663 6.66663 6.8453 6.66663 12C6.66663 18.8417 13.8085 22.8962 15.5974 23.8044C15.8514 23.9333 16.1485 23.9333 16.4025 23.8044ZM16 16C18.2091 16 20 14.2091 20 12C20 9.79082 18.2091 7.99996 16 7.99996C13.7908 7.99996 12 9.79082 12 12C12 14.2091 13.7908 16 16 16Z" fill="white"/>
<path d="M16.4025 23.8044L16.1308 23.2694H16.1308L16.4025 23.8044ZM15.5974 23.8044L15.8691 23.2694H15.8691L15.5974 23.8044ZM24.7333 12C24.7333 15.1984 23.0654 17.778 21.1173 19.7002C19.1705 21.621 16.9989 22.8287 16.1308 23.2694L16.6741 24.3394C17.595 23.8719 19.8887 22.5982 21.9601 20.5544C24.0302 18.5118 25.9333 15.6433 25.9333 12H24.7333ZM16 3.26663C20.8232 3.26663 24.7333 7.17667 24.7333 12H25.9333C25.9333 6.51393 21.486 2.06663 16 2.06663V3.26663ZM7.26663 12C7.26663 7.17667 11.1767 3.26663 16 3.26663V2.06663C10.5139 2.06663 6.06663 6.51393 6.06663 12H7.26663ZM15.8691 23.2694C15.001 22.8287 12.8294 21.621 10.8826 19.7002C8.93453 17.778 7.26663 15.1984 7.26663 12H6.06663C6.06663 15.6433 7.96968 18.5118 10.0398 20.5543C12.1112 22.5982 14.405 23.8719 15.3258 24.3394L15.8691 23.2694ZM16.1308 23.2694C16.0476 23.3117 15.9524 23.3117 15.8691 23.2694L15.3258 24.3394C15.7505 24.555 16.2494 24.555 16.6741 24.3394L16.1308 23.2694ZM19.4 12C19.4 13.8777 17.8777 15.4 16 15.4V16.6C18.5405 16.6 20.6 14.5405 20.6 12H19.4ZM16 8.59996C17.8777 8.59996 19.4 10.1222 19.4 12H20.6C20.6 9.45945 18.5405 7.39996 16 7.39996V8.59996ZM12.6 12C12.6 10.1222 14.1222 8.59996 16 8.59996V7.39996C13.4594 7.39996 11.4 9.45945 11.4 12H12.6ZM16 15.4C14.1222 15.4 12.6 13.8777 12.6 12H11.4C11.4 14.5405 13.4594 16.6 16 16.6V15.4Z" fill="white"/>
<path d="M26.3923 23.3333C27.4455 23.9413 28 24.6311 28 25.3333C28 26.0354 27.4455 26.7252 26.3923 27.3333C25.3391 27.9413 23.8242 28.4463 22 28.7974C20.1758 29.1484 18.1064 29.3333 16 29.3333C13.8936 29.3333 11.8242 29.1484 10 28.7974C8.17577 28.4463 6.66092 27.9413 5.6077 27.3333C4.55448 26.7252 4 26.0354 4 25.3333C4 24.6311 4.55447 23.9413 5.60769 23.3333" stroke="white" stroke-width="1.2" stroke-linecap="round"/>
</svg>
