<svg width="32" height="32" viewBox="0 0 32 32" fill="none" xmlns="http://www.w3.org/2000/svg">
<path fill-rule="evenodd" clip-rule="evenodd" d="M4.66665 16C4.66665 13.7585 5.33134 11.5673 6.57666 9.70354C7.82199 7.83978 9.59201 6.38716 11.6629 5.52937C13.7338 4.67157 16.0126 4.44713 18.211 4.88443C20.4095 5.32173 22.4289 6.40113 24.0139 7.98612C25.5989 9.57112 26.6783 11.5905 27.1156 13.789C27.5529 15.9874 27.3284 18.2662 26.4706 20.3371C25.6128 22.408 24.1602 24.178 22.2964 25.4233C20.4327 26.6686 18.2415 27.3333 16 27.3333C13.8558 27.3371 11.755 26.7294 9.94399 25.5813C9.7829 25.4794 9.60183 25.4133 9.413 25.3873C9.22416 25.3613 9.03195 25.3761 8.84932 25.4307L5.00932 26.576L6.45599 23.1933C6.54007 22.9964 6.57549 22.7821 6.55925 22.5686C6.543 22.3551 6.47557 22.1486 6.36265 21.9667C5.25056 20.1755 4.66299 18.1083 4.66665 16V16ZM16 2C8.26799 2 1.99999 8.268 1.99999 16C1.99999 18.4507 2.63065 20.7573 3.73999 22.764L1.43999 28.1427C1.34044 28.3757 1.30934 28.6322 1.35033 28.8822C1.39132 29.1323 1.5027 29.3654 1.67142 29.5544C1.84015 29.7435 2.05924 29.8805 2.30303 29.9495C2.54683 30.0185 2.80523 30.0166 3.04799 29.944L9.04799 28.1547C11.164 29.3673 13.5611 30.0036 16 30C23.732 30 30 23.732 30 16C30 8.268 23.732 2 16 2ZM19.0573 18.9093L17.304 20.144C16.3379 19.5882 15.4509 18.9052 14.6667 18.1133C13.8247 17.2725 13.0967 16.3249 12.5013 15.2947L13.6147 14.3493C13.8466 14.1525 14.0043 13.8823 14.0616 13.5835C14.1188 13.2847 14.0721 12.9753 13.9293 12.7067L12.5107 10.04C12.4162 9.8629 12.2831 9.7094 12.1211 9.59094C11.9591 9.47247 11.7724 9.39211 11.575 9.35584C11.3777 9.31957 11.1746 9.32832 10.9811 9.38145C10.7876 9.43457 10.6085 9.5307 10.4573 9.66267L10.036 10.0293C9.02399 10.912 8.42532 12.3627 8.92132 13.832C9.71933 16.1562 11.0399 18.2663 12.7813 20C15.1987 22.4173 17.6547 23.3693 19.092 23.74C20.2493 24.0373 21.344 23.6387 22.116 23.0093L22.904 22.3667C23.0701 22.2312 23.2011 22.0577 23.2859 21.8608C23.3707 21.6639 23.4068 21.4495 23.3911 21.2357C23.3754 21.0219 23.3084 20.815 23.1957 20.6327C23.0831 20.4503 22.9281 20.2977 22.744 20.188L20.5067 18.8547C20.2854 18.7227 20.0307 18.6576 19.7732 18.6673C19.5158 18.677 19.2667 18.761 19.056 18.9093H19.0573Z" fill="white"/>
</svg>
